<svg width="1926" height="1137" viewBox="0 0 1926 1137" fill="none" xmlns="http://www.w3.org/2000/svg">
<g clip-path="url(#clip0_117_2051)">
<rect width="1926" height="1137" fill="white"/>
<rect x="-9.25775" y="-1.14648" width="1940.24" height="1149.39" fill="#00011E"/>
<rect x="-9" y="-4" width="1940" height="1152" fill="url(#paint0_linear_117_2051)" fill-opacity="0.48"/>
<g filter="url(#filter0_f_117_2051)">
<circle cx="53.6478" cy="265.648" r="216.648" fill="#F200F7" fill-opacity="0.35"/>
</g>
<g filter="url(#filter1_f_117_2051)">
<circle cx="14.1402" cy="14.1402" r="14.1402" transform="matrix(-1 0 0 1 1562.32 281.657)" fill="#FF7DF6"/>
</g>
<g filter="url(#filter2_f_117_2051)">
<circle cx="1610.5" cy="-33.5" r="139.5" fill="#00C2FF" fill-opacity="0.38"/>
</g>
<g filter="url(#filter3_f_117_2051)">
<circle cx="1895.53" cy="1109.53" r="204.528" fill="#00FFFF" fill-opacity="0.55"/>
</g>
<g filter="url(#filter4_f_117_2051)">
<path d="M1653.14 549.569C1653.14 720.539 1514.54 859.138 1343.57 859.138C1172.6 859.138 1034 720.539 1034 549.569C1034 378.599 1172.6 240 1343.57 240C1514.54 240 1653.14 378.599 1653.14 549.569Z" fill="#FF00F5" fill-opacity="0.36"/>
</g>
<g filter="url(#filter5_f_117_2051)">
<ellipse cx="784" cy="1219.5" rx="156" ry="156.5" fill="#00D1FF" fill-opacity="0.26"/>
</g>
<g filter="url(#filter6_f_117_2051)">
<circle cx="790.311" cy="135.581" r="58.5808" fill="#BD00FF" fill-opacity="0.35"/>
</g>
<path fill-rule="evenodd" clip-rule="evenodd" d="M836.872 128.449C836.872 134.048 836.143 139.403 834.684 144.394C831.766 154.618 826.173 163.624 818.513 170.684C813.163 175.674 806.719 179.691 799.667 182.368C793.344 184.803 786.414 186.141 779.241 186.141C778.268 186.141 777.174 186.141 776.201 186.02C774.742 185.898 773.161 185.776 771.702 185.655C760.638 184.194 750.425 179.569 742.279 172.631C739.239 170.075 736.442 167.154 733.889 163.99C732.065 161.677 730.363 159.121 728.904 156.443C728.539 155.835 728.175 155.104 727.81 154.496C727.445 153.766 727.08 153.157 726.837 152.427C725.865 150.236 725.013 147.923 724.284 145.611C723.798 143.907 723.311 142.203 722.947 140.499C722.703 139.282 722.46 138.064 722.339 136.726C721.974 134.048 721.731 131.37 721.731 128.571C721.731 126.988 721.731 125.406 721.974 123.824C722.095 122.85 722.095 121.876 722.339 120.903C723.068 115.182 724.649 109.827 726.959 104.837C728.053 102.402 729.391 99.9679 730.85 97.7771C733.281 94.004 736.078 90.4742 739.361 87.3097C749.695 77.2074 763.921 71 779.484 71C780.092 71 780.7 71 781.308 71C781.915 71 782.645 71 783.253 71.1217C786.536 71.3651 789.819 71.852 792.858 72.5823C794.682 73.0691 796.506 73.556 798.208 74.1646C799.424 74.5297 800.518 75.0166 801.734 75.5034C802.585 75.8686 803.436 76.2337 804.287 76.5988C804.409 76.7206 804.53 76.7206 804.774 76.8423C810.366 79.52 815.473 83.1714 819.85 87.5531C820.458 88.1617 821.066 88.7702 821.674 89.3788C822.039 89.8657 822.525 90.2308 822.89 90.7177C823.619 91.448 824.227 92.3 824.835 93.0302C827.145 95.9514 829.091 99.1159 830.793 102.402C832.738 106.297 834.319 110.435 835.413 114.695C836.264 119.077 836.872 123.702 836.872 128.449Z" fill="url(#paint1_radial_117_2051)"/>
<g filter="url(#filter7_f_117_2051)">
<circle cx="41.5" cy="41.5" r="41.5" transform="matrix(-1 0 0 1 354 1037)" fill="#78EDF8" fill-opacity="0.26"/>
</g>
<path fill-rule="evenodd" clip-rule="evenodd" d="M348.287 1075.45C348.287 1079.18 347.8 1082.75 346.828 1086.08C344.882 1092.89 341.154 1098.9 336.047 1103.6C332.481 1106.93 328.185 1109.61 323.483 1111.39C319.268 1113.02 314.648 1113.91 309.866 1113.91C309.217 1113.91 308.488 1113.91 307.839 1113.83C306.867 1113.75 305.813 1113.66 304.84 1113.58C297.464 1112.61 290.655 1109.53 285.224 1104.9C283.198 1103.2 281.334 1101.25 279.632 1099.14C278.416 1097.6 277.281 1095.89 276.308 1094.11C276.065 1093.7 275.822 1093.22 275.579 1092.81C275.335 1092.32 275.092 1091.92 274.93 1091.43C274.282 1089.97 273.714 1088.43 273.228 1086.89C272.904 1085.75 272.58 1084.62 272.336 1083.48C272.174 1082.67 272.012 1081.86 271.931 1080.96C271.688 1079.18 271.526 1077.39 271.526 1075.53C271.526 1074.47 271.526 1073.42 271.688 1072.36C271.769 1071.71 271.769 1071.06 271.931 1070.42C272.417 1066.6 273.471 1063.03 275.011 1059.7C275.741 1058.08 276.632 1056.46 277.605 1055C279.226 1052.48 281.091 1050.13 283.279 1048.02C290.169 1041.29 299.653 1037.15 310.028 1037.15C310.433 1037.15 310.838 1037.15 311.244 1037.15C311.649 1037.15 312.135 1037.15 312.541 1037.23C314.729 1037.39 316.918 1037.71 318.944 1038.2C320.16 1038.53 321.376 1038.85 322.511 1039.26C323.321 1039.5 324.051 1039.82 324.861 1040.15C325.429 1040.39 325.996 1040.64 326.564 1040.88C326.645 1040.96 326.726 1040.96 326.888 1041.04C330.616 1042.83 334.021 1045.26 336.939 1048.18C337.344 1048.59 337.749 1048.99 338.155 1049.4C338.398 1049.72 338.722 1049.97 338.965 1050.29C339.452 1050.78 339.857 1051.35 340.262 1051.83C341.802 1053.78 343.099 1055.89 344.234 1058.08C345.531 1060.68 346.585 1063.44 347.314 1066.28C347.882 1069.2 348.287 1072.28 348.287 1075.45Z" fill="url(#paint2_radial_117_2051)"/>
<g filter="url(#filter8_f_117_2051)">
<circle cx="35.8555" cy="35.8555" r="35.8555" transform="matrix(-1 0 0 1 1714.86 884.675)" fill="#78EDF8" fill-opacity="0.3"/>
</g>
<path fill-rule="evenodd" clip-rule="evenodd" d="M1712.81 920.925C1712.81 924.166 1712.39 927.267 1711.55 930.156C1709.86 936.075 1706.62 941.29 1702.19 945.377C1699.09 948.266 1695.36 950.591 1691.27 952.141C1687.61 953.551 1683.6 954.326 1679.45 954.326C1678.89 954.326 1678.25 954.326 1677.69 954.255C1676.84 954.185 1675.93 954.115 1675.08 954.044C1668.68 953.198 1662.77 950.521 1658.05 946.504C1656.29 945.024 1654.67 943.333 1653.19 941.501C1652.14 940.162 1651.15 938.682 1650.31 937.132C1650.1 936.78 1649.88 936.357 1649.67 936.005C1649.46 935.582 1649.25 935.23 1649.11 934.807C1648.55 933.538 1648.05 932.2 1647.63 930.861C1647.35 929.874 1647.07 928.888 1646.86 927.901C1646.72 927.196 1646.58 926.492 1646.51 925.717C1646.29 924.166 1646.15 922.616 1646.15 920.995C1646.15 920.079 1646.15 919.163 1646.29 918.247C1646.36 917.684 1646.36 917.12 1646.51 916.556C1646.93 913.244 1647.84 910.144 1649.18 907.255C1649.81 905.845 1650.59 904.436 1651.43 903.168C1652.84 900.983 1654.46 898.94 1656.36 897.107C1662.34 891.259 1670.58 887.665 1679.59 887.665C1679.94 887.665 1680.29 887.665 1680.65 887.665C1681 887.665 1681.42 887.665 1681.77 887.736C1683.67 887.876 1685.57 888.158 1687.33 888.581C1688.39 888.863 1689.44 889.145 1690.43 889.497C1691.13 889.709 1691.77 889.99 1692.47 890.272C1692.96 890.484 1693.46 890.695 1693.95 890.906C1694.02 890.977 1694.09 890.977 1694.23 891.047C1697.47 892.598 1700.43 894.712 1702.96 897.248C1703.31 897.601 1703.66 897.953 1704.02 898.305C1704.23 898.587 1704.51 898.799 1704.72 899.081C1705.14 899.503 1705.49 899.997 1705.85 900.419C1707.18 902.111 1708.31 903.943 1709.29 905.845C1710.42 908.1 1711.34 910.496 1711.97 912.962C1712.46 915.499 1712.81 918.177 1712.81 920.925Z" fill="url(#paint3_radial_117_2051)"/>
<g filter="url(#filter9_f_117_2051)">
<circle cx="671.665" cy="207.492" r="13.6352" fill="#BD00FF" fill-opacity="0.69"/>
</g>
<path fill-rule="evenodd" clip-rule="evenodd" d="M684.29 205.44C684.29 206.865 684.105 208.227 683.734 209.496C682.991 212.097 681.569 214.389 679.62 216.184C678.259 217.454 676.62 218.476 674.826 219.157C673.218 219.776 671.455 220.117 669.63 220.117C669.382 220.117 669.104 220.117 668.856 220.086C668.485 220.055 668.083 220.024 667.712 219.993C664.897 219.621 662.299 218.445 660.227 216.68C659.454 216.03 658.742 215.286 658.093 214.481C657.629 213.893 657.196 213.243 656.825 212.562C656.732 212.407 656.639 212.221 656.546 212.066C656.454 211.881 656.361 211.726 656.299 211.54C656.052 210.983 655.835 210.394 655.65 209.806C655.526 209.373 655.402 208.939 655.309 208.506C655.247 208.196 655.186 207.886 655.155 207.546C655.062 206.865 655 206.183 655 205.471C655 205.069 655 204.666 655.062 204.264C655.093 204.016 655.093 203.768 655.155 203.521C655.34 202.066 655.742 200.703 656.33 199.434C656.608 198.814 656.949 198.195 657.32 197.638C657.938 196.678 658.65 195.78 659.485 194.975C662.114 192.405 665.733 190.826 669.692 190.826C669.846 190.826 670.001 190.826 670.156 190.826C670.31 190.826 670.496 190.826 670.65 190.857C671.486 190.919 672.321 191.043 673.094 191.229C673.558 191.353 674.022 191.476 674.455 191.631C674.764 191.724 675.042 191.848 675.352 191.972C675.568 192.065 675.785 192.158 676.001 192.25C676.032 192.281 676.063 192.281 676.125 192.312C677.548 192.994 678.847 193.922 679.96 195.037C680.115 195.192 680.27 195.347 680.424 195.501C680.517 195.625 680.641 195.718 680.733 195.842C680.919 196.028 681.074 196.245 681.228 196.43C681.816 197.173 682.311 197.978 682.744 198.814C683.239 199.805 683.641 200.858 683.919 201.942C684.136 203.056 684.29 204.233 684.29 205.44Z" fill="url(#paint4_radial_117_2051)"/>
<g filter="url(#filter10_f_117_2051)">
<circle cx="14.6452" cy="14.6452" r="14.6452" transform="matrix(-1 0 0 1 137.29 856)" fill="#78EDF8" fill-opacity="0.6"/>
</g>
<path fill-rule="evenodd" clip-rule="evenodd" d="M137.29 870.614C137.29 872.038 137.105 873.401 136.734 874.67C135.991 877.271 134.569 879.562 132.62 881.358C131.259 882.628 129.62 883.649 127.826 884.331C126.218 884.95 124.455 885.29 122.63 885.29C122.382 885.29 122.104 885.29 121.856 885.259C121.485 885.228 121.083 885.197 120.712 885.167C117.897 884.795 115.299 883.618 113.227 881.854C112.454 881.203 111.742 880.46 111.093 879.655C110.629 879.067 110.196 878.417 109.825 877.736C109.732 877.581 109.639 877.395 109.546 877.24C109.454 877.054 109.361 876.9 109.299 876.714C109.052 876.156 108.835 875.568 108.65 874.98C108.526 874.546 108.402 874.113 108.309 873.679C108.247 873.37 108.186 873.06 108.155 872.72C108.062 872.038 108 871.357 108 870.645C108 870.243 108 869.84 108.062 869.438C108.093 869.19 108.093 868.942 108.155 868.695C108.34 867.239 108.742 865.877 109.33 864.608C109.608 863.988 109.949 863.369 110.32 862.812C110.938 861.852 111.65 860.954 112.485 860.149C115.114 857.579 118.733 856 122.692 856C122.846 856 123.001 856 123.156 856C123.31 856 123.496 856 123.65 856.031C124.486 856.093 125.321 856.217 126.094 856.403C126.558 856.526 127.022 856.65 127.455 856.805C127.764 856.898 128.042 857.022 128.352 857.146C128.568 857.238 128.785 857.331 129.001 857.424C129.032 857.455 129.063 857.455 129.125 857.486C130.548 858.167 131.847 859.096 132.96 860.211C133.115 860.366 133.27 860.521 133.424 860.675C133.517 860.799 133.641 860.892 133.733 861.016C133.919 861.202 134.074 861.418 134.228 861.604C134.816 862.347 135.311 863.152 135.744 863.988C136.239 864.979 136.641 866.032 136.919 867.115C137.136 868.23 137.29 869.407 137.29 870.614Z" fill="url(#paint5_radial_117_2051)"/>
<g filter="url(#filter11_f_117_2051)">
<circle cx="14.6452" cy="14.6452" r="14.6452" transform="matrix(-1 0 0 1 1863.29 574)" fill="#78EDF8"/>
</g>
<path fill-rule="evenodd" clip-rule="evenodd" d="M1863.29 588.614C1863.29 590.038 1863.1 591.401 1862.73 592.67C1861.99 595.271 1860.57 597.562 1858.62 599.358C1857.26 600.628 1855.62 601.649 1853.83 602.331C1852.22 602.95 1850.45 603.29 1848.63 603.29C1848.38 603.29 1848.1 603.29 1847.86 603.259C1847.49 603.228 1847.08 603.197 1846.71 603.167C1843.9 602.795 1841.3 601.618 1839.23 599.854C1838.45 599.203 1837.74 598.46 1837.09 597.655C1836.63 597.067 1836.2 596.417 1835.82 595.736C1835.73 595.581 1835.64 595.395 1835.55 595.24C1835.45 595.054 1835.36 594.9 1835.3 594.714C1835.05 594.156 1834.84 593.568 1834.65 592.98C1834.53 592.546 1834.4 592.113 1834.31 591.679C1834.25 591.37 1834.19 591.06 1834.15 590.72C1834.06 590.038 1834 589.357 1834 588.645C1834 588.243 1834 587.84 1834.06 587.438C1834.09 587.19 1834.09 586.942 1834.15 586.695C1834.34 585.239 1834.74 583.877 1835.33 582.608C1835.61 581.988 1835.95 581.369 1836.32 580.812C1836.94 579.852 1837.65 578.954 1838.48 578.149C1841.11 575.579 1844.73 574 1848.69 574C1848.85 574 1849 574 1849.16 574C1849.31 574 1849.5 574 1849.65 574.031C1850.49 574.093 1851.32 574.217 1852.09 574.403C1852.56 574.526 1853.02 574.65 1853.45 574.805C1853.76 574.898 1854.04 575.022 1854.35 575.146C1854.57 575.238 1854.78 575.331 1855 575.424C1855.03 575.455 1855.06 575.455 1855.12 575.486C1856.55 576.167 1857.85 577.096 1858.96 578.211C1859.11 578.366 1859.27 578.521 1859.42 578.675C1859.52 578.799 1859.64 578.892 1859.73 579.016C1859.92 579.202 1860.07 579.418 1860.23 579.604C1860.82 580.347 1861.31 581.152 1861.74 581.988C1862.24 582.979 1862.64 584.032 1862.92 585.115C1863.14 586.23 1863.29 587.407 1863.29 588.614Z" fill="url(#paint6_radial_117_2051)"/>
<g filter="url(#filter12_f_117_2051)">
<circle cx="14.1402" cy="14.1402" r="14.1402" transform="matrix(-1 0 0 1 1015.28 934.02)" fill="#FF7DF6"/>
</g>
<path fill-rule="evenodd" clip-rule="evenodd" d="M1016.29 946.614C1016.29 948.038 1016.1 949.401 1015.73 950.67C1014.99 953.271 1013.57 955.562 1011.62 957.358C1010.26 958.628 1008.62 959.649 1006.83 960.331C1005.22 960.95 1003.45 961.29 1001.63 961.29C1001.38 961.29 1001.1 961.29 1000.86 961.259C1000.49 961.228 1000.08 961.197 999.712 961.167C996.897 960.795 994.299 959.618 992.227 957.854C991.454 957.203 990.742 956.46 990.093 955.655C989.629 955.067 989.196 954.417 988.825 953.736C988.732 953.581 988.639 953.395 988.546 953.24C988.454 953.054 988.361 952.9 988.299 952.714C988.052 952.156 987.835 951.568 987.65 950.98C987.526 950.546 987.402 950.113 987.309 949.679C987.247 949.37 987.186 949.06 987.155 948.72C987.062 948.038 987 947.357 987 946.645C987 946.243 987 945.84 987.062 945.438C987.093 945.19 987.093 944.942 987.155 944.695C987.34 943.239 987.742 941.877 988.33 940.608C988.608 939.988 988.949 939.369 989.32 938.812C989.938 937.852 990.65 936.954 991.485 936.149C994.114 933.579 997.733 932 1001.69 932C1001.85 932 1002 932 1002.16 932C1002.31 932 1002.5 932 1002.65 932.031C1003.49 932.093 1004.32 932.217 1005.09 932.403C1005.56 932.526 1006.02 932.65 1006.45 932.805C1006.76 932.898 1007.04 933.022 1007.35 933.146C1007.57 933.238 1007.78 933.331 1008 933.424C1008.03 933.455 1008.06 933.455 1008.12 933.486C1009.55 934.167 1010.85 935.096 1011.96 936.211C1012.11 936.366 1012.27 936.521 1012.42 936.675C1012.52 936.799 1012.64 936.892 1012.73 937.016C1012.92 937.202 1013.07 937.418 1013.23 937.604C1013.82 938.347 1014.31 939.152 1014.74 939.988C1015.24 940.979 1015.64 942.032 1015.92 943.115C1016.14 944.23 1016.29 945.407 1016.29 946.614Z" fill="url(#paint7_radial_117_2051)"/>
<path fill-rule="evenodd" clip-rule="evenodd" d="M1562.32 295.262C1562.32 296.686 1562.14 298.048 1561.77 299.318C1561.02 301.919 1559.6 304.21 1557.65 306.006C1556.29 307.275 1554.65 308.297 1552.86 308.978C1551.25 309.597 1549.49 309.938 1547.66 309.938C1547.41 309.938 1547.14 309.938 1546.89 309.907C1546.52 309.876 1546.12 309.845 1545.74 309.814C1542.93 309.442 1540.33 308.266 1538.26 306.501C1537.49 305.851 1536.77 305.108 1536.13 304.303C1535.66 303.714 1535.23 303.064 1534.86 302.383C1534.76 302.228 1534.67 302.042 1534.58 301.888C1534.49 301.702 1534.39 301.547 1534.33 301.361C1534.08 300.804 1533.87 300.216 1533.68 299.627C1533.56 299.194 1533.43 298.76 1533.34 298.327C1533.28 298.017 1533.22 297.708 1533.19 297.367C1533.09 296.686 1533.03 296.005 1533.03 295.293C1533.03 294.89 1533.03 294.488 1533.09 294.085C1533.13 293.837 1533.13 293.59 1533.19 293.342C1533.37 291.887 1533.77 290.524 1534.36 289.255C1534.64 288.636 1534.98 288.016 1535.35 287.459C1535.97 286.499 1536.68 285.601 1537.52 284.796C1540.15 282.227 1543.76 280.647 1547.72 280.647C1547.88 280.647 1548.03 280.647 1548.19 280.647C1548.34 280.647 1548.53 280.647 1548.68 280.678C1549.52 280.74 1550.35 280.864 1551.13 281.05C1551.59 281.174 1552.05 281.298 1552.49 281.452C1552.8 281.545 1553.07 281.669 1553.38 281.793C1553.6 281.886 1553.82 281.979 1554.03 282.072C1554.06 282.103 1554.1 282.103 1554.16 282.134C1555.58 282.815 1556.88 283.744 1557.99 284.858C1558.15 285.013 1558.3 285.168 1558.46 285.323C1558.55 285.447 1558.67 285.54 1558.77 285.663C1558.95 285.849 1559.11 286.066 1559.26 286.252C1559.85 286.995 1560.34 287.8 1560.78 288.636C1561.27 289.627 1561.67 290.679 1561.95 291.763C1562.17 292.878 1562.32 294.054 1562.32 295.262Z" fill="url(#paint8_radial_117_2051)"/>
</g>
<defs>
<filter id="filter0_f_117_2051" x="-463" y="-251" width="1033.3" height="1033.3" filterUnits="userSpaceOnUse" color-interpolation-filters="sRGB">
<feFlood flood-opacity="0" result="BackgroundImageFix"/>
<feBlend mode="normal" in="SourceGraphic" in2="BackgroundImageFix" result="shape"/>
<feGaussianBlur stdDeviation="150" result="effect1_foregroundBlur_117_2051"/>
</filter>
<filter id="filter1_f_117_2051" x="1524.04" y="271.657" width="48.2804" height="48.2803" filterUnits="userSpaceOnUse" color-interpolation-filters="sRGB">
<feFlood flood-opacity="0" result="BackgroundImageFix"/>
<feBlend mode="normal" in="SourceGraphic" in2="BackgroundImageFix" result="shape"/>
<feGaussianBlur stdDeviation="5" result="effect1_foregroundBlur_117_2051"/>
</filter>
<filter id="filter2_f_117_2051" x="1257" y="-387" width="707" height="707" filterUnits="userSpaceOnUse" color-interpolation-filters="sRGB">
<feFlood flood-opacity="0" result="BackgroundImageFix"/>
<feBlend mode="normal" in="SourceGraphic" in2="BackgroundImageFix" result="shape"/>
<feGaussianBlur stdDeviation="107" result="effect1_foregroundBlur_117_2051"/>
</filter>
<filter id="filter3_f_117_2051" x="1339" y="553" width="1113.06" height="1113.06" filterUnits="userSpaceOnUse" color-interpolation-filters="sRGB">
<feFlood flood-opacity="0" result="BackgroundImageFix"/>
<feBlend mode="normal" in="SourceGraphic" in2="BackgroundImageFix" result="shape"/>
<feGaussianBlur stdDeviation="176" result="effect1_foregroundBlur_117_2051"/>
</filter>
<filter id="filter4_f_117_2051" x="546" y="-248" width="1595.14" height="1595.14" filterUnits="userSpaceOnUse" color-interpolation-filters="sRGB">
<feFlood flood-opacity="0" result="BackgroundImageFix"/>
<feBlend mode="normal" in="SourceGraphic" in2="BackgroundImageFix" result="shape"/>
<feGaussianBlur stdDeviation="244" result="effect1_foregroundBlur_117_2051"/>
</filter>
<filter id="filter5_f_117_2051" x="382" y="817" width="804" height="805" filterUnits="userSpaceOnUse" color-interpolation-filters="sRGB">
<feFlood flood-opacity="0" result="BackgroundImageFix"/>
<feBlend mode="normal" in="SourceGraphic" in2="BackgroundImageFix" result="shape"/>
<feGaussianBlur stdDeviation="123" result="effect1_foregroundBlur_117_2051"/>
</filter>
<filter id="filter6_f_117_2051" x="680.731" y="26" width="219.162" height="219.162" filterUnits="userSpaceOnUse" color-interpolation-filters="sRGB">
<feFlood flood-opacity="0" result="BackgroundImageFix"/>
<feBlend mode="normal" in="SourceGraphic" in2="BackgroundImageFix" result="shape"/>
<feGaussianBlur stdDeviation="25.5" result="effect1_foregroundBlur_117_2051"/>
</filter>
<filter id="filter7_f_117_2051" x="242" y="1008" width="141" height="141" filterUnits="userSpaceOnUse" color-interpolation-filters="sRGB">
<feFlood flood-opacity="0" result="BackgroundImageFix"/>
<feBlend mode="normal" in="SourceGraphic" in2="BackgroundImageFix" result="shape"/>
<feGaussianBlur stdDeviation="14.5" result="effect1_foregroundBlur_117_2051"/>
</filter>
<filter id="filter8_f_117_2051" x="1624.15" y="865.675" width="109.711" height="109.711" filterUnits="userSpaceOnUse" color-interpolation-filters="sRGB">
<feFlood flood-opacity="0" result="BackgroundImageFix"/>
<feBlend mode="normal" in="SourceGraphic" in2="BackgroundImageFix" result="shape"/>
<feGaussianBlur stdDeviation="9.5" result="effect1_foregroundBlur_117_2051"/>
</filter>
<filter id="filter9_f_117_2051" x="638.03" y="173.856" width="67.2704" height="67.2705" filterUnits="userSpaceOnUse" color-interpolation-filters="sRGB">
<feFlood flood-opacity="0" result="BackgroundImageFix"/>
<feBlend mode="normal" in="SourceGraphic" in2="BackgroundImageFix" result="shape"/>
<feGaussianBlur stdDeviation="10" result="effect1_foregroundBlur_117_2051"/>
</filter>
<filter id="filter10_f_117_2051" x="91.9999" y="840" width="61.2904" height="61.2905" filterUnits="userSpaceOnUse" color-interpolation-filters="sRGB">
<feFlood flood-opacity="0" result="BackgroundImageFix"/>
<feBlend mode="normal" in="SourceGraphic" in2="BackgroundImageFix" result="shape"/>
<feGaussianBlur stdDeviation="8" result="effect1_foregroundBlur_117_2051"/>
</filter>
<filter id="filter11_f_117_2051" x="1824" y="564" width="49.2904" height="49.2905" filterUnits="userSpaceOnUse" color-interpolation-filters="sRGB">
<feFlood flood-opacity="0" result="BackgroundImageFix"/>
<feBlend mode="normal" in="SourceGraphic" in2="BackgroundImageFix" result="shape"/>
<feGaussianBlur stdDeviation="5" result="effect1_foregroundBlur_117_2051"/>
</filter>
<filter id="filter12_f_117_2051" x="977" y="924.02" width="48.2804" height="48.2803" filterUnits="userSpaceOnUse" color-interpolation-filters="sRGB">
<feFlood flood-opacity="0" result="BackgroundImageFix"/>
<feBlend mode="normal" in="SourceGraphic" in2="BackgroundImageFix" result="shape"/>
<feGaussianBlur stdDeviation="5" result="effect1_foregroundBlur_117_2051"/>
</filter>
<linearGradient id="paint0_linear_117_2051" x1="-1989.9" y1="2309.11" x2="1662.29" y2="234.057" gradientUnits="userSpaceOnUse">
<stop stop-color="#CA079F"/>
<stop offset="1" stop-color="#AB45AD" stop-opacity="0"/>
</linearGradient>
<radialGradient id="paint1_radial_117_2051" cx="0" cy="0" r="1" gradientUnits="userSpaceOnUse" gradientTransform="translate(743.578 101.489) scale(92.5284 92.6262)">
<stop offset="0.00558659" stop-color="#DE63B4"/>
<stop offset="0.2018" stop-color="#DB63B9"/>
<stop offset="0.3542" stop-color="#D15DAA"/>
<stop offset="0.4919" stop-color="#C14FA1"/>
<stop offset="0.6209" stop-color="#A93B9E"/>
<stop offset="0.7437" stop-color="#8B2274"/>
<stop offset="0.8606" stop-color="#67034B"/>
<stop offset="1" stop-color="#630059"/>
</radialGradient>
<radialGradient id="paint2_radial_117_2051" cx="0" cy="0" r="1" gradientUnits="userSpaceOnUse" gradientTransform="translate(286.09 1057.47) scale(61.6856 61.7508)">
<stop offset="0.00558659" stop-color="#63DEDE"/>
<stop offset="0.2018" stop-color="#63D4DB"/>
<stop offset="0.3542" stop-color="#5DD1D1"/>
<stop offset="0.4919" stop-color="#4FBAC1"/>
<stop offset="0.6209" stop-color="#3BA2A9"/>
<stop offset="0.7437" stop-color="#22858B"/>
<stop offset="0.8606" stop-color="#035B67"/>
<stop offset="1" stop-color="#005D63"/>
</radialGradient>
<radialGradient id="paint3_radial_117_2051" cx="0" cy="0" r="1" gradientUnits="userSpaceOnUse" gradientTransform="translate(1658.8 905.317) scale(53.5691 53.6257)">
<stop offset="0.00558659" stop-color="#63DEDE"/>
<stop offset="0.2018" stop-color="#63D4DB"/>
<stop offset="0.3542" stop-color="#5DD1D1"/>
<stop offset="0.4919" stop-color="#4FBAC1"/>
<stop offset="0.6209" stop-color="#3BA2A9"/>
<stop offset="0.7437" stop-color="#22858B"/>
<stop offset="0.8606" stop-color="#035B67"/>
<stop offset="1" stop-color="#005D63"/>
</radialGradient>
<radialGradient id="paint4_radial_117_2051" cx="0" cy="0" r="1" gradientUnits="userSpaceOnUse" gradientTransform="translate(660.558 198.582) scale(23.5379 23.5628)">
<stop offset="0.00558659" stop-color="#DE63B4"/>
<stop offset="0.2018" stop-color="#DB63B9"/>
<stop offset="0.3542" stop-color="#D15DAA"/>
<stop offset="0.4919" stop-color="#C14FA1"/>
<stop offset="0.6209" stop-color="#A93B9E"/>
<stop offset="0.7437" stop-color="#8B2274"/>
<stop offset="0.8606" stop-color="#67034B"/>
<stop offset="1" stop-color="#630059"/>
</radialGradient>
<radialGradient id="paint5_radial_117_2051" cx="0" cy="0" r="1" gradientUnits="userSpaceOnUse" gradientTransform="translate(113.558 863.756) scale(23.5379 23.5628)">
<stop offset="0.00558659" stop-color="#63DEDE"/>
<stop offset="0.2018" stop-color="#63D4DB"/>
<stop offset="0.3542" stop-color="#5DD1D1"/>
<stop offset="0.4919" stop-color="#4FBAC1"/>
<stop offset="0.6209" stop-color="#3BA2A9"/>
<stop offset="0.7437" stop-color="#22858B"/>
<stop offset="0.8606" stop-color="#035B67"/>
<stop offset="1" stop-color="#005D63"/>
</radialGradient>
<radialGradient id="paint6_radial_117_2051" cx="0" cy="0" r="1" gradientUnits="userSpaceOnUse" gradientTransform="translate(1839.56 581.756) scale(23.5379 23.5628)">
<stop offset="0.00558659" stop-color="#63DEDE"/>
<stop offset="0.2018" stop-color="#63D4DB"/>
<stop offset="0.3542" stop-color="#5DD1D1"/>
<stop offset="0.4919" stop-color="#4FBAC1"/>
<stop offset="0.6209" stop-color="#3BA2A9"/>
<stop offset="0.7437" stop-color="#22858B"/>
<stop offset="0.8606" stop-color="#035B67"/>
<stop offset="1" stop-color="#005D63"/>
</radialGradient>
<radialGradient id="paint7_radial_117_2051" cx="0" cy="0" r="1" gradientUnits="userSpaceOnUse" gradientTransform="translate(992.558 939.756) scale(23.5379 23.5628)">
<stop offset="0.00558659" stop-color="#DE63B4"/>
<stop offset="0.2018" stop-color="#DB63B9"/>
<stop offset="0.3542" stop-color="#D15DAA"/>
<stop offset="0.4919" stop-color="#C14FA1"/>
<stop offset="0.6209" stop-color="#A93B9E"/>
<stop offset="0.7437" stop-color="#8B2274"/>
<stop offset="0.8606" stop-color="#67034B"/>
<stop offset="1" stop-color="#630059"/>
</radialGradient>
<radialGradient id="paint8_radial_117_2051" cx="0" cy="0" r="1" gradientUnits="userSpaceOnUse" gradientTransform="translate(1538.59 288.404) scale(23.5379 23.5628)">
<stop offset="0.00558659" stop-color="#DE63B4"/>
<stop offset="0.2018" stop-color="#DB63B9"/>
<stop offset="0.3542" stop-color="#D15DAA"/>
<stop offset="0.4919" stop-color="#C14FA1"/>
<stop offset="0.6209" stop-color="#A93B9E"/>
<stop offset="0.7437" stop-color="#8B2274"/>
<stop offset="0.8606" stop-color="#67034B"/>
<stop offset="1" stop-color="#630059"/>
</radialGradient>
<clipPath id="clip0_117_2051">
<rect width="1926" height="1137" fill="white"/>
</clipPath>
</defs>
</svg>
