<svg width="824" height="598" viewBox="0 0 824 598" fill="none" xmlns="http://www.w3.org/2000/svg">
<g clip-path="url(#clip0_139_4460)">
<path d="M154 9.37848L119.331 0L118 3.79548L153.07 13L154 9.37848Z" stroke="white" stroke-linecap="round" stroke-linejoin="round"/>
<path d="M159 4L158 8" stroke="white" stroke-linecap="round" stroke-linejoin="round"/>
<path d="M160 7L157 6" stroke="white" stroke-linecap="round" stroke-linejoin="round"/>
<path d="M161 17L159 23" stroke="white" stroke-linecap="round" stroke-linejoin="round"/>
<path d="M162 20L157 19" stroke="white" stroke-linecap="round" stroke-linejoin="round"/>
<path d="M169 7L166 15" stroke="white" stroke-linecap="round" stroke-linejoin="round"/>
<path d="M171 12L164 9" stroke="white" stroke-linecap="round" stroke-linejoin="round"/>
<path d="M343 23H355.49" stroke="#FAD8B0" stroke-miterlimit="10"/>
<path d="M774.13 229.273C776.411 229.273 778.26 227.421 778.26 225.136C778.26 222.852 776.411 221 774.13 221C771.849 221 770 222.852 770 225.136C770 227.421 771.849 229.273 774.13 229.273Z" fill="#91BA83"/>
<path d="M242 431H254.49" stroke="#A0C6F4" stroke-linecap="round" stroke-linejoin="round"/>
<path d="M263.413 251.857C268.612 251.857 272.826 247.636 272.826 242.428C272.826 237.221 268.612 233 263.413 233C258.214 233 254 237.221 254 242.428C254 247.636 258.214 251.857 263.413 251.857Z" fill="#FF6D66"/>
<path d="M527.964 164H513V178.989H527.964V164Z" fill="#FFE1C0"/>
<path d="M647.692 71.7246H632.861V85.2894H647.692V71.7246Z" fill="#FAD8B0"/>
<path d="M632.861 63V71.7251H624" stroke="white" stroke-linecap="round" stroke-linejoin="round"/>
<path d="M99.5807 166.172C102 166.172 103.961 164.208 103.961 161.785C103.961 159.362 102 157.397 99.5807 157.397C97.1614 157.397 95.2002 159.362 95.2002 161.785C95.2002 164.208 97.1614 166.172 99.5807 166.172Z" fill="white"/>
<path d="M71.6921 137.687L76.4907 133.064L87.509 139.395L93.06 156.526L76.1228 149.426L71.6921 137.687Z" stroke="white" stroke-linecap="round" stroke-linejoin="round"/>
<path d="M76.4905 133.065L71.6919 137.687L69 134.421L73.5979 130L76.4905 133.065Z" stroke="white" stroke-linecap="round" stroke-linejoin="round"/>
<path d="M93.0599 156.527L82.0415 144.419" stroke="white" stroke-linecap="round" stroke-linejoin="round"/>
<path d="M35.6921 132.727H20.8621V146.291H35.6921V132.727Z" fill="#FF6D66"/>
<path d="M330.692 530.727H315.862V544.291H330.692V530.727Z" fill="#FF6D66"/>
<path d="M20.862 124V132.725H12" stroke="white" stroke-linecap="round" stroke-linejoin="round"/>
<path d="M315.862 522V530.725H307" stroke="white" stroke-linecap="round" stroke-linejoin="round"/>
<path d="M0 213L12.272 215.21" stroke="#FAD8B0" stroke-miterlimit="10"/>
<path d="M558 95H570.473" stroke="#FF6D66" stroke-linecap="round" stroke-linejoin="round"/>
<path d="M677.13 488.273C679.411 488.273 681.26 486.421 681.26 484.136C681.26 481.852 679.411 480 677.13 480C674.849 480 673 481.852 673 484.136C673 486.421 674.849 488.273 677.13 488.273Z" fill="#91BA83"/>
<path d="M680.878 269L685.325 276.721L689.773 284.441H680.878H672L676.43 276.721L680.878 269Z" fill="#A0C6F4"/>
<path d="M583.752 378.522C586.928 378.522 589.503 375.942 589.503 372.761C589.503 369.579 586.928 367 583.752 367C580.575 367 578 369.579 578 372.761C578 375.942 580.575 378.522 583.752 378.522Z" fill="#FF6D66"/>
<path d="M578 277H590.49" stroke="#A0C6F4" stroke-linecap="round" stroke-linejoin="round"/>
<path d="M141.13 412.273C143.41 412.273 145.259 410.421 145.259 408.136C145.259 405.852 143.41 404 141.13 404C138.849 404 137 405.852 137 408.136C137 410.421 138.849 412.273 141.13 412.273Z" fill="#FF6D66"/>
<path d="M145 185H157.473" stroke="#FF6D66" stroke-linecap="round" stroke-linejoin="round"/>
<path d="M209.004 99.9206L210.175 64.8865C210.041 61.5371 211.378 60.5826 213.385 60.1304C222.882 58.0371 251.84 51.5896 283.157 60.884C287.219 62.0898 287.086 64.2334 287.019 66.176L285.899 99.5689C285.817 100.193 285.606 100.793 285.279 101.33C284.951 101.867 284.515 102.33 283.999 102.688C283.482 103.046 282.896 103.292 282.279 103.41C281.661 103.527 281.026 103.514 280.415 103.37C269.032 102.006 257.567 101.446 246.106 101.696C235.082 101.649 224.074 102.539 213.201 104.358C210.091 104.944 208.921 102.667 209.004 99.9206Z" stroke="white" stroke-linecap="round" stroke-linejoin="round"/>
<path d="M219.571 94.8958L237.863 73.46L258.094 93.4723C251.105 91.111 219.571 94.8958 219.571 94.8958Z" stroke="white" stroke-linecap="round" stroke-linejoin="round"/>
<path d="M249.048 83.3068L263.829 71.4502L276.285 80.3594L276.753 94.2759L258.077 93.3716" stroke="white" stroke-linecap="round" stroke-linejoin="round"/>
<path d="M227.472 71.7814C227.642 70.0974 226.178 68.5703 224.203 68.3704C222.228 68.1704 220.489 69.3734 220.319 71.0574C220.149 72.7414 221.613 74.2686 223.588 74.4685C225.563 74.6685 227.302 73.4654 227.472 71.7814Z" stroke="white" stroke-linecap="round" stroke-linejoin="round"/>
<path d="M525.578 537.531L576.072 524L578.011 529.476L526.932 542.756L525.578 537.531Z" stroke="white" stroke-linecap="round" stroke-linejoin="round"/>
<path d="M518.555 530.464L520.027 535.053" stroke="white" stroke-linecap="round" stroke-linejoin="round"/>
<path d="M517.134 533.461L521.398 531.988" stroke="white" stroke-linecap="round" stroke-linejoin="round"/>
<path d="M516.114 547.998L518.856 556.673" stroke="white" stroke-linecap="round" stroke-linejoin="round"/>
<path d="M513.774 553.491L521.364 551.079" stroke="white" stroke-linecap="round" stroke-linejoin="round"/>
<path d="M504.561 533.696L508.156 545.184" stroke="white" stroke-linecap="round" stroke-linejoin="round"/>
<path d="M501 540.847L511.633 537.447" stroke="white" stroke-linecap="round" stroke-linejoin="round"/>
<g filter="url(#filter0_f_139_4460)">
<path d="M342.003 524.552L395.044 357.589L373.354 335.716L359.084 333.143L343.707 333.274L275.391 473.781L342.003 524.552Z" fill="url(#paint0_linear_139_4460)"/>
</g>
<path d="M414.088 352.122C414.088 352.122 447.733 381.636 456.913 382.719C466.093 383.802 466.416 362.908 466.416 362.908C465.507 361.262 464.494 359.556 463.381 357.771C452.262 339.789 431.76 315.531 419.622 303.452C414.51 298.383 410.862 295.46 410.009 296.077C403.545 300.616 414.088 352.122 414.088 352.122Z" fill="url(#paint1_linear_139_4460)"/>
<path d="M466.213 362.774C466.213 362.774 462.166 357.572 454.853 361.799C447.539 366.027 450.96 380.748 456.771 382.69C462.581 384.632 468.937 372.326 466.213 362.774Z" fill="url(#paint2_linear_139_4460)"/>
<path style="mix-blend-mode:multiply" opacity="0.3" d="M414.08 352.115C414.08 352.115 447.73 381.636 456.912 382.719C466.094 383.802 466.417 362.902 466.417 362.902C465.507 361.256 464.494 359.549 463.381 357.764C463.381 357.764 452.907 361.23 436.208 354.863C419.509 348.496 419.629 303.455 419.629 303.455C414.517 298.384 410.867 295.461 410.015 296.078C403.535 300.596 414.08 352.115 414.08 352.115Z" fill="url(#paint3_linear_139_4460)"/>
<path d="M313.307 352.597C304.597 382.294 313.503 401.987 340.808 416.51C367.58 430.744 399.712 410.838 409.71 372.224C416.104 347.56 420.267 324.863 415.492 306.697C412.878 296.154 406.543 286.921 397.659 280.704C390.056 275.209 380.902 275.934 371.435 280.428C346.714 292.177 320.046 329.723 313.307 352.597Z" fill="url(#paint4_linear_139_4460)"/>
<path style="mix-blend-mode:multiply" opacity="0.3" d="M354.836 310.613C347.027 321.147 339.791 332.094 333.161 343.407C324.224 359.723 324.832 380.615 324.832 380.615C325.292 386.833 326.646 392.952 328.851 398.783C331.189 405.054 333.511 408.188 332.69 408.876C331.306 410.039 321.086 403.606 315.258 393.2C307.81 380.06 310.039 365.354 312.055 357.426C312.534 354.836 313.163 352.276 313.939 349.759C315.585 344.295 318.001 339.094 321.112 334.312C328.059 323.929 331.66 319.438 331.66 319.438L354.836 310.613Z" fill="url(#paint5_linear_139_4460)"/>
<path d="M409.054 377.044C409.054 377.044 413.833 353.722 394.803 343.243C372.014 330.647 342.789 347.547 334.776 365.429C326.763 383.31 323.175 402.261 344.352 414.778C344.348 414.796 385.177 436.063 409.054 377.044Z" fill="url(#paint6_linear_139_4460)"/>
<path d="M407.445 379.76C407.445 379.76 412.223 356.442 393.193 345.964C370.404 333.37 341.18 350.266 333.163 368.162C325.147 386.058 321.568 404.968 342.746 417.484C342.742 417.502 383.552 438.858 407.445 379.76Z" fill="url(#paint7_radial_139_4460)"/>
<path d="M331.825 327.108C332.544 327.34 333.306 327.412 334.056 327.32C334.806 327.228 335.527 326.974 336.168 326.576C344.417 322.843 359.457 307.318 365.021 297.131C367.154 293.186 367.874 290.022 366.191 288.687C363.43 286.49 351.623 293.327 340.721 306.082C334.397 313.492 327.617 324.79 331.825 327.108Z" fill="url(#paint8_linear_139_4460)"/>
<path d="M336.169 326.025C344.422 322.271 359.477 306.676 365.051 296.447C359.939 298.677 352.129 304.632 344.704 313.332C341.349 317.197 338.482 321.46 336.169 326.025Z" fill="#6340A2"/>
<g style="mix-blend-mode:multiply" opacity="0.5">
<path d="M371.584 280.379C371.584 280.379 393.828 306.25 405.245 310.895C416.32 315.429 415.832 307.066 415.802 306.581C413.16 296.088 406.779 286.902 397.847 280.733C390.206 275.273 381.036 275.921 371.584 280.379Z" fill="url(#paint9_linear_139_4460)"/>
</g>
<path style="mix-blend-mode:screen" opacity="0.72" d="M405.665 376.528C399.826 380.365 392.953 367.612 378.773 361.865C364.593 356.118 353.565 359.177 350.772 355.184C347.979 351.191 370.96 338.034 391.892 348.401C408.619 356.705 407.706 375.225 405.665 376.528Z" fill="url(#paint10_linear_139_4460)"/>
<path style="mix-blend-mode:screen" opacity="0.72" d="M363.375 418.101C357.285 419.704 350.92 418.985 345.399 416.071C336.09 411.184 335.578 404.684 335.578 404.684C339.602 405.383 343.329 407.276 346.335 410.147C351.114 414.539 357.039 417.304 363.375 418.101Z" fill="url(#paint11_linear_139_4460)"/>
<path d="M380.461 306.996C382.151 307.936 376.214 325.294 374.547 325.089C372.881 324.883 372.91 320.547 374.481 314.66C376.052 308.773 378.829 306.067 380.461 306.996Z" fill="white"/>
<path d="M247.069 333.353C241.91 344.1 250.923 354.052 255.659 354.688C259.792 355.252 274.23 353.59 294.604 344.93C297.607 343.652 300.719 342.224 303.981 340.637C329.28 328.244 367.854 297.96 358.893 292.255C333.091 275.853 252.24 322.647 247.069 333.353Z" fill="url(#paint12_linear_139_4460)"/>
<path d="M265.52 354.293C265.52 354.293 272.634 346.316 268.323 337.138C264.011 327.961 248.892 330.976 248.892 330.976C247.769 332.184 246.9 333.609 246.337 335.165C245.774 336.721 245.529 338.375 245.618 340.026C245.706 341.677 246.126 343.291 246.852 344.769C247.578 346.247 248.594 347.559 249.839 348.623C258.986 357.502 265.52 354.293 265.52 354.293Z" fill="url(#paint13_linear_139_4460)"/>
<path style="mix-blend-mode:multiply" opacity="0.3" d="M247.068 333.357C241.914 344.103 250.907 354.049 255.635 354.684C259.76 355.246 274.172 353.579 294.513 344.914C292.712 345.565 279.503 350.07 275.176 346.058C270.512 341.722 273.564 320.494 307.866 301.865C341.084 283.792 357.789 291.724 358.799 292.231C332.954 275.841 252.233 322.652 247.068 333.357Z" fill="url(#paint14_linear_139_4460)"/>
<path d="M264.09 341.493C260.217 335.352 252.09 334.443 249.561 334.166C236.982 332.737 228.276 342.697 226.832 344.416C222.877 347.548 215.332 354.617 214.305 365.429C214.039 368.264 213.706 372.387 216.285 375.279C220.177 379.643 228.015 378.153 230.217 377.727C238.218 376.196 238.586 372.176 252.553 361.473C260.774 355.182 266.184 352.326 265.967 346.839C265.827 344.923 265.179 343.077 264.09 341.493Z" fill="url(#paint15_linear_139_4460)"/>
<path d="M325.836 319.317C327.484 324.362 318.438 325.901 316.38 324.732C314.321 323.564 324.559 315.839 325.836 319.317Z" fill="white"/>
<path d="M314.462 326.525C315.085 327.228 311.317 329.37 310.462 329.659C308.804 330.249 305.776 330.013 305.767 329.443C305.758 328.873 313.736 325.687 314.462 326.525Z" fill="white"/>
<path d="M440.258 331.841C439.6 333.05 432.106 327.225 432.903 323.362C433.699 319.498 441.199 330.074 440.258 331.841Z" fill="white"/>
<path d="M509.315 395.977C508.591 398.309 507.4 400.473 505.812 402.349C505.812 402.349 499.805 404.711 489.528 402.008C479.251 399.305 460.288 384.451 457.754 381.841C455.219 379.232 454.913 373.108 454.913 373.108L509.315 395.977Z" fill="url(#paint16_linear_139_4460)"/>
<path d="M456.462 374.7C456.937 375.435 457.466 376.132 458.044 376.785C458.735 377.581 459.605 378.435 460.608 379.297L462.101 380.638C471.297 388.657 488.643 399.765 497.033 400.496C507.979 401.464 509.349 395.822 509.349 395.822C504.559 389.794 499.386 384.096 493.86 378.765C491.058 376.003 488.018 373.505 484.775 371.299C479.651 368.055 474.19 365.392 468.49 363.359C466.766 362.257 464.744 361.73 462.703 361.852C460.662 361.973 458.702 362.737 457.094 364.038C456.806 364.838 454.472 371.664 456.462 374.7Z" fill="url(#paint17_linear_139_4460)"/>
<path d="M468.193 363.706C473.852 365.772 479.27 368.471 484.352 371.756C487.604 374.004 490.652 376.553 493.458 379.372C484.179 366.75 469.048 363.85 468.193 363.706Z" fill="url(#paint18_linear_139_4460)"/>
<path d="M489.13 394.705C485.784 391.37 481.692 389.114 477.244 388.152C477.244 388.152 485.023 394.676 489.13 394.705Z" fill="white"/>
<path d="M489.397 379.221C488.98 380.713 479.376 373.518 479.76 371.735C480.145 369.953 490.122 376.739 489.397 379.221Z" fill="white"/>
<path d="M458.096 144.533C458.096 144.533 470.677 158.464 471.542 183.683C472.407 208.902 444.129 171.896 444.129 171.896L458.096 144.533Z" fill="url(#paint19_linear_139_4460)"/>
<path d="M465.436 172.713C465.436 172.713 460.362 141.015 450.893 134.124C441.423 127.234 423.873 132.993 423.873 132.993L465.436 172.713Z" fill="url(#paint20_linear_139_4460)"/>
<path d="M313.843 242.569C335.112 277.778 444.531 285.709 463.707 268.78C471.295 261.855 476.604 252.791 478.931 242.785C490.005 199.006 457.244 132.947 400.651 125.228C362.305 120.058 329.475 151.144 315.317 184.775C306.457 205.794 304.904 227.811 313.843 242.569Z" fill="url(#paint21_linear_139_4460)"/>
<path d="M334.83 259.906C349.938 266.588 365.802 271.413 382.073 274.276C407.403 278.221 426.101 278.221 436.946 275.742C444.088 274.114 447.822 271.426 447.856 268.056C447.889 266.028 443.183 263.497 435.585 260.823C413.208 253.081 365.801 244.377 339.552 244.246C337.285 244.236 335.178 244.281 333.266 244.406L332.073 244.495L331.871 244.451C327.263 244.859 323.909 245.691 322.281 247.086C321.885 247.39 321.564 247.78 321.343 248.227C319.88 251.444 325.77 255.708 334.83 259.906Z" fill="url(#paint22_linear_139_4460)"/>
<path style="mix-blend-mode:multiply" opacity="0.3" d="M313.88 242.534C335.135 277.816 444.569 285.712 463.757 268.734C471.35 261.789 476.664 252.701 478.997 242.67C478.997 242.67 469.573 255.68 447.241 254.934C424.909 254.188 361.505 241.001 350.025 229.366C338.545 217.732 350.422 174.514 350.422 174.514L315.309 184.588C306.511 205.676 304.946 227.746 313.88 242.534Z" fill="url(#paint23_linear_139_4460)"/>
<g style="mix-blend-mode:multiply" opacity="0.5">
<path d="M334.779 260.14C346.452 257.034 380.306 249.547 404.954 259.336C435.191 271.302 436.901 275.951 436.901 275.951C444.051 274.282 447.796 271.549 447.839 268.134C447.878 266.08 443.176 263.53 435.58 260.842C413.212 253.062 365.801 244.377 339.537 244.318C336.772 244.383 334.272 244.467 332.041 244.647L331.838 244.604C327.226 245.03 323.868 245.882 322.235 247.3C321.838 247.609 321.516 248.005 321.293 248.459C319.844 251.609 325.726 255.912 334.779 260.14Z" fill="#80BDE1"/>
</g>
<path d="M333.344 244.482C338.456 251.169 366.59 260.655 382.995 263.206C412.499 267.77 431.161 265.86 436.179 260.97C411.77 252.5 357.635 242.916 333.344 244.482Z" fill="#3CF7DA"/>
<path d="M478.841 244.329C472.178 256.979 378.524 247.377 358.427 220.29C338.329 193.203 372.769 118.856 420.813 133.596C466.596 147.694 490.905 221.408 478.841 244.329Z" fill="#DFE3FB"/>
<path d="M479.261 242.38C472.69 255.051 378.948 245.412 358.847 218.342C338.745 191.272 373.191 116.901 421.235 131.64C467.021 145.721 491.326 219.458 479.261 242.38Z" fill="url(#paint24_linear_139_4460)"/>
<path d="M368.881 135.089C368.881 135.089 363.965 181.267 332.114 190.932C332.114 190.932 317.867 189.335 311.599 179.268C311.599 179.268 321.643 193.655 337.581 184.506C353.52 175.356 357.713 141.32 350.023 128.245C342.333 115.171 327.118 114.898 327.118 114.898L334.084 111.036C334.084 111.036 356.509 111.388 368.881 135.089Z" fill="url(#paint25_linear_139_4460)"/>
<path d="M334.483 110.747C334.483 110.747 350.183 112.709 356.954 133.101C364.161 154.741 348.547 185.972 333.583 187.936C318.619 189.899 316.396 133.295 316.396 133.295L329.136 113.803C330.545 112.23 332.422 111.157 334.483 110.747Z" fill="url(#paint26_linear_139_4460)"/>
<path d="M304.201 151.797C303.889 162.652 306.201 172.078 310.61 178.702L311.857 180.462C313.601 182.78 315.804 184.704 318.327 186.111C320.851 187.519 323.638 188.379 326.513 188.638C345.847 190.385 354.465 163.37 355.701 147.253C357.108 128.656 344.251 114.439 331.76 113.353C316.973 112.083 304.798 130.566 304.201 151.797Z" fill="url(#paint27_linear_139_4460)"/>
<path d="M482.615 230.634C491.401 235.237 499.125 241.66 505.285 249.488C515.471 262.477 516.023 275.77 500.956 271.341L494.766 265.596C494.766 265.596 503.611 268.857 504.457 259.174C505.304 249.492 482.496 232.427 482.496 232.427L482.615 230.634Z" fill="url(#paint28_linear_139_4460)"/>
<path d="M504.831 263.869C508.377 269.638 498.521 272.068 490.765 271.725C482.05 271.332 467.055 267.102 469.478 258.417C471.902 249.732 496.511 250.365 504.831 263.869Z" fill="url(#paint29_linear_139_4460)"/>
<path d="M503.963 264.459C504.023 265.786 473.134 261.035 473.1 255.931C473.065 250.826 503.49 254.075 503.963 264.459Z" fill="url(#paint30_linear_139_4460)"/>
<path d="M408.245 186.387C408.718 187.39 397.779 176.771 376.022 180.01C373.887 180.323 398.991 166.618 408.245 186.387Z" fill="url(#paint31_linear_139_4460)"/>
<path d="M472.64 200.765C473.107 201.867 467.768 193.582 448.737 194.242C446.522 194.255 464.355 181.359 472.64 200.765Z" fill="url(#paint32_linear_139_4460)"/>
<path style="mix-blend-mode:screen" opacity="0.5" d="M465.58 181.024C462.824 183.706 447.36 170.964 427.756 168.75C408.153 166.535 383.202 180.72 368.028 175.034C355.974 170.519 382.001 129.53 414.551 132.389C447.101 135.248 468.332 178.36 465.58 181.024Z" fill="url(#paint33_linear_139_4460)"/>
<path style="mix-blend-mode:screen" opacity="0.5" d="M458.631 242.237C444.81 235.81 430.012 231.729 414.848 230.161C389.781 227.604 385.283 229.347 385.226 231.742C385.17 234.137 402.043 242.684 424.965 245.142C447.887 247.6 458.631 242.237 458.631 242.237Z" fill="url(#paint34_linear_139_4460)"/>
<path style="mix-blend-mode:screen" opacity="0.5" d="M478.619 238.979C478.619 238.979 484.819 222.008 475.076 194.078C475.076 194.078 472.669 189.497 470.898 190.573C469.127 191.649 480.314 212.796 478.619 238.979Z" fill="url(#paint35_linear_139_4460)"/>
<path style="mix-blend-mode:screen" opacity="0.72" d="M348.593 169.005C348.593 169.005 342.974 184.854 329.822 185.64C316.67 186.426 308.485 175.552 308.037 162.576C308.037 162.576 309.597 173.981 326.316 174.842C343.034 175.702 348.593 169.005 348.593 169.005Z" fill="url(#paint36_linear_139_4460)"/>
<path style="mix-blend-mode:screen" opacity="0.72" d="M352.645 135.972C351.821 139.09 330.95 127.633 323.65 127.042C316.35 126.451 311.371 134.609 310.296 134.146C309.221 133.683 316.776 113.669 330.31 115.045C343.844 116.421 353.222 133.822 352.645 135.972Z" fill="url(#paint37_linear_139_4460)"/>
<path d="M447.489 213.253C447.489 213.253 424.848 209.194 412.806 203.308C412.806 203.308 411.386 224.484 425.976 227.629C440.566 230.775 447.489 213.253 447.489 213.253Z" fill="#2F95CD"/>
<g filter="url(#filter1_f_139_4460)">
<path d="M445.047 341.477L435.905 260.022L386.768 246.832L361.373 244.25L335.71 242.965L303.768 309.431L445.047 341.477Z" fill="url(#paint38_linear_139_4460)"/>
</g>
<path opacity="0.81" d="M114.672 360.4H17.9821C13.6821 360.4 10.1621 356.96 10.0621 352.66L8.25205 273.35C8.15205 268.91 11.7221 265.25 16.1721 265.25H116.842C121.302 265.25 124.882 268.93 124.762 273.39L122.582 352.7C122.472 356.98 118.962 360.4 114.672 360.4Z" fill="url(#paint39_linear_139_4460)"/>
<path d="M114.672 360.65H17.9821C13.5821 360.65 9.91214 357.07 9.81214 352.67L8.00213 273.36C7.95213 271.14 8.78214 269.05 10.3321 267.46C11.8821 265.88 13.9521 265 16.1721 265H116.842C119.062 265 121.142 265.88 122.692 267.47C124.242 269.06 125.062 271.17 125.002 273.39L122.822 352.7C122.722 357.16 119.132 360.65 114.672 360.65ZM16.1821 265.51C14.1021 265.51 12.1521 266.33 10.7021 267.82C9.24214 269.31 8.47214 271.28 8.52214 273.36L10.3321 352.67C10.4221 356.8 13.8621 360.16 18.0021 360.16H114.692C118.872 360.16 122.242 356.88 122.362 352.7L124.542 273.39C124.602 271.3 123.832 269.33 122.372 267.83C120.912 266.33 118.962 265.51 116.872 265.51H16.1821Z" fill="#463F9D"/>
<path d="M85.182 281.48H34.332V283.66H85.182V281.48Z" fill="white"/>
<path d="M59.752 286.771H34.332V288.951H59.752V286.771Z" fill="white"/>
<path d="M59.752 291.19H34.332V293.37H59.752V291.19Z" fill="white"/>
<path d="M82.8321 291.19H62.6021V293.37H82.8321V291.19Z" fill="white"/>
<path d="M75.322 295.61H34.332V297.79H75.322V295.61Z" fill="white"/>
<path d="M48.922 300.04H34.332V302.22H48.922V300.04Z" fill="white"/>
<path d="M77.1521 313.301H51.9221V315.481H77.1521V313.301Z" fill="white"/>
<path d="M80.062 304.461H34.332V306.641H80.062V304.461Z" fill="white"/>
<path d="M69.512 308.881H34.332V311.061H69.512V308.881Z" fill="white"/>
<path d="M50.882 313.301H34.332V315.481H50.882V313.301Z" fill="white"/>
<path d="M59.752 317.721H34.332V319.901H59.752V317.721Z" fill="white"/>
<path d="M41.622 322.141H34.332V324.321H41.622V322.141Z" fill="white"/>
<path d="M71.0821 322.141H44.6221V324.321H71.0821V322.141Z" fill="white"/>
<path d="M77.1521 326.431H51.9221V328.611H77.1521V326.431Z" fill="white"/>
<path d="M50.882 326.431H34.332V328.611H50.882V326.431Z" fill="white"/>
<path d="M59.752 330.851H34.332V333.031H59.752V330.851Z" fill="white"/>
<path d="M41.622 335.271H34.332V337.451H41.622V335.271Z" fill="white"/>
<path d="M71.0821 335.271H44.6221V337.451H71.0821V335.271Z" fill="white"/>
<path d="M37 410.76V434.38L65.26 434.63L65.64 410L37 410.76Z" fill="url(#paint40_linear_139_4460)"/>
<path d="M65.64 410L67.49 413.11L66.56 434.6L65.26 434.63L65.64 410Z" fill="url(#paint41_linear_139_4460)"/>
<path d="M42.05 418.73L44.66 414.95L58.7701 426.79L56.6101 429.68L42.05 418.73Z" fill="white"/>
<path d="M59.1299 418.73L56.5199 414.95L42.4099 426.79L44.5799 429.68L59.1299 418.73Z" fill="white"/>
<path opacity="0.6" d="M589.2 151.709L591.724 223.684C591.826 226.538 594.17 228.804 597.024 228.804H721.004C723.882 228.804 726.234 226.506 726.304 223.629L728.037 150.815C728.108 147.82 725.693 145.366 722.698 145.39L594.461 146.229C591.481 146.244 589.098 148.722 589.2 151.709Z" fill="#7DCFF4"/>
<path d="M721.004 228.999H597.024C594.045 228.999 591.63 226.671 591.528 223.691L589.004 151.717C588.949 150.219 589.498 148.8 590.533 147.718C591.568 146.636 592.963 146.032 594.468 146.024L722.714 145.186C724.203 145.193 725.622 145.758 726.673 146.832C727.724 147.906 728.288 149.317 728.249 150.815L726.516 223.629C726.438 226.639 724.023 228.999 721.004 228.999ZM722.745 145.578C722.737 145.578 722.721 145.578 722.714 145.578L594.468 146.416C593.073 146.424 591.779 146.981 590.815 147.985C589.851 148.988 589.349 150.305 589.396 151.701L591.92 223.676C592.014 226.443 594.257 228.607 597.024 228.607H721.004C723.756 228.607 726.046 226.373 726.108 223.621L727.841 150.807C727.873 149.412 727.355 148.102 726.375 147.106C725.419 146.119 724.125 145.578 722.745 145.578Z" fill="#6A4D9D"/>
<path opacity="0.6" d="M589.388 155.378H727.896L728.116 151.584C728.312 148.228 725.63 145.405 722.267 145.429L594.077 146.44C591.403 146.464 589.255 148.667 589.31 151.341L589.388 155.378Z" fill="url(#paint42_linear_139_4460)"/>
<path opacity="0.3" d="M596.35 161.18V202.836H638.751V160.969L596.35 161.18Z" fill="url(#paint43_linear_139_4460)"/>
<path opacity="0.3" d="M698.165 163.979H679.725V182.42H698.165V163.979Z" fill="url(#paint44_linear_139_4460)"/>
<path opacity="0.3" d="M719.922 163.979H701.482V182.42H719.922V163.979Z" fill="url(#paint45_linear_139_4460)"/>
<path opacity="0.3" d="M676.04 163.979H657.599V182.42H676.04V163.979Z" fill="url(#paint46_linear_139_4460)"/>
<path d="M719.922 193.177H672.762V197.591H719.922V193.177Z" fill="#D0D2F8"/>
<path d="M719.922 199.896H660.963V201.261H719.922V199.896Z" fill="#D0D2F8"/>
<path d="M672.802 184.772H661.52V186.137H672.802V184.772Z" fill="#D0D2F8"/>
<path d="M694.582 184.772H683.3V186.137H694.582V184.772Z" fill="#D0D2F8"/>
<path d="M716.347 184.772H705.065V186.137H716.347V184.772Z" fill="#D0D2F8"/>
<path d="M676.565 202.123H657.599V203.487H676.565V202.123Z" fill="#D0D2F8"/>
<path d="M719.922 204.318H660.963V205.683H719.922V204.318Z" fill="#D0D2F8"/>
<path d="M719.923 206.514H657.599V207.878H719.923V206.514Z" fill="#D0D2F8"/>
<path d="M719.923 208.708H657.599V210.072H719.923V208.708Z" fill="#D0D2F8"/>
<path d="M719.922 217.584H660.963V218.948H719.922V217.584Z" fill="#D0D2F8"/>
<path d="M719.923 219.779H657.599V221.144H719.923V219.779Z" fill="#D0D2F8"/>
<path d="M719.923 221.975H657.599V223.339H719.923V221.975Z" fill="#D0D2F8"/>
<path d="M717.421 210.904H657.599V212.269H717.421V210.904Z" fill="#D0D2F8"/>
<path d="M719.922 213.1H660.963V214.464H719.922V213.1Z" fill="#D0D2F8"/>
<path d="M708.099 215.295H657.599V216.659H708.099V215.295Z" fill="#D0D2F8"/>
<path d="M594.241 149.725L595.119 148.393L599.886 152.564L599.157 153.583L594.241 149.725Z" fill="white"/>
<path d="M600.012 149.725L599.126 148.393L594.359 152.564L595.096 153.583L600.012 149.725Z" fill="white"/>
<path d="M724.548 149.295H681.865V151.435H724.548V149.295Z" fill="white"/>
<path d="M712 131.5C712 133.434 710.434 135 708.5 135C706.566 135 705 133.434 705 131.5C705 129.566 706.566 128 708.5 128C710.434 128 712 129.566 712 131.5Z" fill="url(#paint47_linear_139_4460)"/>
<path d="M719.5 135C721.433 135 723 133.433 723 131.5C723 129.567 721.433 128 719.5 128C717.567 128 716 129.567 716 131.5C716 133.433 717.567 135 719.5 135Z" fill="url(#paint48_linear_139_4460)"/>
<path fill-rule="evenodd" clip-rule="evenodd" d="M92.1441 79.8626L93.648 45H48L49.8836 79.7563L92.1441 79.8626Z" fill="url(#paint49_linear_139_4460)"/>
<path fill-rule="evenodd" clip-rule="evenodd" d="M93.6482 45L95.0001 47.0659L93.6482 79.8626H92.1443L93.6482 45Z" fill="url(#paint50_linear_139_4460)"/>
<path d="M76.0571 52.0182C76.0571 52.0182 81.0549 51.8207 81.9511 52.2309C82.8322 52.641 81.7233 60.7984 81.7233 60.7984L83.7133 62.6365L81.8448 64.4442C81.8448 64.4442 81.9359 72.7079 80.7663 73.3915C79.5966 74.0751 75.571 73.3915 75.571 73.3915V71.3256C75.571 71.3256 78.8522 71.5383 79.3991 71.0825C79.946 70.642 79.8852 63.4264 79.8852 63.4264L80.7663 62.4542L79.8852 61.4061C79.8852 61.4061 80.0523 56.2564 79.946 54.8437C79.8852 53.9019 76.0571 53.8563 76.0571 53.8563V52.0182Z" fill="white"/>
<path d="M64.6034 52.0182C64.6034 52.0182 59.6056 51.8207 58.7094 52.2309C57.8283 52.641 58.9372 60.7984 58.9372 60.7984L56.9473 62.6365L58.8157 64.4442C58.8157 64.4442 58.7246 72.7079 59.8943 73.3915C61.0639 74.0751 65.0895 73.3915 65.0895 73.3915V71.3256C65.0895 71.3256 61.8083 71.5383 61.2614 71.0825C60.7146 70.642 60.7753 63.4264 60.7753 63.4264L59.8943 62.4542L60.7753 61.4061C60.7753 61.4061 60.6082 56.2564 60.7146 54.8437C60.7753 53.9019 64.6034 53.8563 64.6034 53.8563V52.0182Z" fill="white"/>
<path opacity="0.73" d="M470.415 59.92H421.615C417.685 59.92 414.465 56.81 414.335 52.88L413.255 20.78C413.115 16.66 416.415 13.25 420.535 13.25H471.395C475.505 13.25 478.805 16.65 478.675 20.76L477.695 52.86C477.575 56.79 474.345 59.92 470.415 59.92Z" fill="url(#paint51_linear_139_4460)"/>
<path d="M470.414 60.17H421.614C417.534 60.17 414.224 56.97 414.084 52.89L413.004 20.79C412.934 18.73 413.684 16.78 415.114 15.3C416.544 13.82 418.474 13 420.534 13H471.394C473.454 13 475.374 13.81 476.804 15.29C478.234 16.77 478.994 18.71 478.924 20.77L477.944 52.87C477.814 56.96 474.514 60.17 470.414 60.17ZM420.534 13.51C418.614 13.51 416.814 14.27 415.474 15.65C414.134 17.03 413.434 18.85 413.504 20.78L414.584 52.88C414.714 56.69 417.804 59.68 421.614 59.68H470.414C474.234 59.68 477.324 56.68 477.444 52.86L478.424 20.76C478.484 18.84 477.774 17.03 476.444 15.65C475.104 14.27 473.314 13.51 471.394 13.51H420.534Z" fill="#813F9D"/>
<path d="M434.624 24.79L422.594 38.73L434.844 49.14V43.77L427.754 37.63L434.344 30.19L434.624 24.79Z" fill="white"/>
<path d="M455.774 25.4102L467.804 39.3602L455.554 49.7601V44.3902L462.644 38.2601L454.754 29.9102L455.774 25.4102Z" fill="white"/>
<path d="M437.244 49.14L447.734 26.04H452.654L440.784 49.14H437.244Z" fill="white"/>
<path opacity="0.73" d="M182.415 491.92H133.615C129.685 491.92 126.465 488.81 126.335 484.88L125.255 452.78C125.115 448.66 128.415 445.25 132.535 445.25H183.395C187.505 445.25 190.805 448.65 190.675 452.76L189.695 484.86C189.575 488.79 186.345 491.92 182.415 491.92Z" fill="url(#paint52_linear_139_4460)"/>
<path d="M182.414 492.17H133.614C129.534 492.17 126.224 488.97 126.084 484.89L125.004 452.79C124.934 450.73 125.684 448.78 127.114 447.3C128.544 445.82 130.474 445 132.534 445H183.394C185.454 445 187.374 445.81 188.804 447.29C190.234 448.77 190.994 450.71 190.924 452.77L189.944 484.87C189.814 488.96 186.514 492.17 182.414 492.17ZM132.534 445.51C130.614 445.51 128.814 446.27 127.474 447.65C126.134 449.03 125.434 450.85 125.504 452.78L126.584 484.88C126.714 488.69 129.804 491.68 133.614 491.68H182.414C186.234 491.68 189.324 488.68 189.444 484.86L190.424 452.76C190.484 450.84 189.774 449.03 188.444 447.65C187.104 446.27 185.314 445.51 183.394 445.51H132.534Z" fill="#3F9D54"/>
<path d="M261.491 487.459L273.458 509.674C274.715 511.658 274.275 512.791 273.18 513.808C268.054 518.582 252.431 533.118 229.574 538.794C226.619 539.533 225.917 538.138 225.264 536.908L213.836 515.728C213.663 515.308 213.579 514.857 213.589 514.403C213.597 513.95 213.701 513.502 213.891 513.091C214.082 512.679 214.355 512.312 214.694 512.011C215.033 511.711 215.429 511.485 215.86 511.347C223.417 508.05 230.728 504.213 237.737 499.862C244.641 495.91 251.195 491.371 257.328 486.295C258.96 484.654 260.593 485.721 261.491 487.459Z" stroke="white" stroke-linecap="round" stroke-linejoin="round"/>
<path d="M256.789 494.497L253.214 514.497L233.427 509.427C238.569 508.311 256.789 494.497 256.789 494.497Z" stroke="white" stroke-linecap="round" stroke-linejoin="round"/>
<path d="M242.667 512.414L237.786 525.177L226.848 524.177L221.509 515.678L233.41 509.428" stroke="white" stroke-linecap="round" stroke-linejoin="round"/>
<path d="M263.426 512.757C264.722 512.163 265.366 510.784 264.864 509.68C264.361 508.576 262.904 508.164 261.608 508.758C260.313 509.353 259.669 510.73 260.171 511.836C260.674 512.94 262.131 513.352 263.426 512.757Z" stroke="white" stroke-linecap="round" stroke-linejoin="round"/>
<path d="M293.51 363.567C295.522 363.567 297.153 361.928 297.153 359.905C297.153 357.883 295.522 356.244 293.51 356.244C291.498 356.244 289.867 357.883 289.867 359.905C289.867 361.928 291.498 363.567 293.51 363.567Z" fill="white"/>
<path d="M241.07 199.366C218.528 179.368 181.274 229.216 317.554 387.882C396.192 479.415 458.005 487.618 466.349 455.771C481.367 398.642 427.134 384.207 447.325 406.58C476.667 439.113 560.118 445.988 622.32 415.635C683.688 385.674 645.961 339.153 642.151 336.428" stroke="white" stroke-linecap="round" stroke-linejoin="round"/>
<path d="M635.657 438.651L633.64 424.635L645.53 432.586L639.314 433.942L635.657 438.651Z" stroke="white" stroke-linecap="round" stroke-linejoin="round"/>
<path d="M623.35 419.004C625.362 419.004 626.993 417.365 626.993 415.343C626.993 413.321 625.362 411.682 623.35 411.682C621.337 411.682 619.706 413.321 619.706 415.343C619.706 417.365 621.337 419.004 623.35 419.004Z" fill="white"/>
<path d="M570.284 445.262L678.376 384.025" stroke="white" stroke-linecap="round" stroke-linejoin="round"/>
<path d="M230.737 137.208C102.801 83.937 4.40121 186.538 245.464 343.639C264.446 356.021 293.565 360.409 293.565 360.409" stroke="white" stroke-linecap="round" stroke-linejoin="round"/>
<path fill-rule="evenodd" clip-rule="evenodd" d="M753.415 361.764L755.303 318H698L700.365 361.63L753.415 361.764Z" fill="url(#paint53_linear_139_4460)"/>
<path fill-rule="evenodd" clip-rule="evenodd" d="M755.303 318L757 320.593L755.303 361.764H753.415L755.303 318Z" fill="url(#paint54_linear_139_4460)"/>
<path d="M716.48 351.837H721.433V354.404H713.064V326.787H721.433V329.451H716.48V351.837Z" fill="white"/>
<path d="M734.822 326.787H743.191V354.404H734.822V351.837H739.775V329.451H734.822V326.787Z" fill="white"/>
<path d="M151.104 454L152.621 456.513C151.691 456.987 150.866 457.542 150.148 458.178C149.44 458.814 148.823 459.49 148.297 460.206C147.771 460.933 147.326 461.68 146.962 462.447C146.608 463.213 146.314 463.96 146.082 464.687C145.525 466.382 145.217 468.163 145.156 470.03C145.237 471.796 145.515 473.512 145.991 475.177C146.203 475.893 146.466 476.64 146.78 477.417C147.103 478.184 147.498 478.941 147.963 479.688C148.428 480.445 148.975 481.171 149.602 481.868C150.239 482.574 150.977 483.215 151.817 483.79L150.102 486C149.091 485.395 148.201 484.698 147.432 483.911C146.663 483.134 145.996 482.317 145.429 481.459C144.853 480.591 144.367 479.708 143.972 478.81C143.588 477.912 143.269 477.039 143.017 476.191C142.723 475.202 142.491 474.198 142.319 473.179C142.147 472.149 142.04 471.1 142 470.03C142.091 467.901 142.47 465.847 143.138 463.869C143.421 463.022 143.78 462.149 144.215 461.251C144.66 460.342 145.202 459.454 145.839 458.587C146.476 457.719 147.225 456.891 148.084 456.104C148.954 455.317 149.961 454.616 151.104 454Z" fill="white"/>
<path d="M174 470.03C173.96 471.1 173.853 472.149 173.681 473.179C173.509 474.198 173.277 475.202 172.983 476.191C172.731 477.039 172.407 477.912 172.012 478.81C171.618 479.708 171.137 480.591 170.571 481.459C170.004 482.317 169.332 483.134 168.553 483.911C167.784 484.698 166.894 485.395 165.882 486L164.168 483.79C164.997 483.215 165.731 482.574 166.368 481.868C167.005 481.171 167.557 480.445 168.022 479.688C168.497 478.941 168.892 478.184 169.205 477.417C169.519 476.64 169.782 475.893 169.994 475.177C170.47 473.512 170.748 471.796 170.829 470.03C170.758 468.194 170.444 466.412 169.888 464.687C169.655 463.96 169.357 463.213 168.993 462.447C168.639 461.68 168.199 460.933 167.673 460.206C167.147 459.49 166.53 458.814 165.822 458.178C165.114 457.542 164.294 456.987 163.364 456.513L164.911 454C166.044 454.616 167.041 455.317 167.9 456.104C168.77 456.891 169.524 457.719 170.161 458.587C170.798 459.454 171.335 460.342 171.77 461.251C172.215 462.149 172.579 463.022 172.862 463.869C173.53 465.847 173.909 467.901 174 470.03Z" fill="white"/>
</g>
<defs>
<filter id="filter0_f_139_4460" x="259.391" y="317.144" width="151.653" height="223.408" filterUnits="userSpaceOnUse" color-interpolation-filters="sRGB">
<feFlood flood-opacity="0" result="BackgroundImageFix"/>
<feBlend mode="normal" in="SourceGraphic" in2="BackgroundImageFix" result="shape"/>
<feGaussianBlur stdDeviation="8" result="effect1_foregroundBlur_139_4460"/>
</filter>
<filter id="filter1_f_139_4460" x="293.768" y="232.965" width="161.279" height="118.513" filterUnits="userSpaceOnUse" color-interpolation-filters="sRGB">
<feFlood flood-opacity="0" result="BackgroundImageFix"/>
<feBlend mode="normal" in="SourceGraphic" in2="BackgroundImageFix" result="shape"/>
<feGaussianBlur stdDeviation="5" result="effect1_foregroundBlur_139_4460"/>
</filter>
<linearGradient id="paint0_linear_139_4460" x1="373.185" y1="357.856" x2="326.623" y2="462.163" gradientUnits="userSpaceOnUse">
<stop stop-color="#34F0E6"/>
<stop offset="1" stop-color="#34F0E6" stop-opacity="0"/>
</linearGradient>
<linearGradient id="paint1_linear_139_4460" x1="433.157" y1="380.592" x2="440.54" y2="298.68" gradientUnits="userSpaceOnUse">
<stop stop-color="#CBC1F7"/>
<stop offset="1" stop-color="#D4BEF1"/>
</linearGradient>
<linearGradient id="paint2_linear_139_4460" x1="454.732" y1="382.039" x2="461.802" y2="360.191" gradientUnits="userSpaceOnUse">
<stop stop-color="#BE9DEA"/>
<stop offset="1" stop-color="#9E8CEF"/>
</linearGradient>
<linearGradient id="paint3_linear_139_4460" x1="428.072" y1="376.539" x2="443.89" y2="303.172" gradientUnits="userSpaceOnUse">
<stop stop-color="#9D68C2"/>
<stop offset="1" stop-color="#CCEDFF"/>
</linearGradient>
<linearGradient id="paint4_linear_139_4460" x1="340.314" y1="416.609" x2="394.853" y2="278.953" gradientUnits="userSpaceOnUse">
<stop stop-color="#CBC1F7"/>
<stop offset="1" stop-color="#E8DCF7"/>
</linearGradient>
<linearGradient id="paint5_linear_139_4460" x1="312.057" y1="398.506" x2="359.013" y2="312.921" gradientUnits="userSpaceOnUse">
<stop stop-color="#9D68C2"/>
<stop offset="1" stop-color="#CCEDFF"/>
</linearGradient>
<linearGradient id="paint6_linear_139_4460" x1="399.81" y1="395.662" x2="336.975" y2="361.246" gradientUnits="userSpaceOnUse">
<stop stop-color="#BE9DEA"/>
<stop offset="1" stop-color="#9E8CEF"/>
</linearGradient>
<radialGradient id="paint7_radial_139_4460" cx="0" cy="0" r="1" gradientUnits="userSpaceOnUse" gradientTransform="translate(351.351 406.858) rotate(-151.221) scale(54.1435 54.2381)">
<stop stop-color="#45FFCD"/>
<stop offset="1" stop-color="#22E0FF"/>
</radialGradient>
<linearGradient id="paint8_linear_139_4460" x1="356.78" y1="312.167" x2="340.637" y2="303.293" gradientUnits="userSpaceOnUse">
<stop stop-color="#8879EA"/>
<stop offset="1" stop-color="#9E8CEF"/>
</linearGradient>
<linearGradient id="paint9_linear_139_4460" x1="389.471" y1="279.35" x2="383.257" y2="290.474" gradientUnits="userSpaceOnUse">
<stop stop-color="#3CF7DA"/>
<stop offset="1" stop-color="#3CF7DA" stop-opacity="0"/>
</linearGradient>
<linearGradient id="paint10_linear_139_4460" x1="408.238" y1="372.124" x2="356.332" y2="343.471" gradientUnits="userSpaceOnUse">
<stop/>
<stop offset="1" stop-color="#D4E2FF"/>
</linearGradient>
<linearGradient id="paint11_linear_139_4460" x1="346.637" y1="416.828" x2="350.227" y2="410.57" gradientUnits="userSpaceOnUse">
<stop stop-color="#D4E2FF"/>
<stop offset="1"/>
</linearGradient>
<linearGradient id="paint12_linear_139_4460" x1="267.705" y1="364.782" x2="332.668" y2="273.978" gradientUnits="userSpaceOnUse">
<stop stop-color="#CBC1F7"/>
<stop offset="1" stop-color="#E8DCF7"/>
</linearGradient>
<linearGradient id="paint13_linear_139_4460" x1="250.475" y1="349.958" x2="265.359" y2="334.09" gradientUnits="userSpaceOnUse">
<stop stop-color="#BE9DEA"/>
<stop offset="1" stop-color="#9E8CEF"/>
</linearGradient>
<linearGradient id="paint14_linear_139_4460" x1="258.767" y1="359.961" x2="338.319" y2="273.947" gradientUnits="userSpaceOnUse">
<stop stop-color="#9D68C2"/>
<stop offset="1" stop-color="#CCEDFF"/>
</linearGradient>
<linearGradient id="paint15_linear_139_4460" x1="214.786" y1="371.344" x2="262.206" y2="337.574" gradientUnits="userSpaceOnUse">
<stop stop-color="#CBC1F7"/>
<stop offset="1" stop-color="#E8DCF7"/>
</linearGradient>
<linearGradient id="paint16_linear_139_4460" x1="470.606" y1="396.034" x2="491.929" y2="376.742" gradientUnits="userSpaceOnUse">
<stop stop-color="#BE9DEA"/>
<stop offset="1" stop-color="#9E8CEF"/>
</linearGradient>
<linearGradient id="paint17_linear_139_4460" x1="470.7" y1="391.605" x2="490.881" y2="374.279" gradientUnits="userSpaceOnUse">
<stop stop-color="#CBC1F7"/>
<stop offset="1" stop-color="#E8DCF7"/>
</linearGradient>
<linearGradient id="paint18_linear_139_4460" x1="477.407" y1="374.664" x2="484.543" y2="368.66" gradientUnits="userSpaceOnUse">
<stop stop-color="#CBC1F7"/>
<stop offset="1" stop-color="#E8DCF7"/>
</linearGradient>
<linearGradient id="paint19_linear_139_4460" x1="457.507" y1="192.324" x2="458.509" y2="144.54" gradientUnits="userSpaceOnUse">
<stop stop-color="#45FFCD"/>
<stop offset="1" stop-color="#22E0FF"/>
</linearGradient>
<linearGradient id="paint20_linear_139_4460" x1="444.156" y1="172.315" x2="444.926" y2="130.848" gradientUnits="userSpaceOnUse">
<stop stop-color="#B9ACF4"/>
<stop offset="1" stop-color="#E1D1F5"/>
</linearGradient>
<linearGradient id="paint21_linear_139_4460" x1="400.601" y1="280.387" x2="384.566" y2="125.125" gradientUnits="userSpaceOnUse">
<stop stop-color="#CBC1F7"/>
<stop offset="1" stop-color="#E8DCF7"/>
</linearGradient>
<linearGradient id="paint22_linear_139_4460" x1="447.985" y1="262.402" x2="320.889" y2="259.668" gradientUnits="userSpaceOnUse">
<stop stop-color="#8879EA"/>
<stop offset="1" stop-color="#9E8CEF"/>
</linearGradient>
<linearGradient id="paint23_linear_139_4460" x1="392.399" y1="276.771" x2="394.58" y2="175.427" gradientUnits="userSpaceOnUse">
<stop stop-color="#9D68C2"/>
<stop offset="1" stop-color="#CCEDFF"/>
</linearGradient>
<linearGradient id="paint24_linear_139_4460" x1="416.864" y1="247.087" x2="419.408" y2="129.978" gradientUnits="userSpaceOnUse">
<stop stop-color="#0665BD"/>
<stop offset="1" stop-color="#1A1F77"/>
</linearGradient>
<linearGradient id="paint25_linear_139_4460" x1="332.896" y1="191.215" x2="349.941" y2="114.015" gradientUnits="userSpaceOnUse">
<stop stop-color="#B9ACF4"/>
<stop offset="1" stop-color="#E1D1F5"/>
</linearGradient>
<linearGradient id="paint26_linear_139_4460" x1="327.622" y1="186.946" x2="344.002" y2="112.807" gradientUnits="userSpaceOnUse">
<stop stop-color="#BE9DEA"/>
<stop offset="1" stop-color="#9E8CEF"/>
</linearGradient>
<linearGradient id="paint27_linear_139_4460" x1="321.385" y1="187.703" x2="337.567" y2="114.467" gradientUnits="userSpaceOnUse">
<stop stop-color="#45FFCD"/>
<stop offset="1" stop-color="#22E0FF"/>
</linearGradient>
<linearGradient id="paint28_linear_139_4460" x1="499.989" y1="272.944" x2="495.302" y2="229.282" gradientUnits="userSpaceOnUse">
<stop stop-color="#BE9DEA"/>
<stop offset="1" stop-color="#9E8CEF"/>
</linearGradient>
<linearGradient id="paint29_linear_139_4460" x1="487.983" y1="272.195" x2="486.361" y2="252.184" gradientUnits="userSpaceOnUse">
<stop stop-color="#DD1A8F"/>
<stop offset="1" stop-color="#FE117E"/>
</linearGradient>
<linearGradient id="paint30_linear_139_4460" x1="486.498" y1="262.288" x2="487.868" y2="254.154" gradientUnits="userSpaceOnUse">
<stop stop-color="#D93DE3"/>
<stop offset="1" stop-color="#FF6DBA"/>
</linearGradient>
<linearGradient id="paint31_linear_139_4460" x1="392.019" y1="185.984" x2="392.319" y2="175.687" gradientUnits="userSpaceOnUse">
<stop stop-color="#45FFCD"/>
<stop offset="1" stop-color="#22E0FF"/>
</linearGradient>
<linearGradient id="paint32_linear_139_4460" x1="460.488" y1="200.691" x2="460.634" y2="190.099" gradientUnits="userSpaceOnUse">
<stop stop-color="#45FFCD"/>
<stop offset="1" stop-color="#22E0FF"/>
</linearGradient>
<linearGradient id="paint33_linear_139_4460" x1="466.285" y1="157.462" x2="365.371" y2="155.356" gradientUnits="userSpaceOnUse">
<stop/>
<stop offset="1" stop-color="#6A9BFF"/>
</linearGradient>
<linearGradient id="paint34_linear_139_4460" x1="458.693" y1="238.312" x2="385.108" y2="236.749" gradientUnits="userSpaceOnUse">
<stop/>
<stop offset="1" stop-color="#6A9BFF"/>
</linearGradient>
<linearGradient id="paint35_linear_139_4460" x1="474.681" y1="238.929" x2="475.314" y2="190.402" gradientUnits="userSpaceOnUse">
<stop/>
<stop offset="1" stop-color="#6A9BFF"/>
</linearGradient>
<linearGradient id="paint36_linear_139_4460" x1="324.032" y1="185.179" x2="328.582" y2="164.564" gradientUnits="userSpaceOnUse">
<stop stop-color="#D4E2FF"/>
<stop offset="1"/>
</linearGradient>
<linearGradient id="paint37_linear_139_4460" x1="353.545" y1="131.871" x2="312.565" y2="122.822" gradientUnits="userSpaceOnUse">
<stop/>
<stop offset="1" stop-color="#D4E2FF"/>
</linearGradient>
<linearGradient id="paint38_linear_139_4460" x1="382.984" y1="251.523" x2="372.919" y2="320.514" gradientUnits="userSpaceOnUse">
<stop stop-color="#34F0E6"/>
<stop offset="1" stop-color="#34F0E6" stop-opacity="0"/>
</linearGradient>
<linearGradient id="paint39_linear_139_4460" x1="58.8027" y1="365.588" x2="72.1175" y2="259.574" gradientUnits="userSpaceOnUse">
<stop stop-color="#477DFA"/>
<stop offset="1" stop-color="#3E3A9B"/>
</linearGradient>
<linearGradient id="paint40_linear_139_4460" x1="51.3231" y1="434.626" x2="51.3231" y2="410.004" gradientUnits="userSpaceOnUse">
<stop stop-color="#BB3FDD"/>
<stop offset="1" stop-color="#E06DB5"/>
</linearGradient>
<linearGradient id="paint41_linear_139_4460" x1="66.373" y1="434.626" x2="66.373" y2="410.004" gradientUnits="userSpaceOnUse">
<stop stop-color="#8D44E4"/>
<stop offset="1" stop-color="#D9187B"/>
</linearGradient>
<linearGradient id="paint42_linear_139_4460" x1="589.31" y1="150.403" x2="728.131" y2="150.403" gradientUnits="userSpaceOnUse">
<stop stop-color="#8E68BD"/>
<stop offset="1" stop-color="#B1C0FC"/>
</linearGradient>
<linearGradient id="paint43_linear_139_4460" x1="617.55" y1="202.835" x2="617.55" y2="160.966" gradientUnits="userSpaceOnUse">
<stop stop-color="#D4EBFD"/>
<stop offset="1" stop-color="#8E68BD"/>
</linearGradient>
<linearGradient id="paint44_linear_139_4460" x1="688.943" y1="182.422" x2="688.943" y2="163.979" gradientUnits="userSpaceOnUse">
<stop stop-color="#D4EBFD"/>
<stop offset="1" stop-color="#8E68BD"/>
</linearGradient>
<linearGradient id="paint45_linear_139_4460" x1="710.703" y1="182.422" x2="710.703" y2="163.979" gradientUnits="userSpaceOnUse">
<stop stop-color="#D4EBFD"/>
<stop offset="1" stop-color="#8E68BD"/>
</linearGradient>
<linearGradient id="paint46_linear_139_4460" x1="666.82" y1="182.422" x2="666.82" y2="163.979" gradientUnits="userSpaceOnUse">
<stop stop-color="#D4EBFD"/>
<stop offset="1" stop-color="#8E68BD"/>
</linearGradient>
<linearGradient id="paint47_linear_139_4460" x1="708.503" y1="134.997" x2="708.503" y2="128" gradientUnits="userSpaceOnUse">
<stop stop-color="#699DFB"/>
<stop offset="1" stop-color="#986DFA"/>
</linearGradient>
<linearGradient id="paint48_linear_139_4460" x1="719.499" y1="134.997" x2="719.499" y2="128" gradientUnits="userSpaceOnUse">
<stop stop-color="#98208A"/>
<stop offset="1" stop-color="#D9187B"/>
</linearGradient>
<linearGradient id="paint49_linear_139_4460" x1="77.5254" y1="83.796" x2="65.7907" y2="40.2152" gradientUnits="userSpaceOnUse">
<stop stop-color="#528BBD"/>
<stop offset="1" stop-color="#6CBDE4"/>
</linearGradient>
<linearGradient id="paint50_linear_139_4460" x1="97.6963" y1="78.7685" x2="88.9454" y2="46.2693" gradientUnits="userSpaceOnUse">
<stop stop-color="#34539B"/>
<stop offset="1" stop-color="#477DCE"/>
</linearGradient>
<linearGradient id="paint51_linear_139_4460" x1="445.963" y1="59.9199" x2="445.963" y2="13.2573" gradientUnits="userSpaceOnUse">
<stop stop-color="#B90EDD"/>
<stop offset="1" stop-color="#E06DF4"/>
</linearGradient>
<linearGradient id="paint52_linear_139_4460" x1="157.963" y1="491.92" x2="157.963" y2="445.257" gradientUnits="userSpaceOnUse">
<stop stop-color="#1FDD0E"/>
<stop offset="1" stop-color="#70F46D"/>
</linearGradient>
<linearGradient id="paint53_linear_139_4460" x1="735.064" y1="366.701" x2="720.333" y2="311.994" gradientUnits="userSpaceOnUse">
<stop stop-color="#D6905D"/>
<stop offset="1" stop-color="#E88249"/>
</linearGradient>
<linearGradient id="paint54_linear_139_4460" x1="760.385" y1="360.39" x2="749.399" y2="319.593" gradientUnits="userSpaceOnUse">
<stop stop-color="#9B5934"/>
<stop offset="1" stop-color="#CEA047"/>
</linearGradient>
<clipPath id="clip0_139_4460">
<rect width="824" height="598" fill="white"/>
</clipPath>
</defs>
</svg>
