<svg width="780" height="569" viewBox="0 0 780 569" fill="none" xmlns="http://www.w3.org/2000/svg">
<path d="M109.971 316.55L112.474 319.295C112.983 319.852 113.249 320.589 113.215 321.344C113.181 322.098 112.849 322.808 112.293 323.317L108.194 327.067C107.638 327.576 106.902 327.843 106.149 327.809C105.396 327.775 104.687 327.442 104.178 326.885L101.675 324.14L109.971 316.55Z" fill="#91BA83"/>
<path d="M87.4284 311.213L99.2354 324.159C99.8454 324.828 100.881 324.875 101.55 324.264L109.709 316.798C110.378 316.187 110.425 315.149 109.814 314.48L98.0084 301.534C97.3984 300.865 96.3614 300.818 95.6934 301.429L87.5334 308.895C86.8654 309.506 86.8184 310.544 87.4284 311.213Z" stroke="white" stroke-linecap="round" stroke-linejoin="round"/>
<path d="M155 20.3785L120.331 11L119 14.7955L154.07 24L155 20.3785Z" stroke="white" stroke-linecap="round" stroke-linejoin="round"/>
<path d="M160 15L159 19" stroke="white" stroke-linecap="round" stroke-linejoin="round"/>
<path d="M161 18L158 17" stroke="white" stroke-linecap="round" stroke-linejoin="round"/>
<path d="M162 28L160 34" stroke="white" stroke-linecap="round" stroke-linejoin="round"/>
<path d="M163 31L158 30" stroke="white" stroke-linecap="round" stroke-linejoin="round"/>
<path d="M170 18L167 26" stroke="white" stroke-linecap="round" stroke-linejoin="round"/>
<path d="M172 23L165 20" stroke="white" stroke-linecap="round" stroke-linejoin="round"/>
<path d="M344 34H356.49" stroke="#FAD8B0" stroke-miterlimit="10"/>
<path d="M775.13 240.273C777.411 240.273 779.26 238.421 779.26 236.136C779.26 233.852 777.411 232 775.13 232C772.849 232 771 233.852 771 236.136C771 238.421 772.849 240.273 775.13 240.273Z" fill="#91BA83"/>
<path d="M243 442H255.49" stroke="#A0C6F4" stroke-linecap="round" stroke-linejoin="round"/>
<path d="M264.413 262.857C269.612 262.857 273.826 258.636 273.826 253.428C273.826 248.221 269.612 244 264.413 244C259.214 244 255 248.221 255 253.428C255 258.636 259.214 262.857 264.413 262.857Z" fill="#FF6D66"/>
<path d="M528.964 175H514V189.989H528.964V175Z" fill="#FFE1C0"/>
<path d="M648.692 82.7246H633.861V96.2894H648.692V82.7246Z" fill="#FAD8B0"/>
<path d="M633.861 74V82.7251H625" stroke="white" stroke-linecap="round" stroke-linejoin="round"/>
<path d="M91.5807 174.172C94.0001 174.172 95.9613 172.208 95.9613 169.785C95.9613 167.362 94.0001 165.397 91.5807 165.397C89.1614 165.397 87.2002 167.362 87.2002 169.785C87.2002 172.208 89.1614 174.172 91.5807 174.172Z" fill="white"/>
<path d="M63.6921 145.687L68.4907 141.064L79.509 147.395L85.06 164.526L68.1228 157.426L63.6921 145.687Z" stroke="white" stroke-linecap="round" stroke-linejoin="round"/>
<path d="M68.4905 141.065L63.6919 145.687L61 142.421L65.5979 138L68.4905 141.065Z" stroke="white" stroke-linecap="round" stroke-linejoin="round"/>
<path d="M85.0599 164.527L74.0415 152.419" stroke="white" stroke-linecap="round" stroke-linejoin="round"/>
<path d="M36.6921 143.727H21.8621V157.291H36.6921V143.727Z" fill="#FF6D66"/>
<path d="M331.692 541.727H316.862V555.291H331.692V541.727Z" fill="#FF6D66"/>
<path d="M21.862 135V143.725H13" stroke="white" stroke-linecap="round" stroke-linejoin="round"/>
<path d="M316.862 533V541.725H308" stroke="white" stroke-linecap="round" stroke-linejoin="round"/>
<path d="M1 224L13.272 226.21" stroke="#FAD8B0" stroke-miterlimit="10"/>
<path d="M559 106H571.473" stroke="#FF6D66" stroke-linecap="round" stroke-linejoin="round"/>
<path d="M25.13 320.273C27.411 320.273 29.26 318.421 29.26 316.137C29.26 313.852 27.411 312 25.13 312C22.849 312 21 313.852 21 316.137C21 318.421 22.849 320.273 25.13 320.273Z" fill="#FAD8B0"/>
<path d="M678.13 499.273C680.411 499.273 682.26 497.421 682.26 495.136C682.26 492.852 680.411 491 678.13 491C675.849 491 674 492.852 674 495.136C674 497.421 675.849 499.273 678.13 499.273Z" fill="#91BA83"/>
<path d="M681.878 280L686.325 287.721L690.773 295.441H681.878H673L677.43 287.721L681.878 280Z" fill="#A0C6F4"/>
<path d="M584.752 389.522C587.928 389.522 590.503 386.942 590.503 383.761C590.503 380.579 587.928 378 584.752 378C581.575 378 579 380.579 579 383.761C579 386.942 581.575 389.522 584.752 389.522Z" fill="#FF6D66"/>
<path d="M579 288H591.49" stroke="#A0C6F4" stroke-linecap="round" stroke-linejoin="round"/>
<path d="M142.13 423.273C144.41 423.273 146.259 421.421 146.259 419.136C146.259 416.852 144.41 415 142.13 415C139.849 415 138 416.852 138 419.136C138 421.421 139.849 423.273 142.13 423.273Z" fill="#FF6D66"/>
<path d="M146 196H158.473" stroke="#FF6D66" stroke-linecap="round" stroke-linejoin="round"/>
<path d="M210.004 110.921L211.175 75.8865C211.041 72.5371 212.378 71.5826 214.385 71.1304C223.882 69.0371 252.84 62.5896 284.157 71.884C288.219 73.0898 288.086 75.2334 288.019 77.176L286.899 110.569C286.817 111.193 286.606 111.793 286.279 112.33C285.951 112.867 285.515 113.33 284.999 113.688C284.482 114.046 283.896 114.292 283.279 114.41C282.661 114.527 282.026 114.514 281.415 114.37C270.032 113.006 258.567 112.446 247.106 112.696C236.082 112.649 225.074 113.539 214.201 115.358C211.091 115.944 209.921 113.667 210.004 110.921Z" stroke="white" stroke-linecap="round" stroke-linejoin="round"/>
<path d="M220.571 105.896L238.863 84.46L259.094 104.472C252.105 102.111 220.571 105.896 220.571 105.896Z" stroke="white" stroke-linecap="round" stroke-linejoin="round"/>
<path d="M250.048 94.3068L264.829 82.4502L277.285 91.3594L277.753 105.276L259.077 104.372" stroke="white" stroke-linecap="round" stroke-linejoin="round"/>
<path d="M228.472 82.7814C228.642 81.0974 227.178 79.5703 225.203 79.3704C223.228 79.1704 221.489 80.3734 221.319 82.0574C221.149 83.7414 222.613 85.2686 224.588 85.4685C226.563 85.6685 228.302 84.4654 228.472 82.7814Z" stroke="white" stroke-linecap="round" stroke-linejoin="round"/>
<path d="M526.578 548.531L577.072 535L579.011 540.476L527.932 553.756L526.578 548.531Z" stroke="white" stroke-linecap="round" stroke-linejoin="round"/>
<path d="M519.555 541.464L521.027 546.053" stroke="white" stroke-linecap="round" stroke-linejoin="round"/>
<path d="M518.134 544.461L522.398 542.988" stroke="white" stroke-linecap="round" stroke-linejoin="round"/>
<path d="M517.114 558.998L519.856 567.673" stroke="white" stroke-linecap="round" stroke-linejoin="round"/>
<path d="M514.774 564.491L522.364 562.079" stroke="white" stroke-linecap="round" stroke-linejoin="round"/>
<path d="M505.561 544.696L509.156 556.184" stroke="white" stroke-linecap="round" stroke-linejoin="round"/>
<path d="M502 551.847L512.633 548.447" stroke="white" stroke-linecap="round" stroke-linejoin="round"/>
<g filter="url(#filter0_f_129_1196)">
<path d="M343.003 536.552L396.044 369.589L374.354 347.716L360.084 345.143L344.707 345.274L276.391 485.781L343.003 536.552Z" fill="url(#paint0_linear_129_1196)"/>
</g>
<path d="M459.096 151.533C459.096 151.533 471.677 165.464 472.542 190.683C473.407 215.902 445.129 178.896 445.129 178.896L459.096 151.533Z" fill="url(#paint1_linear_129_1196)"/>
<path d="M466.436 179.713C466.436 179.713 461.362 148.015 451.893 141.124C442.423 134.234 424.873 139.993 424.873 139.993L466.436 179.713Z" fill="url(#paint2_linear_129_1196)"/>
<path d="M314.843 249.569C336.112 284.778 445.531 292.709 464.707 275.78C472.295 268.855 477.603 259.791 479.931 249.785C491.005 206.006 458.244 139.947 401.65 132.228C363.304 127.058 330.475 158.144 316.317 191.775C307.457 212.794 305.904 234.811 314.843 249.569Z" fill="url(#paint3_linear_129_1196)"/>
<path d="M335.83 266.906C350.938 273.588 366.802 278.413 383.073 281.276C408.403 285.221 427.101 285.221 437.946 282.742C445.088 281.114 448.822 278.426 448.856 275.056C448.889 273.028 444.183 270.497 436.585 267.823C414.208 260.081 366.801 251.377 340.552 251.246C338.285 251.236 336.178 251.281 334.266 251.406L333.073 251.495L332.871 251.451C328.263 251.859 324.909 252.691 323.281 254.086C322.885 254.39 322.564 254.78 322.343 255.227C320.88 258.444 326.77 262.708 335.83 266.906Z" fill="url(#paint4_linear_129_1196)"/>
<path style="mix-blend-mode:multiply" opacity="0.3" d="M314.88 249.534C336.135 284.816 445.569 292.712 464.757 275.734C472.35 268.789 477.664 259.701 479.997 249.67C479.997 249.67 470.573 262.68 448.241 261.934C425.909 261.188 362.505 248.001 351.025 236.366C339.545 224.732 351.422 181.514 351.422 181.514L316.309 191.588C307.511 212.676 305.946 234.746 314.88 249.534Z" fill="url(#paint5_linear_129_1196)"/>
<g style="mix-blend-mode:multiply" opacity="0.5">
<path d="M335.779 267.14C347.452 264.034 381.306 256.547 405.954 266.336C436.191 278.302 437.901 282.951 437.901 282.951C445.051 281.282 448.796 278.549 448.839 275.134C448.878 273.08 444.176 270.53 436.58 267.842C414.212 260.062 366.801 251.377 340.537 251.318C337.772 251.383 335.272 251.467 333.041 251.647L332.838 251.604C328.226 252.03 324.868 252.882 323.235 254.3C322.838 254.609 322.516 255.005 322.293 255.459C320.844 258.609 326.726 262.912 335.779 267.14Z" fill="#80BDE1"/>
</g>
<path d="M334.344 251.482C339.456 258.169 367.59 267.655 383.995 270.206C413.499 274.77 432.161 272.86 437.179 267.97C412.77 259.5 358.635 249.916 334.344 251.482Z" fill="#3CF7DA"/>
<path d="M479.841 251.329C473.178 263.979 379.524 254.377 359.427 227.29C339.329 200.203 373.769 125.856 421.813 140.596C467.596 154.694 491.905 228.408 479.841 251.329Z" fill="#DFE3FB"/>
<path d="M480.261 249.38C473.69 262.051 379.948 252.412 359.847 225.342C339.745 198.272 374.191 123.901 422.235 138.64C468.021 152.721 492.326 226.458 480.261 249.38Z" fill="url(#paint6_linear_129_1196)"/>
<path d="M369.881 142.089C369.881 142.089 364.965 188.267 333.114 197.932C333.114 197.932 318.867 196.335 312.599 186.268C312.599 186.268 322.643 200.655 338.581 191.506C354.52 182.356 358.713 148.32 351.023 135.245C343.333 122.171 328.118 121.898 328.118 121.898L335.084 118.036C335.084 118.036 357.509 118.388 369.881 142.089Z" fill="url(#paint7_linear_129_1196)"/>
<path d="M335.483 117.747C335.483 117.747 351.183 119.709 357.954 140.101C365.161 161.741 349.547 192.972 334.583 194.936C319.619 196.899 317.396 140.295 317.396 140.295L330.136 120.803C331.545 119.23 333.422 118.157 335.483 117.747Z" fill="url(#paint8_linear_129_1196)"/>
<path d="M305.201 158.797C304.889 169.652 307.201 179.078 311.61 185.702L312.857 187.462C314.601 189.78 316.804 191.704 319.327 193.111C321.851 194.519 324.638 195.379 327.513 195.638C346.847 197.385 355.465 170.37 356.701 154.253C358.108 135.656 345.251 121.439 332.76 120.353C317.973 119.083 305.798 137.566 305.201 158.797Z" fill="url(#paint9_linear_129_1196)"/>
<path d="M483.615 237.634C492.401 242.237 500.125 248.66 506.285 256.488C516.47 269.477 517.023 282.77 501.956 278.341L495.766 272.596C495.766 272.596 504.611 275.857 505.457 266.174C506.303 256.492 483.496 239.427 483.496 239.427L483.615 237.634Z" fill="url(#paint10_linear_129_1196)"/>
<path d="M505.831 270.869C509.377 276.638 499.521 279.068 491.765 278.725C483.05 278.332 468.055 274.102 470.478 265.417C472.902 256.732 497.51 257.365 505.831 270.869Z" fill="url(#paint11_linear_129_1196)"/>
<path d="M504.963 271.459C505.023 272.786 474.134 268.035 474.1 262.931C474.065 257.826 504.49 261.075 504.963 271.459Z" fill="url(#paint12_linear_129_1196)"/>
<path d="M409.245 193.387C409.718 194.39 398.779 183.771 377.022 187.01C374.887 187.323 399.991 173.618 409.245 193.387Z" fill="url(#paint13_linear_129_1196)"/>
<path d="M473.64 207.765C474.107 208.867 468.768 200.582 449.737 201.242C447.522 201.255 465.355 188.359 473.64 207.765Z" fill="url(#paint14_linear_129_1196)"/>
<path style="mix-blend-mode:screen" opacity="0.5" d="M466.58 188.024C463.824 190.706 448.36 177.964 428.756 175.75C409.153 173.535 384.202 187.72 369.028 182.034C356.974 177.519 383.001 136.53 415.551 139.389C448.101 142.248 469.332 185.36 466.58 188.024Z" fill="url(#paint15_linear_129_1196)"/>
<path style="mix-blend-mode:screen" opacity="0.5" d="M459.631 249.237C445.81 242.81 431.012 238.729 415.848 237.161C390.781 234.604 386.282 236.347 386.226 238.742C386.17 241.137 403.043 249.684 425.965 252.142C448.887 254.6 459.631 249.237 459.631 249.237Z" fill="url(#paint16_linear_129_1196)"/>
<path style="mix-blend-mode:screen" opacity="0.5" d="M479.619 245.979C479.619 245.979 485.819 229.008 476.076 201.078C476.076 201.078 473.669 196.497 471.898 197.573C470.127 198.649 481.313 219.796 479.619 245.979Z" fill="url(#paint17_linear_129_1196)"/>
<path style="mix-blend-mode:screen" opacity="0.72" d="M349.593 176.005C349.593 176.005 343.974 191.854 330.822 192.64C317.67 193.426 309.485 182.552 309.037 169.576C309.037 169.576 310.597 180.981 327.316 181.842C344.034 182.702 349.593 176.005 349.593 176.005Z" fill="url(#paint18_linear_129_1196)"/>
<path style="mix-blend-mode:screen" opacity="0.72" d="M353.645 142.972C352.821 146.09 331.95 134.633 324.65 134.042C317.35 133.451 312.371 141.609 311.296 141.146C310.221 140.683 317.776 120.669 331.31 122.045C344.844 123.421 354.222 140.822 353.645 142.972Z" fill="url(#paint19_linear_129_1196)"/>
<path d="M448.489 220.253C448.489 220.253 425.848 216.194 413.806 210.308C413.806 210.308 412.386 231.484 426.976 234.629C441.566 237.775 448.489 220.253 448.489 220.253Z" fill="#2F95CD"/>
<path d="M415.088 364.122C415.088 364.122 448.733 393.636 457.913 394.719C467.093 395.802 467.416 374.908 467.416 374.908C466.507 373.262 465.494 371.556 464.381 369.771C453.262 351.789 432.76 327.531 420.622 315.452C415.51 310.383 411.862 307.46 411.009 308.077C404.545 312.616 415.088 364.122 415.088 364.122Z" fill="url(#paint20_linear_129_1196)"/>
<path d="M467.213 374.774C467.213 374.774 463.166 369.572 455.853 373.799C448.539 378.027 451.96 392.748 457.771 394.69C463.581 396.632 469.937 384.326 467.213 374.774Z" fill="url(#paint21_linear_129_1196)"/>
<path style="mix-blend-mode:multiply" opacity="0.3" d="M415.08 364.115C415.08 364.115 448.73 393.636 457.912 394.719C467.094 395.802 467.417 374.902 467.417 374.902C466.507 373.256 465.494 371.549 464.381 369.764C464.381 369.764 453.907 373.23 437.208 366.863C420.509 360.496 420.629 315.455 420.629 315.455C415.517 310.384 411.867 307.461 411.015 308.078C404.535 312.596 415.08 364.115 415.08 364.115Z" fill="url(#paint22_linear_129_1196)"/>
<path d="M314.307 364.597C305.597 394.294 314.503 413.987 341.808 428.51C368.58 442.744 400.712 422.838 410.71 384.224C417.104 359.56 421.266 336.863 416.492 318.697C413.878 308.154 407.543 298.921 398.658 292.704C391.056 287.209 381.902 287.934 372.434 292.428C347.713 304.177 321.046 341.723 314.307 364.597Z" fill="url(#paint23_linear_129_1196)"/>
<path style="mix-blend-mode:multiply" opacity="0.3" d="M355.836 322.613C348.027 333.147 340.791 344.094 334.161 355.407C325.224 371.723 325.831 392.615 325.831 392.615C326.291 398.833 327.645 404.952 329.851 410.783C332.189 417.054 334.511 420.188 333.69 420.876C332.306 422.039 322.085 415.606 316.258 405.2C308.809 392.06 311.038 377.354 313.055 369.426C313.534 366.836 314.163 364.276 314.939 361.759C316.585 356.295 319 351.094 322.112 346.312C329.059 335.929 332.66 331.438 332.66 331.438L355.836 322.613Z" fill="url(#paint24_linear_129_1196)"/>
<path d="M410.053 389.044C410.053 389.044 414.832 365.722 395.803 355.243C373.013 342.647 343.789 359.547 335.776 377.429C327.762 395.31 324.175 414.261 345.352 426.778C345.348 426.796 386.177 448.063 410.053 389.044Z" fill="url(#paint25_linear_129_1196)"/>
<path d="M408.445 391.76C408.445 391.76 413.223 368.442 394.193 357.964C371.403 345.37 342.18 362.266 334.163 380.162C326.147 398.058 322.568 416.968 343.746 429.484C343.742 429.502 384.551 450.858 408.445 391.76Z" fill="url(#paint26_radial_129_1196)"/>
<path d="M332.824 339.108C333.544 339.34 334.306 339.412 335.056 339.32C335.806 339.228 336.527 338.974 337.168 338.576C345.417 334.843 360.456 319.318 366.021 309.131C368.153 305.186 368.874 302.022 367.191 300.687C364.43 298.49 352.622 305.327 341.72 318.082C335.396 325.492 328.617 336.79 332.824 339.108Z" fill="url(#paint27_linear_129_1196)"/>
<path d="M337.168 338.025C345.422 334.271 360.477 318.676 366.051 308.447C360.939 310.677 353.129 316.632 345.703 325.332C342.349 329.197 339.482 333.46 337.168 338.025Z" fill="#6340A2"/>
<g style="mix-blend-mode:multiply" opacity="0.5">
<path d="M372.584 292.379C372.584 292.379 394.828 318.25 406.245 322.895C417.32 327.429 416.832 319.066 416.802 318.581C414.16 308.088 407.778 298.902 398.846 292.733C391.205 287.273 382.036 287.921 372.584 292.379Z" fill="url(#paint28_linear_129_1196)"/>
</g>
<path style="mix-blend-mode:screen" opacity="0.72" d="M406.665 388.528C400.826 392.365 393.953 379.612 379.773 373.865C365.593 368.118 354.565 371.177 351.772 367.184C348.979 363.191 371.96 350.034 392.891 360.401C409.619 368.705 408.706 387.225 406.665 388.528Z" fill="url(#paint29_linear_129_1196)"/>
<path style="mix-blend-mode:screen" opacity="0.72" d="M364.374 430.101C358.285 431.704 351.92 430.985 346.398 428.071C337.09 423.184 336.578 416.684 336.578 416.684C340.602 417.383 344.329 419.276 347.335 422.147C352.114 426.539 358.038 429.304 364.374 430.101Z" fill="url(#paint30_linear_129_1196)"/>
<path d="M381.461 318.996C383.151 319.936 377.214 337.294 375.547 337.089C373.88 336.883 373.909 332.547 375.48 326.66C377.051 320.773 379.829 318.067 381.461 318.996Z" fill="white"/>
<path d="M248.069 345.353C242.91 356.1 251.923 366.052 256.659 366.688C260.792 367.252 275.23 365.59 295.604 356.93C298.607 355.652 301.719 354.224 304.981 352.637C330.28 340.244 368.854 309.96 359.893 304.255C334.091 287.853 253.24 334.647 248.069 345.353Z" fill="url(#paint31_linear_129_1196)"/>
<path d="M266.52 366.293C266.52 366.293 273.634 358.316 269.323 349.138C265.011 339.961 249.892 342.976 249.892 342.976C248.769 344.184 247.9 345.609 247.337 347.165C246.774 348.721 246.529 350.375 246.618 352.026C246.706 353.677 247.126 355.291 247.852 356.769C248.578 358.247 249.594 359.559 250.839 360.623C259.986 369.502 266.52 366.293 266.52 366.293Z" fill="url(#paint32_linear_129_1196)"/>
<path style="mix-blend-mode:multiply" opacity="0.3" d="M248.068 345.357C242.914 356.103 251.907 366.049 256.635 366.684C260.76 367.246 275.172 365.579 295.513 356.914C293.712 357.565 280.503 362.07 276.176 358.058C271.512 353.722 274.564 332.494 308.866 313.865C342.084 295.792 358.789 303.724 359.799 304.231C333.954 287.841 253.233 334.652 248.068 345.357Z" fill="url(#paint33_linear_129_1196)"/>
<path d="M265.09 353.493C261.217 347.352 253.09 346.443 250.561 346.166C237.982 344.737 229.276 354.697 227.832 356.416C223.877 359.548 216.332 366.617 215.305 377.429C215.039 380.264 214.706 384.387 217.285 387.279C221.177 391.643 229.015 390.153 231.217 389.727C239.218 388.196 239.586 384.176 253.553 373.473C261.774 367.182 267.184 364.326 266.967 358.839C266.827 356.923 266.179 355.077 265.09 353.493Z" fill="url(#paint34_linear_129_1196)"/>
<path d="M326.836 331.317C328.484 336.362 319.438 337.901 317.38 336.732C315.321 335.564 325.559 327.839 326.836 331.317Z" fill="white"/>
<path d="M315.462 338.525C316.085 339.228 312.317 341.37 311.462 341.659C309.804 342.249 306.776 342.013 306.767 341.443C306.758 340.873 314.736 337.687 315.462 338.525Z" fill="white"/>
<path d="M441.258 343.841C440.6 345.05 433.106 339.225 433.903 335.362C434.699 331.498 442.199 342.074 441.258 343.841Z" fill="white"/>
<path d="M510.315 407.977C509.59 410.309 508.4 412.473 506.812 414.349C506.812 414.349 500.805 416.711 490.528 414.008C480.251 411.305 461.288 396.451 458.753 393.841C456.219 391.232 455.913 385.108 455.913 385.108L510.315 407.977Z" fill="url(#paint35_linear_129_1196)"/>
<path d="M457.462 386.7C457.937 387.435 458.466 388.132 459.044 388.785C459.735 389.581 460.605 390.435 461.607 391.297L463.101 392.638C472.297 400.657 489.643 411.765 498.033 412.496C508.979 413.464 510.348 407.822 510.348 407.822C505.559 401.794 500.385 396.096 494.86 390.765C492.058 388.003 489.017 385.505 485.775 383.299C480.651 380.055 475.19 377.392 469.49 375.359C467.765 374.257 465.744 373.73 463.703 373.852C461.662 373.973 459.702 374.737 458.093 376.038C457.806 376.838 455.472 383.664 457.462 386.7Z" fill="url(#paint36_linear_129_1196)"/>
<path d="M469.193 375.706C474.852 377.772 480.27 380.471 485.352 383.756C488.604 386.004 491.652 388.553 494.458 391.372C485.179 378.75 470.048 375.85 469.193 375.706Z" fill="url(#paint37_linear_129_1196)"/>
<path d="M490.13 406.705C486.784 403.37 482.692 401.114 478.244 400.152C478.244 400.152 486.023 406.676 490.13 406.705Z" fill="white"/>
<g filter="url(#filter1_f_129_1196)">
<path d="M446.047 348.477L436.905 267.022L387.768 253.832L362.373 251.25L336.71 249.965L304.768 316.431L446.047 348.477Z" fill="url(#paint38_linear_129_1196)"/>
</g>
<path d="M490.397 391.221C489.98 392.713 480.376 385.518 480.76 383.735C481.144 381.953 491.122 388.739 490.397 391.221Z" fill="white"/>
<path d="M638.059 193.021L650.315 215.696C651.602 217.722 651.151 218.878 650.03 219.916C644.78 224.789 628.78 239.627 605.372 245.421C602.346 246.175 601.627 244.751 600.958 243.495L589.254 221.876C589.077 221.447 588.991 220.987 589.001 220.524C589.01 220.061 589.116 219.604 589.311 219.184C589.506 218.764 589.786 218.389 590.133 218.082C590.48 217.776 590.886 217.545 591.327 217.404C599.066 214.039 606.554 210.122 613.732 205.681C620.802 201.647 627.515 197.014 633.795 191.832C635.467 190.157 637.139 191.246 638.059 193.021Z" stroke="white" stroke-linecap="round" stroke-linejoin="round"/>
<path d="M633.244 200.205L629.582 220.62L609.318 215.445C614.584 214.306 633.244 200.205 633.244 200.205Z" stroke="white" stroke-linecap="round" stroke-linejoin="round"/>
<path d="M618.781 218.493L613.782 231.521L602.58 230.5L597.112 221.825L609.301 215.445" stroke="white" stroke-linecap="round" stroke-linejoin="round"/>
<path d="M640.041 218.844C641.368 218.237 642.027 216.83 641.513 215.703C640.998 214.576 639.506 214.155 638.179 214.762C636.852 215.369 636.193 216.775 636.707 217.903C637.222 219.03 638.714 219.451 640.041 218.844Z" stroke="white" stroke-linecap="round" stroke-linejoin="round"/>
<path d="M287.849 379.558C289.911 379.558 291.581 377.885 291.581 375.821C291.581 373.757 289.911 372.084 287.849 372.084C285.789 372.084 284.119 373.757 284.119 375.821C284.119 377.885 285.789 379.558 287.849 379.558Z" fill="white"/>
<path d="M234.145 211.951C211.059 191.538 172.906 242.42 312.473 404.378C393.009 497.81 456.313 506.183 464.858 473.675C480.239 415.362 424.697 400.627 445.376 423.464C475.426 456.672 560.889 463.69 624.592 432.707C687.44 402.124 648.803 354.638 644.901 351.856" stroke="white" stroke-linecap="round" stroke-linejoin="round"/>
<path d="M638.25 456.201L636.185 441.894L648.362 450.01L641.995 451.393L638.25 456.201Z" stroke="white" stroke-linecap="round" stroke-linejoin="round"/>
<path d="M625.646 436.145C627.707 436.145 629.377 434.472 629.377 432.409C629.377 430.344 627.707 428.671 625.646 428.671C623.585 428.671 621.915 430.344 621.915 432.409C621.915 434.472 623.585 436.145 625.646 436.145Z" fill="white"/>
<path d="M571.3 462.948L682 400.441" stroke="white" stroke-linecap="round" stroke-linejoin="round"/>
<path d="M223.563 148.502C92.5407 94.1265 -8.23284 198.856 238.645 359.217C258.085 371.856 287.907 376.335 287.907 376.335" stroke="white" stroke-linecap="round" stroke-linejoin="round"/>
<path d="M427.932 32.9091V31.8182L446.614 19.6818V20.9773L428.955 32.4318L429.159 32.0909V32.6364L428.955 32.2955L446.614 43.75V45.0455L427.932 32.9091ZM466.54 9.45454L455.29 51.25H454.131L465.381 9.45454H466.54ZM492.692 32.9091L474.01 45.0455V43.75L491.669 32.2955L491.464 32.6364V32.0909L491.669 32.4318L474.01 20.9773V19.6818L492.692 31.8182V32.9091Z" fill="#00DBF9"/>
<path d="M48.1364 60.8182V59.7273C50.1023 59.7159 51.4318 59.3636 52.125 58.6705C52.8295 57.9659 53.1818 56.6364 53.1818 54.6818V45.75C53.1818 44.5114 53.3068 43.4375 53.5568 42.5284C53.8068 41.608 54.1875 40.8466 54.6989 40.2443C55.2102 39.642 55.8523 39.1932 56.625 38.8977C57.4091 38.6023 58.3295 38.4545 59.3864 38.4545V39.5455C58.2045 39.5341 57.233 39.7443 56.4716 40.1761C55.7216 40.608 55.1648 41.2841 54.8011 42.2045C54.4489 43.1136 54.2727 44.2955 54.2727 45.75V54.6818C54.2727 55.8068 54.1648 56.7614 53.9489 57.5455C53.733 58.3182 53.3864 58.9489 52.9091 59.4375C52.4318 59.9148 51.8011 60.267 51.017 60.4943C50.233 60.7102 49.2727 60.8182 48.1364 60.8182ZM59.3864 82.0909C58.3295 82.0909 57.4091 81.9432 56.625 81.6477C55.8523 81.3523 55.2102 80.9034 54.6989 80.3011C54.1875 79.6989 53.8068 78.9375 53.5568 78.017C53.3068 77.108 53.1818 76.0341 53.1818 74.7955V65.8636C53.1818 63.9091 52.8295 62.5852 52.125 61.892C51.4318 61.1875 50.1023 60.8295 48.1364 60.8182V59.7273C49.2727 59.7386 50.233 59.858 51.017 60.0852C51.8011 60.3011 52.4318 60.6477 52.9091 61.125C53.3864 61.6023 53.733 62.233 53.9489 63.017C54.1648 63.7898 54.2727 64.7386 54.2727 65.8636V74.7955C54.2727 76.25 54.4489 77.4318 54.8011 78.3409C55.1648 79.2614 55.7216 79.9318 56.4716 80.3523C57.233 80.7841 58.2045 81 59.3864 81V82.0909ZM48.1364 60.8182V59.7273H51.8182V60.8182H48.1364ZM85.6406 59.7273V60.8182C83.6747 60.8295 82.3395 61.1875 81.6349 61.892C80.9418 62.5852 80.5952 63.9091 80.5952 65.8636V74.7955C80.5952 76.0341 80.4702 77.108 80.2202 78.017C79.9702 78.9375 79.5895 79.6989 79.0781 80.3011C78.5668 80.9034 77.919 81.3523 77.1349 81.6477C76.3622 81.9432 75.4474 82.0909 74.3906 82.0909V81C75.5838 81 76.5554 80.7841 77.3054 80.3523C78.0554 79.9318 78.6065 79.2614 78.9588 78.3409C79.3224 77.4318 79.5043 76.25 79.5043 74.7955V65.8636C79.5043 64.7386 79.6122 63.7898 79.8281 63.017C80.044 62.233 80.3906 61.6023 80.8679 61.125C81.3452 60.6364 81.9759 60.2841 82.7599 60.0682C83.544 59.8409 84.5043 59.7273 85.6406 59.7273ZM74.3906 38.4545C75.4474 38.4545 76.3622 38.6023 77.1349 38.8977C77.919 39.1932 78.5668 39.642 79.0781 40.2443C79.5895 40.8466 79.9702 41.608 80.2202 42.5284C80.4702 43.4375 80.5952 44.5114 80.5952 45.75V54.6818C80.5952 56.6364 80.9418 57.9659 81.6349 58.6705C82.3395 59.3636 83.6747 59.7159 85.6406 59.7273V60.8182C84.5043 60.8068 83.544 60.6932 82.7599 60.4773C81.9759 60.25 81.3452 59.8977 80.8679 59.4205C80.3906 58.9432 80.044 58.3182 79.8281 57.5455C79.6122 56.7614 79.5043 55.8068 79.5043 54.6818V45.75C79.5043 44.2955 79.3224 43.1136 78.9588 42.2045C78.6065 41.2841 78.0554 40.608 77.3054 40.1761C76.5554 39.7443 75.5838 39.5341 74.3906 39.5455V38.4545ZM85.6406 59.7273V60.8182H81.9588V59.7273H85.6406Z" fill="#F90095"/>
<path d="M723 401.091V357.455H729V358.545H724.091V400H729V401.091H723ZM754.777 357.455V401.091H748.777V400H753.686V358.545H748.777V357.455H754.777Z" fill="#F98600"/>
<path d="M124.591 522.273C124.591 518.591 125.023 514.903 125.886 511.21C126.75 507.517 128 503.932 129.636 500.455H130.795C129.943 502.216 129.199 504 128.562 505.807C127.926 507.614 127.392 509.438 126.96 511.278C126.54 513.108 126.222 514.943 126.006 516.784C125.79 518.614 125.682 520.443 125.682 522.273C125.682 524.727 125.875 527.182 126.261 529.636C126.648 532.091 127.222 534.528 127.983 536.949C128.744 539.369 129.682 541.75 130.795 544.091H129.636C128 540.58 126.75 536.977 125.886 533.284C125.023 529.591 124.591 525.92 124.591 522.273ZM157.186 522.273C157.186 525.955 156.754 529.642 155.891 533.335C155.027 537.028 153.777 540.614 152.141 544.091H150.982C151.834 542.33 152.578 540.545 153.214 538.739C153.851 536.932 154.379 535.114 154.8 533.284C155.232 531.443 155.555 529.608 155.771 527.778C155.987 525.937 156.095 524.102 156.095 522.273C156.095 519.818 155.902 517.364 155.516 514.909C155.129 512.455 154.555 510.017 153.794 507.597C153.044 505.176 152.107 502.795 150.982 500.455H152.141C153.777 503.966 155.027 507.568 155.891 511.261C156.754 514.955 157.186 518.625 157.186 522.273Z" fill="#00F937"/>
<defs>
<filter id="filter0_f_129_1196" x="260.391" y="329.144" width="151.653" height="223.408" filterUnits="userSpaceOnUse" color-interpolation-filters="sRGB">
<feFlood flood-opacity="0" result="BackgroundImageFix"/>
<feBlend mode="normal" in="SourceGraphic" in2="BackgroundImageFix" result="shape"/>
<feGaussianBlur stdDeviation="8" result="effect1_foregroundBlur_129_1196"/>
</filter>
<filter id="filter1_f_129_1196" x="294.768" y="239.965" width="161.279" height="118.513" filterUnits="userSpaceOnUse" color-interpolation-filters="sRGB">
<feFlood flood-opacity="0" result="BackgroundImageFix"/>
<feBlend mode="normal" in="SourceGraphic" in2="BackgroundImageFix" result="shape"/>
<feGaussianBlur stdDeviation="5" result="effect1_foregroundBlur_129_1196"/>
</filter>
<linearGradient id="paint0_linear_129_1196" x1="374.185" y1="369.856" x2="327.623" y2="474.163" gradientUnits="userSpaceOnUse">
<stop stop-color="#34F0E6"/>
<stop offset="1" stop-color="#34F0E6" stop-opacity="0"/>
</linearGradient>
<linearGradient id="paint1_linear_129_1196" x1="458.507" y1="199.324" x2="459.509" y2="151.54" gradientUnits="userSpaceOnUse">
<stop stop-color="#45FFCD"/>
<stop offset="1" stop-color="#22E0FF"/>
</linearGradient>
<linearGradient id="paint2_linear_129_1196" x1="445.156" y1="179.315" x2="445.926" y2="137.848" gradientUnits="userSpaceOnUse">
<stop stop-color="#B9ACF4"/>
<stop offset="1" stop-color="#E1D1F5"/>
</linearGradient>
<linearGradient id="paint3_linear_129_1196" x1="401.601" y1="287.387" x2="385.566" y2="132.125" gradientUnits="userSpaceOnUse">
<stop stop-color="#CBC1F7"/>
<stop offset="1" stop-color="#E8DCF7"/>
</linearGradient>
<linearGradient id="paint4_linear_129_1196" x1="448.985" y1="269.402" x2="321.889" y2="266.668" gradientUnits="userSpaceOnUse">
<stop stop-color="#8879EA"/>
<stop offset="1" stop-color="#9E8CEF"/>
</linearGradient>
<linearGradient id="paint5_linear_129_1196" x1="393.399" y1="283.771" x2="395.58" y2="182.427" gradientUnits="userSpaceOnUse">
<stop stop-color="#9D68C2"/>
<stop offset="1" stop-color="#CCEDFF"/>
</linearGradient>
<linearGradient id="paint6_linear_129_1196" x1="417.864" y1="254.087" x2="420.408" y2="136.978" gradientUnits="userSpaceOnUse">
<stop stop-color="#0665BD"/>
<stop offset="1" stop-color="#1A1F77"/>
</linearGradient>
<linearGradient id="paint7_linear_129_1196" x1="333.896" y1="198.215" x2="350.941" y2="121.015" gradientUnits="userSpaceOnUse">
<stop stop-color="#B9ACF4"/>
<stop offset="1" stop-color="#E1D1F5"/>
</linearGradient>
<linearGradient id="paint8_linear_129_1196" x1="328.622" y1="193.946" x2="345.002" y2="119.807" gradientUnits="userSpaceOnUse">
<stop stop-color="#BE9DEA"/>
<stop offset="1" stop-color="#9E8CEF"/>
</linearGradient>
<linearGradient id="paint9_linear_129_1196" x1="322.385" y1="194.703" x2="338.567" y2="121.467" gradientUnits="userSpaceOnUse">
<stop stop-color="#45FFCD"/>
<stop offset="1" stop-color="#22E0FF"/>
</linearGradient>
<linearGradient id="paint10_linear_129_1196" x1="500.988" y1="279.944" x2="496.302" y2="236.282" gradientUnits="userSpaceOnUse">
<stop stop-color="#BE9DEA"/>
<stop offset="1" stop-color="#9E8CEF"/>
</linearGradient>
<linearGradient id="paint11_linear_129_1196" x1="488.983" y1="279.195" x2="487.361" y2="259.184" gradientUnits="userSpaceOnUse">
<stop stop-color="#DD1A8F"/>
<stop offset="1" stop-color="#FE117E"/>
</linearGradient>
<linearGradient id="paint12_linear_129_1196" x1="487.498" y1="269.288" x2="488.868" y2="261.154" gradientUnits="userSpaceOnUse">
<stop stop-color="#D93DE3"/>
<stop offset="1" stop-color="#FF6DBA"/>
</linearGradient>
<linearGradient id="paint13_linear_129_1196" x1="393.019" y1="192.984" x2="393.319" y2="182.687" gradientUnits="userSpaceOnUse">
<stop stop-color="#45FFCD"/>
<stop offset="1" stop-color="#22E0FF"/>
</linearGradient>
<linearGradient id="paint14_linear_129_1196" x1="461.488" y1="207.691" x2="461.634" y2="197.099" gradientUnits="userSpaceOnUse">
<stop stop-color="#45FFCD"/>
<stop offset="1" stop-color="#22E0FF"/>
</linearGradient>
<linearGradient id="paint15_linear_129_1196" x1="467.285" y1="164.462" x2="366.371" y2="162.356" gradientUnits="userSpaceOnUse">
<stop/>
<stop offset="1" stop-color="#6A9BFF"/>
</linearGradient>
<linearGradient id="paint16_linear_129_1196" x1="459.693" y1="245.312" x2="386.107" y2="243.749" gradientUnits="userSpaceOnUse">
<stop/>
<stop offset="1" stop-color="#6A9BFF"/>
</linearGradient>
<linearGradient id="paint17_linear_129_1196" x1="475.681" y1="245.929" x2="476.313" y2="197.402" gradientUnits="userSpaceOnUse">
<stop/>
<stop offset="1" stop-color="#6A9BFF"/>
</linearGradient>
<linearGradient id="paint18_linear_129_1196" x1="325.032" y1="192.179" x2="329.582" y2="171.564" gradientUnits="userSpaceOnUse">
<stop stop-color="#D4E2FF"/>
<stop offset="1"/>
</linearGradient>
<linearGradient id="paint19_linear_129_1196" x1="354.545" y1="138.871" x2="313.565" y2="129.822" gradientUnits="userSpaceOnUse">
<stop/>
<stop offset="1" stop-color="#D4E2FF"/>
</linearGradient>
<linearGradient id="paint20_linear_129_1196" x1="434.157" y1="392.592" x2="441.54" y2="310.68" gradientUnits="userSpaceOnUse">
<stop stop-color="#CBC1F7"/>
<stop offset="1" stop-color="#D4BEF1"/>
</linearGradient>
<linearGradient id="paint21_linear_129_1196" x1="455.732" y1="394.039" x2="462.802" y2="372.191" gradientUnits="userSpaceOnUse">
<stop stop-color="#BE9DEA"/>
<stop offset="1" stop-color="#9E8CEF"/>
</linearGradient>
<linearGradient id="paint22_linear_129_1196" x1="429.072" y1="388.539" x2="444.89" y2="315.172" gradientUnits="userSpaceOnUse">
<stop stop-color="#9D68C2"/>
<stop offset="1" stop-color="#CCEDFF"/>
</linearGradient>
<linearGradient id="paint23_linear_129_1196" x1="341.314" y1="428.609" x2="395.853" y2="290.953" gradientUnits="userSpaceOnUse">
<stop stop-color="#CBC1F7"/>
<stop offset="1" stop-color="#E8DCF7"/>
</linearGradient>
<linearGradient id="paint24_linear_129_1196" x1="313.057" y1="410.506" x2="360.013" y2="324.921" gradientUnits="userSpaceOnUse">
<stop stop-color="#9D68C2"/>
<stop offset="1" stop-color="#CCEDFF"/>
</linearGradient>
<linearGradient id="paint25_linear_129_1196" x1="400.809" y1="407.662" x2="337.974" y2="373.246" gradientUnits="userSpaceOnUse">
<stop stop-color="#BE9DEA"/>
<stop offset="1" stop-color="#9E8CEF"/>
</linearGradient>
<radialGradient id="paint26_radial_129_1196" cx="0" cy="0" r="1" gradientUnits="userSpaceOnUse" gradientTransform="translate(352.351 418.858) rotate(-151.221) scale(54.1435 54.2381)">
<stop stop-color="#45FFCD"/>
<stop offset="1" stop-color="#22E0FF"/>
</radialGradient>
<linearGradient id="paint27_linear_129_1196" x1="357.779" y1="324.167" x2="341.637" y2="315.293" gradientUnits="userSpaceOnUse">
<stop stop-color="#8879EA"/>
<stop offset="1" stop-color="#9E8CEF"/>
</linearGradient>
<linearGradient id="paint28_linear_129_1196" x1="390.471" y1="291.35" x2="384.256" y2="302.474" gradientUnits="userSpaceOnUse">
<stop stop-color="#3CF7DA"/>
<stop offset="1" stop-color="#3CF7DA" stop-opacity="0"/>
</linearGradient>
<linearGradient id="paint29_linear_129_1196" x1="409.238" y1="384.124" x2="357.332" y2="355.471" gradientUnits="userSpaceOnUse">
<stop/>
<stop offset="1" stop-color="#D4E2FF"/>
</linearGradient>
<linearGradient id="paint30_linear_129_1196" x1="347.637" y1="428.828" x2="351.227" y2="422.57" gradientUnits="userSpaceOnUse">
<stop stop-color="#D4E2FF"/>
<stop offset="1"/>
</linearGradient>
<linearGradient id="paint31_linear_129_1196" x1="268.705" y1="376.782" x2="333.668" y2="285.978" gradientUnits="userSpaceOnUse">
<stop stop-color="#CBC1F7"/>
<stop offset="1" stop-color="#E8DCF7"/>
</linearGradient>
<linearGradient id="paint32_linear_129_1196" x1="251.475" y1="361.958" x2="266.359" y2="346.09" gradientUnits="userSpaceOnUse">
<stop stop-color="#BE9DEA"/>
<stop offset="1" stop-color="#9E8CEF"/>
</linearGradient>
<linearGradient id="paint33_linear_129_1196" x1="259.767" y1="371.961" x2="339.319" y2="285.947" gradientUnits="userSpaceOnUse">
<stop stop-color="#9D68C2"/>
<stop offset="1" stop-color="#CCEDFF"/>
</linearGradient>
<linearGradient id="paint34_linear_129_1196" x1="215.786" y1="383.344" x2="263.206" y2="349.574" gradientUnits="userSpaceOnUse">
<stop stop-color="#CBC1F7"/>
<stop offset="1" stop-color="#E8DCF7"/>
</linearGradient>
<linearGradient id="paint35_linear_129_1196" x1="471.606" y1="408.034" x2="492.929" y2="388.742" gradientUnits="userSpaceOnUse">
<stop stop-color="#BE9DEA"/>
<stop offset="1" stop-color="#9E8CEF"/>
</linearGradient>
<linearGradient id="paint36_linear_129_1196" x1="471.699" y1="403.605" x2="491.881" y2="386.279" gradientUnits="userSpaceOnUse">
<stop stop-color="#CBC1F7"/>
<stop offset="1" stop-color="#E8DCF7"/>
</linearGradient>
<linearGradient id="paint37_linear_129_1196" x1="478.407" y1="386.664" x2="485.543" y2="380.66" gradientUnits="userSpaceOnUse">
<stop stop-color="#CBC1F7"/>
<stop offset="1" stop-color="#E8DCF7"/>
</linearGradient>
<linearGradient id="paint38_linear_129_1196" x1="383.984" y1="258.523" x2="373.919" y2="327.514" gradientUnits="userSpaceOnUse">
<stop stop-color="#34F0E6"/>
<stop offset="1" stop-color="#34F0E6" stop-opacity="0"/>
</linearGradient>
</defs>
</svg>
