<svg width="476" height="144" viewBox="0 0 476 144" fill="none" xmlns="http://www.w3.org/2000/svg">
<path d="M42.94 124.78C47.9 129.74 55.63 130.06 60.2 125.49C64.77 120.92 64.45 113.19 59.49 108.23L21 69.74C16.04 64.78 8.30997 64.46 3.73997 69.03C-0.830025 73.6 -0.510003 81.33 4.45 86.3L27.22 109.02L42.94 124.78Z" fill="url(#paint0_linear_122_2836)"/>
<path d="M55.73 33.5598C51.16 28.9898 43.75 28.9898 39.18 33.5598L3.73 68.9998C-0.75 73.4798 -1.02997 80.4798 3.26003 85.0698L3.44002 85.2598L3.68001 85.4998C3.70001 85.5198 3.71 85.5398 3.73 85.5598C3.75 85.5798 3.77 85.5898 3.79 85.6098L24.7 106.49C13.44 95.2298 28.56 77.2799 28.56 77.2799L55.74 50.0998C60.3 45.5398 60.3 38.1298 55.73 33.5598Z" fill="url(#paint1_linear_122_2836)"/>
<path d="M433.37 34.9503C428.5 30.0803 420.84 29.8303 416.27 34.4003C411.7 38.9703 411.94 46.6303 416.82 51.5003L454.6 89.2803C459.47 94.1503 467.13 94.4003 471.7 89.8303C476.27 85.2603 476.03 77.6003 471.15 72.7303L448.8 50.4303L433.37 34.9503Z" fill="url(#paint2_linear_122_2836)"/>
<path d="M419.7 125.29C424.27 129.86 431.68 129.86 436.25 125.29L471.69 89.8503C476.17 85.3703 476.45 78.3704 472.16 73.7804L471.98 73.5904L471.74 73.3504C471.72 73.3304 471.71 73.3104 471.69 73.2904C471.67 73.2704 471.65 73.2604 471.63 73.2404L450.72 52.3604C461.98 63.6204 446.86 81.5704 446.86 81.5704L419.68 108.75C415.13 113.31 415.13 120.72 419.7 125.29Z" fill="url(#paint3_linear_122_2836)"/>
<path d="M129.47 56.2401V72.1301H81.94V0.870117H98.62V56.1601L129.47 56.2401Z" fill="white"/>
<path d="M139.03 72.1301V0.870117H155.73V72.1301H139.03Z" fill="white"/>
<path d="M218.32 56.2401V72.1301H170.79V0.870117H187.43V56.1601L218.32 56.2401Z" fill="white"/>
<path d="M227.9 72.1301V0.870117H244.58V72.1301H227.9Z" fill="white"/>
<path d="M295.39 0.870117H278.09L252.48 72.1301H270.19L283.43 30.4801C283.82 29.1601 284.24 27.8501 284.63 26.5101C285.02 25.1701 285.35 24.0701 285.67 23.0501C286 22.0301 286.17 21.2301 286.37 20.6101L286.58 19.7001H286.68L286.99 20.6101C287.19 21.2301 287.4 22.0401 287.69 23.0501C287.98 24.0601 288.31 25.2001 288.62 26.5101C288.93 27.8301 289.34 29.1601 289.73 30.4801L303.08 72.1301H320.95L295.39 0.870117Z" fill="white"/>
<path d="M395.14 0.870117L394.94 72.3301H378.68V53.4301C378.68 45.5901 378.89 39.5901 379.2 35.4101C379.44 33.3201 379.54 31.2101 379.49 29.1001H379.31L378.5 30.5301C378 31.4401 377.38 32.5601 376.78 33.7801C376.18 35.0001 375.54 36.2201 374.94 37.4401C374.34 38.6601 373.92 39.5901 373.61 40.0901L365.89 54.5501H357.43L349.69 40.0901C349.49 39.5901 349.09 38.6601 348.47 37.4401L346.7 33.9101C346.08 32.6901 345.48 31.5701 344.96 30.6601L344.15 29.2301H343.95C343.91 31.3001 344 33.3801 344.24 35.4401C344.55 39.6201 344.76 45.6201 344.76 53.4601V72.2901H328.5V1.06012H344.18L356.56 22.6401C358.16 25.3601 359.59 28.1901 360.82 31.1001C361.07 31.9501 361.41 32.7701 361.84 33.5401H361.94L362.15 32.9401C362.38 32.2801 362.65 31.6301 362.96 31.0001C363.37 30.0701 363.87 28.9501 364.59 27.5401C365.31 26.1301 366.22 24.3901 367.34 22.4501L379.55 0.870117H395.14Z" fill="white"/>
<path d="M77.32 115.73C77.26 111.78 77.89 107.85 79.16 104.11C80.27 100.85 82.02 97.8401 84.31 95.2601C86.5 92.8501 89.17 90.9301 92.17 89.6401C95.23 88.3101 98.53 87.6301 101.87 87.6401C105.25 87.6201 108.6 88.3101 111.7 89.6401C114.69 90.9301 117.36 92.8401 119.54 95.2601C121.84 97.8301 123.6 100.84 124.7 104.11C127.16 111.63 127.16 119.75 124.7 127.27C123.59 130.54 121.84 133.55 119.54 136.12C117.36 138.53 114.68 140.45 111.7 141.74C105.44 144.22 98.47 144.2 92.23 141.67C89.25 140.37 86.59 138.42 84.46 135.97C82.22 133.37 80.49 130.37 79.38 127.12C78.1 123.41 77.48 119.5 77.52 115.58L77.32 115.73ZM82.02 115.57C81.98 118.94 82.5 122.3 83.56 125.5C84.46 128.23 85.87 130.76 87.71 132.96C89.45 134.99 91.63 136.6 94.09 137.66C99.26 139.83 105.08 139.83 110.26 137.66C112.72 136.58 114.9 134.94 116.64 132.89C118.49 130.66 119.9 128.1 120.79 125.34C121.85 122.17 122.37 118.85 122.34 115.51C122.4 112.09 121.91 108.69 120.88 105.43C119.99 102.72 118.58 100.22 116.73 98.05C114.96 96.06 112.78 94.4901 110.34 93.4401C105.2 91.2801 99.4 91.2801 94.26 93.4401C91.84 94.4901 89.69 96.06 87.95 98.05C86.09 100.21 84.68 102.72 83.79 105.43C82.76 108.64 82.26 111.99 82.33 115.36L82.02 115.57Z" fill="white"/>
<path d="M170.88 138.13V142.29H139.8V88.4199H144.18V138.13H170.88Z" fill="white"/>
<path d="M181.81 142.28V88.4102H186.19V142.28H181.81Z" fill="white"/>
<path d="M243.74 88.4199L222.73 142.29H218.27L197.37 88.4999H201.94L217.8 129.52C218.11 130.36 218.41 131.28 218.72 132.21C219.03 133.14 219.33 133.98 219.57 134.74C219.81 135.5 220.02 136.13 220.18 136.58L220.49 137.28H220.64L220.87 136.51C221.03 136.06 221.25 135.44 221.48 134.67C221.71 133.9 222.02 133.05 222.33 132.13C222.64 131.21 222.94 130.29 223.25 129.44L239.11 88.4299H243.74V88.4199Z" fill="white"/>
<path d="M286.92 138.13V142.29H254.96V88.4199H286.43V92.5699H259.39V111.41H280.93V115.49H259.38V138.12L286.92 138.13Z" fill="white"/>
<path d="M300.38 142.28V88.4102H304.76V142.28H300.38Z" fill="white"/>
<path d="M349.93 142.28L338.08 121.27C336.86 121.42 335.62 121.5 334.39 121.49H325.23V142.28H320.84V88.41H334.46C337.1 88.37 339.73 88.7601 342.24 89.5701C344.42 90.2501 346.44 91.38 348.17 92.88C349.78 94.35 351.05 96.16 351.86 98.19C352.74 100.39 353.18 102.74 353.16 105.11C353.29 108.53 352.32 111.91 350.39 114.74C348.42 117.36 345.68 119.3 342.55 120.27L354.84 142.29H349.93V142.28ZM334.85 117.57H334.71C339.26 117.57 342.71 116.41 345.1 114.12C347.54 111.71 348.86 108.39 348.73 104.96C348.94 101.51 347.58 98.15 345.04 95.8C342.58 93.64 339.19 92.5701 334.81 92.5701H325.42V117.57H334.85Z" fill="white"/>
<path d="M387.88 88.4399H383.81L362.49 142.31H367.1L383.81 99.6799C384.42 98.1299 384.81 96.75 385.19 95.53C385.33 94.88 385.56 94.2599 385.89 93.6899H385.96C386.27 94.2699 386.51 94.89 386.65 95.53C387.04 96.76 387.42 98.1399 388.04 99.6799L404.59 142.31H409.2L387.88 88.4399Z" fill="white"/>
<defs>
<linearGradient id="paint0_linear_122_2836" x1="1.28831" y1="96.0048" x2="62.4646" y2="93.4827" gradientUnits="userSpaceOnUse">
<stop stop-color="#6400DF"/>
<stop offset="0.166667" stop-color="#6806E1"/>
<stop offset="1" stop-color="#B57BFF"/>
</linearGradient>
<linearGradient id="paint1_linear_122_2836" x1="12.3467" y1="68.3116" x2="94.6942" y2="68.3116" gradientUnits="userSpaceOnUse">
<stop stop-color="#B57BFF"/>
<stop offset="1" stop-color="#6400DF"/>
</linearGradient>
<linearGradient id="paint2_linear_122_2836" x1="474.391" y1="63.0998" x2="413.719" y2="65.038" gradientUnits="userSpaceOnUse">
<stop offset="0.4626" stop-color="#A93B9E"/>
<stop offset="1" stop-color="#E779C1"/>
</linearGradient>
<linearGradient id="paint3_linear_122_2836" x1="463.082" y1="90.5421" x2="380.734" y2="90.5421" gradientUnits="userSpaceOnUse">
<stop stop-color="#E779C1"/>
<stop offset="0.875" stop-color="#A93B9E"/>
</linearGradient>
</defs>
</svg>
