<svg width="470" height="46" viewBox="0 0 470 46" fill="none" xmlns="http://www.w3.org/2000/svg">
<path d="M29.23 34.6801V44.4501H0V0.630127H10.26V34.6301L29.23 34.6801Z" fill="white"/>
<path d="M35.11 44.4501V0.630127H45.38V44.4501H35.11Z" fill="white"/>
<path d="M83.87 34.6801V44.4501H54.64V0.630127H64.87V34.6301L83.87 34.6801Z" fill="white"/>
<path d="M89.76 44.4501V0.630127H100.02V44.4501H89.76Z" fill="white"/>
<path d="M131.26 0.630127H120.62L104.87 44.4501H115.76L123.9 18.8401C124.14 18.0301 124.4 17.2201 124.64 16.4001C124.88 15.5801 125.08 14.9001 125.28 14.2701C125.48 13.6401 125.59 13.1501 125.71 12.7701L125.84 12.2101H125.9L126.09 12.7701C126.21 13.1501 126.34 13.6501 126.52 14.2701C126.7 14.8901 126.9 15.5901 127.09 16.4001C127.28 17.2101 127.53 18.0301 127.77 18.8401L135.98 44.4501H146.97L131.26 0.630127Z" fill="white"/>
<path d="M192.6 0.630127L192.48 44.5701H182.48V32.9501C182.48 28.1301 182.61 24.4401 182.8 21.8701C182.947 20.5823 183.007 19.286 182.98 17.9901H182.87L182.37 18.8701C182.06 19.4301 181.68 20.1201 181.31 20.8701C180.94 21.6201 180.55 22.3701 180.18 23.1201C179.81 23.8701 179.55 24.4401 179.36 24.7501L174.61 33.6401H169.41L164.65 24.7501C164.53 24.4401 164.28 23.8701 163.9 23.1201L162.81 20.9501C162.43 20.2001 162.06 19.5101 161.74 18.9501L161.24 18.0701H161.12C161.094 19.3461 161.154 20.6223 161.3 21.8901C161.49 24.4601 161.62 28.1501 161.62 32.9701V44.5501H151.62V0.750137H161.26L168.87 14.0201C169.856 15.6946 170.731 17.4316 171.49 19.2201C171.644 19.7419 171.855 20.2449 172.12 20.7201H172.18L172.31 20.3501C172.45 19.9427 172.617 19.5452 172.81 19.1601C173.06 18.5901 173.37 17.9001 173.81 17.0301C174.25 16.1601 174.81 15.0901 175.5 13.9001L183.01 0.630127H192.6Z" fill="white"/>
<path d="M199.49 22.8502C199.444 19.6375 199.952 16.4408 200.99 13.4002C201.892 10.7445 203.317 8.29632 205.18 6.2002C206.958 4.23674 209.137 2.67822 211.57 1.6302C214.059 0.54664 216.746 -0.00839546 219.46 0.0002075C222.21 -0.0123204 224.934 0.542562 227.46 1.6302C229.891 2.6759 232.068 4.23485 233.84 6.2002C235.71 8.29304 237.139 10.742 238.04 13.4002C240.04 19.521 240.04 26.1194 238.04 32.2402C237.139 34.8984 235.71 37.3474 233.84 39.4402C232.065 41.4025 229.889 42.9609 227.46 44.0102C222.369 46.0303 216.695 46.0088 211.62 43.9502C209.195 42.8928 207.035 41.3076 205.3 39.3102C203.476 37.1958 202.074 34.7518 201.17 32.1102C200.132 29.0899 199.621 25.9136 199.66 22.7202L199.49 22.8502ZM203.31 22.7202C203.275 25.4643 203.697 28.195 204.56 30.8002C205.289 33.0207 206.436 35.0811 207.94 36.8702C209.356 38.5231 211.131 39.8299 213.13 40.6902C215.212 41.5634 217.447 42.0132 219.705 42.0132C221.963 42.0132 224.198 41.5634 226.28 40.6902C228.282 39.8077 230.057 38.4808 231.47 36.8102C232.974 34.9954 234.121 32.912 234.85 30.6702C235.711 28.0918 236.136 25.3883 236.11 22.6702C236.162 19.8903 235.76 17.1206 234.92 14.4702C234.199 12.2671 233.051 10.2281 231.54 8.47021C230.104 6.8526 228.328 5.57211 226.34 4.72021C224.27 3.84892 222.046 3.40009 219.8 3.40009C217.554 3.40009 215.33 3.84892 213.26 4.72021C211.293 5.57349 209.54 6.85455 208.13 8.47021C206.616 10.2257 205.467 12.2654 204.75 14.4702C203.908 17.079 203.506 19.8096 203.56 22.5502L203.31 22.7202Z" fill="white"/>
<path d="M275.6 41.0701V44.4501H250.31V0.630127H253.87V41.0701H275.6Z" fill="white"/>
<path d="M284.49 44.4501V0.630127H288.05V44.4501H284.49Z" fill="white"/>
<path d="M334.87 0.630127L317.78 44.4501H314.15L297.15 0.69014H300.87L313.77 34.0601C314.02 34.7401 314.27 35.4901 314.52 36.2501C314.77 37.0101 315.02 37.6901 315.21 38.3101C315.4 38.9301 315.58 39.4401 315.71 39.8101L315.96 40.3801H316.08L316.27 39.7501C316.4 39.3801 316.58 38.8801 316.77 38.2501C316.96 37.6201 317.21 36.9301 317.46 36.1801C317.71 35.4301 317.96 34.6801 318.21 33.9901L331.11 0.630127H334.87Z" fill="white"/>
<path d="M369.99 41.0701V44.4501H343.99V0.630127H369.59V4.01013H347.59V19.3401H365.11V22.6601H347.58V41.0701H369.99Z" fill="white"/>
<path d="M380.94 44.4501V0.630127H384.5V44.4501H380.94Z" fill="white"/>
<path d="M421.25 44.4503L411.61 27.3603C410.615 27.4836 409.613 27.5437 408.61 27.5403H401.16V44.4503H397.59V0.630301H408.67C410.817 0.600798 412.954 0.91822 415 1.5703C416.776 2.12275 418.417 3.03885 419.82 4.26031C421.134 5.45512 422.159 6.93213 422.82 8.58031C423.537 10.3699 423.897 12.2825 423.88 14.2103C423.988 16.994 423.2 19.7388 421.63 22.0403C420.028 24.1725 417.796 25.7468 415.25 26.5403L425.25 44.4503H421.25ZM408.98 24.3503H408.87C412.57 24.3503 415.38 23.4103 417.32 21.5403C418.302 20.5716 419.072 19.4088 419.58 18.1261C420.088 16.8434 420.323 15.4689 420.27 14.0903C420.353 12.7038 420.127 11.3161 419.609 10.0276C419.09 8.73911 418.291 7.5821 417.27 6.64031C415.27 4.88031 412.51 4.01031 408.95 4.01031H401.31V24.3503H408.98Z" fill="white"/>
<path d="M452.12 0.650146H448.81L431.47 44.4702H435.22L448.81 9.79015C449.31 8.53015 449.62 7.41016 449.93 6.41016C450.04 5.88326 450.232 5.37702 450.5 4.91016H450.56C450.816 5.38148 451.004 5.88641 451.12 6.41016C451.44 7.41016 451.75 8.53015 452.25 9.79015L465.71 44.4702H469.46L452.12 0.650146Z" fill="white"/>
</svg>
