<svg width="469" height="145" viewBox="0 0 469 145" fill="none" xmlns="http://www.w3.org/2000/svg">
<path d="M43.19 100.33C48.15 105.29 55.88 105.61 60.45 101.04C65.02 96.4698 64.7 88.7398 59.74 83.7798L21.25 45.2898C16.29 40.3298 8.55997 40.0098 3.98997 44.5798C-0.580025 49.1498 -0.260003 56.8798 4.7 61.8498L27.47 84.5698L43.19 100.33Z" fill="url(#paint0_linear_122_2837)"/>
<path d="M55.99 9.09986C51.42 4.52986 44.01 4.52986 39.44 9.09986L4.00002 44.5399C-0.47998 49.0199 -0.759951 56.0198 3.53005 60.6098L3.71004 60.7998L3.95003 61.0399C3.97003 61.0599 3.98002 61.0799 4.00002 61.0999C4.02002 61.1199 4.04002 61.1299 4.06002 61.1499L24.97 82.0299C13.71 70.7699 28.83 52.8199 28.83 52.8199L56.01 25.6399C60.56 21.0899 60.56 13.6699 55.99 9.09986Z" fill="url(#paint1_linear_122_2837)"/>
<path d="M81.87 49.9C77 45.03 69.34 44.78 64.77 49.35C60.2 53.92 60.44 61.58 65.32 66.45L103.1 104.23C107.97 109.1 115.63 109.35 120.2 104.78C124.77 100.21 124.53 92.55 119.65 87.68L97.3 65.38L81.87 49.9Z" fill="url(#paint2_linear_122_2837)"/>
<path d="M68.2 140.24C72.77 144.81 80.18 144.81 84.75 140.24L120.19 104.8C124.67 100.32 124.95 93.3201 120.66 88.7301L120.48 88.5401L120.24 88.3C120.22 88.28 120.21 88.2601 120.19 88.2401C120.17 88.2201 120.15 88.2101 120.13 88.1901L99.22 67.3101C110.48 78.5701 95.36 96.5201 95.36 96.5201L68.18 123.7C63.63 128.26 63.63 135.67 68.2 140.24Z" fill="url(#paint3_linear_122_2837)"/>
<path d="M80 0.439945C76.61 0.789945 73.72 3.06994 72.46 6.22994L69.34 14.0499C68.81 15.3699 69.46 16.8599 70.77 17.3799L76.98 19.8599C82.71 22.1499 88.64 20.0899 91 15.1799C94.39 8.15993 89.11 -0.510055 80 0.439945Z" fill="white"/>
<path d="M50.37 105.02C44.78 103.29 41.65 97.3598 43.38 91.7798L61.39 33.5098C63.12 27.9198 69.05 24.7898 74.63 26.5198C80.22 28.2498 83.35 34.1798 81.62 39.7598L63.61 98.0298C61.89 103.61 55.96 106.74 50.37 105.02Z" fill="white"/>
<path d="M188.38 57.2098V73.0999H140.85V1.83984H157.53V57.1299L188.38 57.2098Z" fill="white"/>
<path d="M197.94 73.0999V1.83984H214.64V73.0999H197.94Z" fill="white"/>
<path d="M277.23 57.2098V73.0999H229.7V1.83984H246.34V57.1299L277.23 57.2098Z" fill="white"/>
<path d="M286.81 73.0999V1.83984H303.49V73.0999H286.81Z" fill="white"/>
<path d="M354.3 1.83984H337L311.39 73.0999H329.1L342.34 31.4498C342.73 30.1298 343.15 28.8198 343.54 27.4798C343.93 26.1498 344.26 25.0399 344.58 24.0199C344.91 22.9999 345.08 22.1998 345.28 21.5798L345.49 20.6698H345.59L345.9 21.5798C346.1 22.1998 346.31 23.0099 346.6 24.0199C346.89 25.0299 347.22 26.1698 347.53 27.4798C347.84 28.7998 348.25 30.1298 348.64 31.4498L361.99 73.0999H379.86L354.3 1.83984Z" fill="white"/>
<path d="M454.05 1.83984L453.85 73.2998H437.59V54.3998C437.59 46.5598 437.8 40.5599 438.11 36.3799C438.35 34.2899 438.45 32.1799 438.4 30.0699H438.22L437.41 31.4998C436.91 32.4098 436.29 33.5298 435.69 34.7498C435.09 35.9698 434.45 37.1899 433.85 38.4099C433.25 39.6299 432.83 40.5598 432.52 41.0598L424.8 55.5198H416.34L408.6 41.0598C408.4 40.5598 408 39.6299 407.38 38.4099L405.61 34.8799C404.99 33.6599 404.39 32.5399 403.87 31.6299L403.06 30.1998H402.86C402.82 32.2698 402.91 34.3499 403.15 36.4099C403.46 40.5899 403.67 46.5898 403.67 54.4298V73.2599H387.41V2.02985H403.09L415.47 23.6098C417.07 26.3298 418.5 29.1599 419.73 32.0699C419.98 32.9199 420.32 33.7398 420.75 34.5098H420.85L421.06 33.9099C421.29 33.2499 421.56 32.5998 421.87 31.9698C422.28 31.0398 422.78 29.9198 423.5 28.5098C424.22 27.0998 425.13 25.3598 426.25 23.4198L438.46 1.83984H454.05Z" fill="white"/>
<path d="M136.23 116.7C136.17 112.75 136.8 108.82 138.07 105.08C139.18 101.82 140.93 98.8098 143.22 96.2298C145.41 93.8198 148.08 91.8998 151.08 90.6098C154.14 89.2798 157.44 88.5998 160.78 88.6098C164.16 88.5898 167.51 89.2798 170.61 90.6098C173.6 91.8998 176.27 93.8098 178.45 96.2298C180.75 98.7998 182.51 101.81 183.61 105.08C186.07 112.6 186.07 120.72 183.61 128.24C182.5 131.51 180.75 134.52 178.45 137.09C176.27 139.5 173.59 141.42 170.61 142.71C164.35 145.19 157.38 145.17 151.14 142.64C148.16 141.34 145.5 139.39 143.37 136.94C141.13 134.34 139.4 131.34 138.29 128.09C137.01 124.38 136.39 120.47 136.43 116.55L136.23 116.7ZM140.93 116.54C140.89 119.91 141.41 123.27 142.47 126.47C143.37 129.2 144.78 131.73 146.63 133.93C148.37 135.96 150.55 137.57 153.01 138.63C158.18 140.8 164 140.8 169.18 138.63C171.64 137.55 173.82 135.91 175.56 133.86C177.41 131.63 178.82 129.07 179.72 126.31C180.78 123.14 181.3 119.82 181.27 116.48C181.33 113.06 180.84 109.66 179.81 106.4C178.92 103.69 177.51 101.19 175.65 99.0198C173.88 97.0298 171.7 95.4598 169.26 94.4098C164.12 92.2498 158.32 92.2498 153.18 94.4098C150.76 95.4598 148.61 97.0298 146.87 99.0198C145.01 101.18 143.6 103.69 142.72 106.4C141.69 109.61 141.19 112.96 141.26 116.33L140.93 116.54Z" fill="white"/>
<path d="M229.8 139.1V143.25H198.71V89.3799H203.09V139.09H229.8V139.1Z" fill="white"/>
<path d="M240.72 143.25V89.3799H245.1V143.25H240.72Z" fill="white"/>
<path d="M302.65 89.3896L281.64 143.26H277.18L256.28 89.4696H260.85L276.71 130.49C277.02 131.33 277.32 132.25 277.63 133.18C277.94 134.11 278.24 134.95 278.48 135.71C278.71 136.47 278.93 137.1 279.09 137.55L279.4 138.25H279.55L279.78 137.48C279.94 137.03 280.16 136.41 280.39 135.64C280.62 134.87 280.93 134.02 281.24 133.1C281.55 132.18 281.85 131.26 282.16 130.41L298.02 89.3996H302.65V89.3896Z" fill="white"/>
<path d="M345.83 139.1V143.25H313.87V89.3799H345.34V93.5299H318.3V112.37H339.84V116.45H318.29V139.08H345.83V139.1Z" fill="white"/>
<path d="M359.29 143.25V89.3799H363.67V143.25H359.29Z" fill="white"/>
<path d="M408.84 143.25L396.99 122.24C395.77 122.39 394.53 122.47 393.3 122.46H384.14V143.25H379.75V89.3797H393.37C396.01 89.3397 398.64 89.7297 401.15 90.5397C403.33 91.2197 405.35 92.3497 407.08 93.8497C408.69 95.3197 409.96 97.1297 410.77 99.1597C411.65 101.36 412.09 103.71 412.07 106.08C412.2 109.5 411.23 112.88 409.3 115.71C407.33 118.33 404.59 120.27 401.46 121.24L413.75 143.26L408.84 143.25ZM393.76 118.55H393.62C398.17 118.55 401.62 117.39 404.01 115.1C406.45 112.69 407.77 109.37 407.64 105.94C407.85 102.49 406.49 99.1297 403.95 96.7797C401.49 94.6197 398.1 93.5497 393.72 93.5497H384.33V118.55H393.76Z" fill="white"/>
<path d="M446.79 89.4097H442.72L421.4 143.28H426.01L442.72 100.65C443.33 99.0997 443.72 97.7197 444.1 96.4997C444.24 95.8497 444.47 95.2297 444.8 94.6597H444.87C445.18 95.2397 445.42 95.8597 445.56 96.4997C445.95 97.7297 446.33 99.1097 446.95 100.65L463.5 143.28H468.11L446.79 89.4097Z" fill="white"/>
<defs>
<linearGradient id="paint0_linear_122_2837" x1="1.54182" y1="71.5477" x2="62.718" y2="69.0256" gradientUnits="userSpaceOnUse">
<stop stop-color="#3D008A"/>
<stop offset="1" stop-color="#AB4AFF"/>
</linearGradient>
<linearGradient id="paint1_linear_122_2837" x1="12.6029" y1="43.8575" x2="94.9504" y2="43.8575" gradientUnits="userSpaceOnUse">
<stop stop-color="#AB4AFF"/>
<stop offset="1" stop-color="#6C00F2"/>
</linearGradient>
<linearGradient id="paint2_linear_122_2837" x1="122.877" y1="78.0287" x2="62.2047" y2="79.9669" gradientUnits="userSpaceOnUse">
<stop offset="0.4626" stop-color="#EC1B69"/>
<stop offset="1" stop-color="#F05B57"/>
</linearGradient>
<linearGradient id="paint3_linear_122_2837" x1="111.589" y1="105.492" x2="29.2412" y2="105.492" gradientUnits="userSpaceOnUse">
<stop stop-color="#F05B57"/>
<stop offset="1" stop-color="#EC1B69"/>
</linearGradient>
</defs>
</svg>
