<svg width="137" height="226" viewBox="0 0 137 226" fill="none" xmlns="http://www.w3.org/2000/svg">
<g filter="url(#filter0_f_133_1329)">
<path d="M94 210L85.0356 141H48.3461L42 210H94Z" fill="url(#paint0_linear_133_1329)"/>
</g>
<path d="M131.386 165.034C132.596 162.944 132.906 159.964 131.876 156.684C132.806 161.404 131.926 163.984 131.386 165.034Z" fill="url(#paint1_linear_133_1329)"/>
<path d="M131.236 165.293C131.276 165.223 131.326 165.133 131.376 165.033C131.336 165.113 131.296 165.203 131.236 165.293Z" fill="url(#paint2_linear_133_1329)"/>
<path d="M82.516 104.724C83.676 110.634 86.136 119.034 90.146 125.444C96.776 136.044 106.216 149.173 106.506 149.593L106.516 149.603C111.076 151.313 115.926 150.244 118.956 149.194C120.786 148.554 121.946 147.924 121.946 147.924C121.946 147.924 118.056 135.073 108.006 121.593C102.956 114.823 97.016 108.753 92.066 104.403C92.036 104.383 92.016 104.363 91.996 104.343C91.946 104.283 91.876 104.233 91.816 104.173C91.776 104.143 91.746 104.114 91.716 104.084C91.676 104.054 91.646 104.033 91.626 104.003C91.576 103.963 91.536 103.923 91.496 103.893C91.486 103.883 91.4761 103.883 91.4761 103.873C91.4661 103.863 91.456 103.864 91.456 103.864C86.436 99.5135 82.566 97.0335 81.946 97.5435C81.566 97.8335 81.736 100.704 82.516 104.724Z" fill="url(#paint3_linear_133_1329)"/>
<path opacity="0.3" d="M82.516 104.723C83.676 110.633 86.136 119.033 90.146 125.443C96.776 136.043 106.216 149.173 106.506 149.593L106.516 149.603L118.956 149.193C120.786 148.553 121.946 147.923 121.946 147.923C121.946 147.923 118.056 135.073 108.006 121.593C102.956 114.823 97.016 108.753 92.066 104.403C94.916 106.973 106.936 118.223 111.626 128.843C116.956 140.923 104.266 138.303 97.9761 131.453C91.6861 124.603 82.676 104.703 82.676 104.703L82.516 104.723Z" fill="url(#paint4_linear_133_1329)"/>
<path d="M95.5861 117.123C96.4761 116.583 93.3161 111.623 91.7661 111.813C90.2161 112.003 94.8261 117.583 95.5861 117.123Z" fill="white"/>
<path d="M100.286 124.094C100.966 123.554 102.076 125.504 101.446 125.944C100.816 126.384 99.5261 124.714 100.286 124.094Z" fill="white"/>
<path d="M119.856 142.353C119.856 142.353 116.676 135.993 111.306 138.523C105.936 141.043 109.796 149.793 109.796 149.793C109.796 149.793 116.976 153.133 121.956 147.933C121.946 147.923 121.306 145.633 119.856 142.353Z" fill="url(#paint5_linear_133_1329)"/>
<path d="M109.856 153.044C111.386 156.684 121.856 168.194 126.526 168.004C128.416 167.924 129.966 167.044 131.006 165.614C131.006 165.614 131.006 165.614 131.006 165.604C131.046 165.574 131.126 165.474 131.236 165.294C131.736 164.454 132.896 161.854 131.866 156.684C131.866 156.684 131.866 156.674 131.856 156.664C130.956 152.194 125.726 146.384 122.526 143.174C122.516 143.164 122.516 143.164 122.516 143.164C121.206 141.844 120.236 140.974 120.056 140.814C120.036 140.794 120.026 140.784 120.026 140.784C120.026 140.784 113.126 138.014 109.916 141.234C107.336 143.814 108.326 149.404 109.856 153.044Z" fill="url(#paint6_linear_133_1329)"/>
<path d="M120.056 140.813C120.236 140.973 121.206 141.843 122.516 143.163C121.676 142.243 120.846 141.433 120.056 140.813Z" fill="url(#paint7_linear_133_1329)"/>
<path d="M49.9875 104.724C48.8275 110.634 46.3675 119.034 42.3575 125.444C35.7275 136.044 26.2875 149.173 25.9975 149.593L25.9875 149.604C21.4275 151.314 16.5775 150.244 13.5475 149.194C11.7175 148.554 10.5575 147.924 10.5575 147.924C10.5575 147.924 14.4475 135.073 24.4975 121.593C29.5475 114.823 35.4875 108.753 40.4375 104.403C40.4675 104.383 40.4875 104.363 40.5075 104.343C40.5575 104.283 40.6275 104.233 40.6875 104.173C40.7275 104.143 40.7575 104.114 40.7875 104.084C40.8275 104.054 40.8575 104.033 40.8775 104.003C40.9275 103.963 40.9675 103.923 41.0075 103.893C41.0175 103.883 41.0275 103.883 41.0275 103.873C41.0375 103.863 41.0475 103.864 41.0475 103.864C46.0675 99.5135 49.9375 97.0335 50.5575 97.5435C50.9375 97.8335 50.7675 100.704 49.9875 104.724Z" fill="url(#paint8_linear_133_1329)"/>
<path opacity="0.3" d="M49.9875 104.724C48.8275 110.634 46.3675 119.034 42.3575 125.444C35.7275 136.044 26.2875 149.174 25.9975 149.594L25.9875 149.604L13.5475 149.194C11.7175 148.554 10.5575 147.924 10.5575 147.924C10.5575 147.924 14.4475 135.074 24.4975 121.594C29.5475 114.824 35.4875 108.754 40.4375 104.404C37.5875 106.974 25.5675 118.224 20.8775 128.844C15.5475 140.924 28.2375 138.304 34.5275 131.454C40.8175 124.604 49.8275 104.704 49.8275 104.704L49.9875 104.724Z" fill="url(#paint9_linear_133_1329)"/>
<path d="M36.9175 117.124C36.0275 116.584 39.1875 111.624 40.7375 111.814C42.2875 112.004 37.6775 117.584 36.9175 117.124Z" fill="white"/>
<path d="M12.6475 142.344C12.6475 142.344 15.8275 135.984 21.1975 138.514C26.5675 141.034 22.7075 149.784 22.7075 149.784C22.7075 149.784 15.5275 153.124 10.5475 147.924C10.5575 147.914 11.1975 145.634 12.6475 142.344Z" fill="url(#paint10_linear_133_1329)"/>
<path d="M1.19751 165.173C1.22751 165.233 1.2575 165.283 1.2875 165.333C1.3375 165.403 1.38751 165.473 1.43751 165.543C1.46751 165.593 1.48752 165.613 1.48752 165.613C2.52752 167.043 4.07751 167.923 5.97751 168.003C10.6375 168.193 21.1175 156.683 22.6375 153.043C24.1675 149.403 25.1575 143.803 22.5875 141.223C20.5575 139.183 17.0275 139.553 14.7275 140.093C14.7275 140.093 14.7275 140.093 14.7175 140.103C13.3875 140.413 12.4675 140.783 12.4675 140.783C10.4175 142.393 8.12751 145.233 6.11751 148.073C3.05751 152.383 0.627516 156.683 0.627516 156.683C-0.352484 161.623 0.657508 164.213 1.19751 165.173Z" fill="url(#paint11_linear_133_1329)"/>
<path d="M1.19751 165.174C0.65751 164.214 -0.352482 161.624 0.627518 156.684C-0.422482 160.034 -0.10249 163.084 1.19751 165.174Z" fill="url(#paint12_linear_133_1329)"/>
<path d="M39.9475 148.358C41.8475 159.598 51.9175 167.098 66.3475 167.098C78.9075 167.098 89.5575 162.418 92.3675 152.098C95.1775 141.798 94.0875 122.738 90.3375 110.868C89.7775 109.098 89.0975 107.388 88.3175 105.768L88.3075 105.748C87.5975 104.278 86.8075 102.878 85.9375 101.568C85.9275 101.558 85.9275 101.548 85.9275 101.548C81.3475 94.6477 74.6375 90.1377 67.0475 90.1377C59.1475 90.1377 53.1075 93.3877 48.9975 98.1877C47.0875 100.418 45.5875 102.998 44.5175 105.728C43.2775 108.878 42.2375 112.218 41.4175 115.658C41.4175 115.678 41.4075 115.718 41.3975 115.758C38.7975 126.548 38.2475 138.318 39.9475 148.358Z" fill="url(#paint13_linear_133_1329)"/>
<path opacity="0.3" d="M39.9475 148.357C41.8475 159.597 51.9175 167.097 66.3475 167.097C78.9075 167.097 89.5575 162.417 92.3675 152.097C95.1775 141.797 94.0875 122.737 90.3375 110.867C89.7775 109.097 89.0975 107.387 88.3175 105.767L88.3075 105.747C88.3075 105.747 95.9075 130.947 89.8375 146.997C83.7575 163.047 55.4575 162.707 45.8775 152.047C36.7575 141.897 40.9775 118.057 41.3975 115.777C38.7975 126.547 38.2475 138.317 39.9475 148.357Z" fill="url(#paint14_linear_133_1329)"/>
<path d="M91.8275 141.688C89.6775 126.598 77.5775 116.368 64.1275 117.638C49.6375 119.008 41.8475 132.838 42.0475 144.708C42.2575 156.578 50.9275 165.848 66.4875 165.848C82.0475 165.848 93.8375 155.798 91.8275 141.688Z" fill="url(#paint15_linear_133_1329)"/>
<path d="M91.6875 142.938C89.5375 127.848 77.4375 117.618 63.9875 118.888C49.4975 120.258 41.7075 134.088 41.9075 145.958C42.1175 157.828 50.7875 167.098 66.3475 167.098C81.9075 167.098 93.6975 157.048 91.6875 142.938Z" fill="#33EFE7"/>
<path opacity="0.5" d="M48.9975 98.1977C52.0675 103.018 68.9975 105.828 78.7775 104.938C87.2975 104.158 85.9975 101.858 85.9375 101.568C85.9275 101.558 85.9275 101.548 85.9275 101.548C81.3475 94.6477 74.6375 90.1377 67.0475 90.1377C59.1575 90.1377 53.1075 93.3877 48.9975 98.1977Z" fill="url(#paint16_linear_133_1329)"/>
<path d="M55.0175 106.558C55.8075 106.818 55.8375 113.158 55.0175 114.188C54.1975 115.208 52.8675 114.898 52.4275 113.398C51.9875 111.898 53.8275 106.158 55.0175 106.558Z" fill="white"/>
<path opacity="0.6" d="M86.5475 133.358C83.9875 137.438 73.4775 135.268 61.6275 136.418C49.7775 137.578 47.7575 141.428 45.2575 140.648C42.7575 139.868 46.7075 122.028 64.4075 120.818C82.1175 119.618 87.1875 132.348 86.5475 133.358Z" fill="url(#paint17_linear_133_1329)"/>
<path opacity="0.6" d="M82.8975 158.787C82.8975 158.787 79.4275 164.837 66.4875 164.887C53.5475 164.937 48.2875 157.237 48.2875 157.237C48.2875 157.237 54.2575 161.127 62.7875 158.787C71.3175 156.447 79.7675 155.137 82.8975 158.787Z" fill="url(#paint18_linear_133_1329)"/>
<path d="M93.2357 11.0597C93.2357 11.0597 99.4857 5.65973 107.146 4.71973C107.146 4.71973 109.486 5.86973 112.146 14.2997C114.806 22.7297 109.856 39.3997 109.856 39.3997L93.2357 11.0597Z" fill="url(#paint19_linear_133_1329)"/>
<path d="M110.106 8.92973C109.407 7.33428 108.386 5.90082 107.106 4.71973C107.106 4.71973 100.806 10.5397 101.056 24.4197L102.906 26.3097L110.106 8.92973Z" fill="url(#paint20_linear_133_1329)"/>
<path d="M41.4757 11.0597C41.4757 11.0597 35.2157 5.65973 27.5657 4.71973C27.5657 4.71973 25.2257 5.86973 22.5157 14.2997C19.8057 22.7297 24.8057 39.3997 24.8057 39.3997L41.4757 11.0597Z" fill="url(#paint21_linear_133_1329)"/>
<path d="M27.5657 4.72012C31.5925 9.59891 33.7826 15.7343 33.7557 22.0601L31.3657 23.5701L24.3657 9.13012C24.3657 9.13012 26.7057 4.60012 27.5657 4.72012Z" fill="url(#paint22_linear_133_1329)"/>
<path d="M31.6257 22.8402C31.6257 22.8402 33.2657 13.7002 27.2557 6.99023C27.2557 6.99023 20.4657 10.1902 17.6457 22.0602C14.8257 33.9302 22.1557 41.0602 22.1557 41.0602L31.6257 22.8402Z" fill="url(#paint23_linear_133_1329)"/>
<path d="M103.116 22.8402C103.116 22.8402 101.466 13.7002 107.486 6.99023C107.486 6.99023 114.276 10.1902 117.086 22.0602C119.896 33.9302 112.586 41.0602 112.586 41.0602L103.116 22.8402Z" fill="url(#paint24_linear_133_1329)"/>
<path d="M23.2457 73.31C37.1957 92.88 102.796 91.43 111.336 75.6C116.906 65.26 116.336 49.72 110.936 35.42C103.936 16.65 88.6457 0 68.4357 0C44.6457 0 26.3657 23.7 20.8657 45.35C18.0757 56.31 18.5557 66.77 23.2457 73.31Z" fill="url(#paint25_linear_133_1329)"/>
<path d="M106.436 55.1996C103.316 68.5296 45.6557 69.9796 31.4957 57.8996C17.3357 45.8196 37.7257 2.89961 68.9657 4.77961C97.5357 6.48961 111.556 33.3596 106.436 55.1996Z" fill="#DFE3FB"/>
<path d="M106.736 53.5795C103.626 66.9095 45.9557 68.3595 31.7957 56.3095C17.6357 44.2595 38.0257 1.30954 69.2657 3.15954C97.8357 4.87954 111.856 31.7495 106.736 53.5795Z" fill="url(#paint26_linear_133_1329)"/>
<path style="mix-blend-mode:multiply" opacity="0.3" d="M23.2457 73.3099C37.1957 92.8799 102.796 91.4299 111.336 75.5999C116.906 65.2599 116.336 49.7199 110.936 35.4199C111.156 36.3099 116.626 56.3099 111.036 65.1599C105.306 74.1599 82.5957 72.9299 58.2257 71.8899C33.8557 70.8499 25.7957 67.3099 21.7057 60.4299C18.4857 55.0199 21.7057 43.0899 23.2557 38.2599L20.8657 45.3899C18.0757 56.3099 18.5557 66.7699 23.2457 73.3099Z" fill="url(#paint27_linear_133_1329)"/>
<path d="M41.4957 83.83C50.2495 86.2741 59.2786 87.5947 68.3657 87.76C81.9957 87.76 91.8257 86.21 97.3657 84.01C100.976 82.57 102.726 80.84 102.466 79.07C102.306 77.99 99.6357 77.07 95.4157 76.27C83.0357 74.03 57.4157 73.35 43.5957 75.44C42.4157 75.62 41.3057 75.82 40.3057 76.04L39.6957 76.19H39.5757C37.1957 76.77 35.5057 77.49 34.7557 78.36C34.5821 78.5587 34.4496 78.7898 34.3657 79.04C33.8457 80.75 36.8757 82.41 41.4957 83.83Z" fill="url(#paint28_linear_133_1329)"/>
<path style="mix-blend-mode:multiply" opacity="0.5" d="M41.4957 83.8297C44.4957 82.4997 63.6557 74.5097 79.1657 77.9797C96.0357 81.7697 97.3257 83.9797 97.3257 83.9797C100.936 82.5397 102.686 80.8097 102.426 79.0397C102.266 77.9597 99.5957 77.0397 95.3757 76.2397C82.9957 73.9997 57.3757 73.3197 43.5557 75.4097C42.1157 75.6697 40.8057 75.9197 39.6557 76.1597H39.5357C37.1557 76.7397 35.4657 77.4597 34.7157 78.3297C34.5421 78.5284 34.4096 78.7595 34.3257 79.0097C33.8457 80.7497 36.8757 82.4097 41.4957 83.8297Z" fill="url(#paint29_linear_133_1329)"/>
<path d="M40.2757 76.0397C43.4957 79.1297 58.9557 81.7897 67.7657 81.7797C83.5657 81.7797 93.1557 79.2697 95.3857 76.2697C81.9357 73.8297 52.8557 73.2397 40.2757 76.0397Z" fill="#35F1E4"/>
<path style="mix-blend-mode:multiply" opacity="0.5" d="M111.336 75.6401C108.996 73.1933 106.213 71.2118 103.136 69.8001C97.6957 67.2001 92.6957 65.1601 91.9257 63.0701C91.1557 60.9801 106.836 62.2101 106.836 62.2101L114.626 65.6001C114.626 65.6001 113.416 71.9001 111.336 75.6401Z" fill="url(#paint30_linear_133_1329)"/>
<path d="M117.726 26.3096C117.726 26.3096 113.726 28.9096 116.336 34.9396C116.336 34.9396 135.236 45.2296 134.146 56.4496C133.226 65.8096 107.146 61.2796 107.146 61.2796L106.216 64.3996C106.216 64.3996 128.396 68.7396 136.046 63.5196C136.046 63.5196 138.646 57.3396 132.196 46.1996C128.013 39.1267 123.167 32.4669 117.726 26.3096Z" fill="url(#paint31_linear_133_1329)"/>
<path d="M110.426 60.3997C112.806 63.0897 107.756 66.0297 103.606 66.4897C98.9458 66.9897 90.6758 65.1497 91.1758 60.4897C91.6758 55.8297 104.846 54.0897 110.426 60.3997Z" fill="#F01586"/>
<path style="mix-blend-mode:screen" opacity="0.5" d="M94.4657 15.8004C95.1057 18.9804 86.4657 18.8004 74.7857 18.5204C60.7057 18.1404 46.5657 28.1004 38.3357 20.9504C36.9757 19.7704 50.4557 4.30038 66.7257 4.65038C82.9957 5.00038 93.9057 13.0404 94.4657 15.8004Z" fill="url(#paint32_linear_133_1329)"/>
<path style="mix-blend-mode:screen" opacity="0.5" d="M88.3657 59.36C89.1957 61.44 82.6457 63.51 66.5557 62.99C47.0857 62.36 42.9557 59.66 43.9157 58.91C44.4857 58.46 50.3157 60.91 66.3057 58.57C76.8557 57.04 87.4957 57.18 88.3657 59.36Z" fill="url(#paint33_linear_133_1329)"/>
<path d="M57.3057 2.80045C58.6857 3.12045 47.0857 9.25045 46.6157 8.52045C46.1457 7.79045 53.4757 1.91045 57.3057 2.80045Z" fill="white"/>
<path d="M35.0857 7.37962C36.2457 8.00962 36.1557 9.24962 33.7557 8.93962C31.3557 8.62962 30.0657 6.74962 30.3257 6.38962C30.5857 6.02962 33.7857 6.67962 35.0857 7.37962Z" fill="white"/>
<path style="mix-blend-mode:screen" opacity="0.72" d="M110.106 60.8902C110.256 61.6602 93.6257 61.8902 93.2357 58.8902C92.8457 55.8902 109.016 54.9602 110.106 60.8902Z" fill="url(#paint34_linear_133_1329)"/>
<path style="mix-blend-mode:screen" opacity="0.2" d="M106.026 49.1899C106.427 45.6551 106.384 42.0839 105.896 38.5599C105.106 32.4699 103.466 28.5599 102.496 29.0899C101.526 29.6199 101.666 35.5999 101.096 41.4799C100.626 46.0499 99.7657 50.3099 99.7657 50.3099C99.7657 50.3099 103.976 54.3699 106.026 49.1899Z" fill="url(#paint35_linear_133_1329)"/>
<path style="mix-blend-mode:screen" opacity="0.72" d="M22.0457 12.3604C22.0457 12.3604 24.2457 9.63039 27.2457 10.3604C30.2457 11.0904 30.4557 20.5504 28.6257 20.7804C26.7957 21.0104 26.0657 15.5504 24.6957 14.6904C23.5075 14.1604 22.1937 13.9767 20.9057 14.1604L22.0457 12.3604Z" fill="url(#paint36_linear_133_1329)"/>
<path style="mix-blend-mode:screen" opacity="0.72" d="M114.836 15.6498C114.33 15.2038 113.723 14.8893 113.067 14.7341C112.411 14.5788 111.727 14.5877 111.076 14.7598C108.476 15.1898 106.966 20.5298 105.636 19.9898C104.306 19.4498 105.286 10.7998 108.806 8.25977C108.806 8.30977 113.346 12.1298 114.836 15.6498Z" fill="url(#paint37_linear_133_1329)"/>
<path d="M118.376 28.25C118.376 28.25 127.576 38.6 127.016 39.31C126.456 40.02 117.816 29.31 118.376 28.25Z" fill="url(#paint38_linear_133_1329)"/>
<path d="M59.4657 35.0395C59.8257 35.5295 52.9157 31.0395 41.9257 35.3495C40.8357 35.7695 52.4057 25.3795 59.4657 35.0395Z" fill="url(#paint39_linear_133_1329)"/>
<path d="M77.9857 35.4702C77.6257 35.9602 84.5357 31.4702 95.5257 35.7802C96.6257 36.2002 85.0457 25.8102 77.9857 35.4702Z" fill="url(#paint40_linear_133_1329)"/>
<path d="M77.8958 43.9102C77.8958 43.9102 65.6558 44.5402 58.6758 42.9102C58.6758 42.9102 60.5058 54.3702 68.4558 54.2402C76.4058 54.1102 77.8958 43.9102 77.8958 43.9102Z" fill="#2F95CD"/>
<g filter="url(#filter1_f_133_1329)">
<path d="M100 112L88.0637 74H50.2782L36 112H100Z" fill="url(#paint41_linear_133_1329)"/>
</g>
<defs>
<filter id="filter0_f_133_1329" x="26" y="125" width="84" height="101" filterUnits="userSpaceOnUse" color-interpolation-filters="sRGB">
<feFlood flood-opacity="0" result="BackgroundImageFix"/>
<feBlend mode="normal" in="SourceGraphic" in2="BackgroundImageFix" result="shape"/>
<feGaussianBlur stdDeviation="8" result="effect1_foregroundBlur_133_1329"/>
</filter>
<filter id="filter1_f_133_1329" x="26" y="64" width="84" height="58" filterUnits="userSpaceOnUse" color-interpolation-filters="sRGB">
<feFlood flood-opacity="0" result="BackgroundImageFix"/>
<feBlend mode="normal" in="SourceGraphic" in2="BackgroundImageFix" result="shape"/>
<feGaussianBlur stdDeviation="5" result="effect1_foregroundBlur_133_1329"/>
</filter>
<linearGradient id="paint0_linear_133_1329" x1="63.9392" y1="141" x2="64.7198" y2="199.266" gradientUnits="userSpaceOnUse">
<stop stop-color="#34F0E6"/>
<stop offset="1" stop-color="#34F0E6" stop-opacity="0"/>
</linearGradient>
<linearGradient id="paint1_linear_133_1329" x1="132.25" y1="164.921" x2="131.225" y2="156.761" gradientUnits="userSpaceOnUse">
<stop stop-color="#CBC1F7"/>
<stop offset="1" stop-color="#E8DCF7"/>
</linearGradient>
<linearGradient id="paint2_linear_133_1329" x1="131.325" y1="165.279" x2="131.295" y2="165.041" gradientUnits="userSpaceOnUse">
<stop stop-color="#CBC1F7"/>
<stop offset="1" stop-color="#E8DCF7"/>
</linearGradient>
<linearGradient id="paint3_linear_133_1329" x1="110.284" y1="152.01" x2="91.5773" y2="94.3784" gradientUnits="userSpaceOnUse">
<stop stop-color="#CBC1F7"/>
<stop offset="1" stop-color="#E8DCF7"/>
</linearGradient>
<linearGradient id="paint4_linear_133_1329" x1="107.04" y1="151.468" x2="97.5527" y2="101.851" gradientUnits="userSpaceOnUse">
<stop stop-color="#9D68C2"/>
<stop offset="1" stop-color="#CCEDFF"/>
</linearGradient>
<linearGradient id="paint5_linear_133_1329" x1="115.007" y1="150.853" x2="115.477" y2="137.985" gradientUnits="userSpaceOnUse">
<stop stop-color="#BE9DEA"/>
<stop offset="1" stop-color="#9E8CEF"/>
</linearGradient>
<linearGradient id="paint6_linear_133_1329" x1="120.306" y1="168.003" x2="120.306" y2="139.673" gradientUnits="userSpaceOnUse">
<stop stop-color="#CBC1F7"/>
<stop offset="1" stop-color="#E8DCF7"/>
</linearGradient>
<linearGradient id="paint7_linear_133_1329" x1="121.454" y1="143.294" x2="121.125" y2="140.676" gradientUnits="userSpaceOnUse">
<stop stop-color="#CBC1F7"/>
<stop offset="1" stop-color="#E8DCF7"/>
</linearGradient>
<linearGradient id="paint8_linear_133_1329" x1="22.2196" y1="152.006" x2="40.9265" y2="94.3749" gradientUnits="userSpaceOnUse">
<stop stop-color="#CBC1F7"/>
<stop offset="1" stop-color="#E8DCF7"/>
</linearGradient>
<linearGradient id="paint9_linear_133_1329" x1="25.464" y1="151.466" x2="34.9511" y2="101.848" gradientUnits="userSpaceOnUse">
<stop stop-color="#9D68C2"/>
<stop offset="1" stop-color="#CCEDFF"/>
</linearGradient>
<linearGradient id="paint10_linear_133_1329" x1="17.4972" y1="150.849" x2="17.0265" y2="137.982" gradientUnits="userSpaceOnUse">
<stop stop-color="#BE9DEA"/>
<stop offset="1" stop-color="#9E8CEF"/>
</linearGradient>
<linearGradient id="paint11_linear_133_1329" x1="23.5646" y1="142.246" x2="0.231206" y2="164.357" gradientUnits="userSpaceOnUse">
<stop stop-color="#CBC1F7"/>
<stop offset="1" stop-color="#E8DCF7"/>
</linearGradient>
<linearGradient id="paint12_linear_133_1329" x1="1.09841" y1="165.183" x2="0.0398009" y2="156.755" gradientUnits="userSpaceOnUse">
<stop stop-color="#CBC1F7"/>
<stop offset="1" stop-color="#E8DCF7"/>
</linearGradient>
<linearGradient id="paint13_linear_133_1329" x1="70.3548" y1="166.963" x2="60.7778" y2="90.7105" gradientUnits="userSpaceOnUse">
<stop stop-color="#CBC1F7"/>
<stop offset="1" stop-color="#E8DCF7"/>
</linearGradient>
<linearGradient id="paint14_linear_133_1329" x1="66.4621" y1="167.093" x2="66.4621" y2="105.744" gradientUnits="userSpaceOnUse">
<stop stop-color="#9D68C2"/>
<stop offset="1" stop-color="#CCEDFF"/>
</linearGradient>
<linearGradient id="paint15_linear_133_1329" x1="67.0498" y1="165.846" x2="67.0498" y2="117.528" gradientUnits="userSpaceOnUse">
<stop stop-color="#BE9DEA"/>
<stop offset="1" stop-color="#9E8CEF"/>
</linearGradient>
<linearGradient id="paint16_linear_133_1329" x1="67.5199" y1="90.1377" x2="64.9975" y2="97.4775" gradientUnits="userSpaceOnUse">
<stop stop-color="#97C8C5"/>
<stop offset="1" stop-color="#97C8C5" stop-opacity="0"/>
</linearGradient>
<linearGradient id="paint17_linear_133_1329" x1="61.9975" y1="105.978" x2="67.9975" y2="136.978" gradientUnits="userSpaceOnUse">
<stop stop-color="white"/>
<stop offset="1" stop-color="white" stop-opacity="0"/>
</linearGradient>
<linearGradient id="paint18_linear_133_1329" x1="65.4975" y1="169.478" x2="65.4975" y2="158.478" gradientUnits="userSpaceOnUse">
<stop stop-color="white"/>
<stop offset="1" stop-color="white" stop-opacity="0"/>
</linearGradient>
<linearGradient id="paint19_linear_133_1329" x1="103.116" y1="39.3997" x2="103.116" y2="4.71973" gradientUnits="userSpaceOnUse">
<stop stop-color="#B9ACF4"/>
<stop offset="1" stop-color="#E1D1F5"/>
</linearGradient>
<linearGradient id="paint20_linear_133_1329" x1="105.596" y1="26.2997" x2="105.596" y2="4.71973" gradientUnits="userSpaceOnUse">
<stop stop-color="#BE9DEA"/>
<stop offset="1" stop-color="#9E8CEF"/>
</linearGradient>
<linearGradient id="paint21_linear_133_1329" x1="31.5957" y1="39.3997" x2="31.5957" y2="4.71973" gradientUnits="userSpaceOnUse">
<stop stop-color="#B9ACF4"/>
<stop offset="1" stop-color="#E1D1F5"/>
</linearGradient>
<linearGradient id="paint22_linear_133_1329" x1="29.0757" y1="23.5701" x2="29.0757" y2="4.72012" gradientUnits="userSpaceOnUse">
<stop stop-color="#BE9DEA"/>
<stop offset="1" stop-color="#9E8CEF"/>
</linearGradient>
<linearGradient id="paint23_linear_133_1329" x1="24.3857" y1="41.0602" x2="24.3857" y2="6.99023" gradientUnits="userSpaceOnUse">
<stop stop-color="#45FFCD"/>
<stop offset="1" stop-color="#22E0FF"/>
</linearGradient>
<linearGradient id="paint24_linear_133_1329" x1="110.316" y1="41.0602" x2="110.316" y2="6.99023" gradientUnits="userSpaceOnUse">
<stop stop-color="#45FFCD"/>
<stop offset="1" stop-color="#22E0FF"/>
</linearGradient>
<linearGradient id="paint25_linear_133_1329" x1="71.0957" y1="88.58" x2="60.0657" y2="0.81" gradientUnits="userSpaceOnUse">
<stop stop-color="#CBC1F7"/>
<stop offset="1" stop-color="#E8DCF7"/>
</linearGradient>
<linearGradient id="paint26_linear_133_1329" x1="67.4957" y1="64.5195" x2="67.4957" y2="3.09954" gradientUnits="userSpaceOnUse">
<stop stop-color="#0665BD"/>
<stop offset="1" stop-color="#1A1F77"/>
</linearGradient>
<linearGradient id="paint27_linear_133_1329" x1="67.1957" y1="87.7699" x2="67.1957" y2="35.4499" gradientUnits="userSpaceOnUse">
<stop stop-color="#9D68C2"/>
<stop offset="1" stop-color="#CCEDFF"/>
</linearGradient>
<linearGradient id="paint28_linear_133_1329" x1="102.456" y1="80.97" x2="34.2757" y2="80.97" gradientUnits="userSpaceOnUse">
<stop stop-color="#8879EA"/>
<stop offset="1" stop-color="#9E8CEF"/>
</linearGradient>
<linearGradient id="paint29_linear_133_1329" x1="68.3657" y1="84.0097" x2="68.3657" y2="74.1797" gradientUnits="userSpaceOnUse">
<stop stop-color="#8DA4E5"/>
<stop offset="1" stop-color="#755CBB"/>
</linearGradient>
<linearGradient id="paint30_linear_133_1329" x1="103.266" y1="75.6401" x2="103.266" y2="61.8501" gradientUnits="userSpaceOnUse">
<stop stop-color="#8DA4E5"/>
<stop offset="1" stop-color="#755CBB"/>
</linearGradient>
<linearGradient id="paint31_linear_133_1329" x1="121.986" y1="66.6296" x2="116.936" y2="26.3996" gradientUnits="userSpaceOnUse">
<stop stop-color="#BE9DEA"/>
<stop offset="1" stop-color="#9E8CEF"/>
</linearGradient>
<linearGradient id="paint32_linear_133_1329" x1="94.4957" y1="14.0904" x2="38.2357" y2="14.0904" gradientUnits="userSpaceOnUse">
<stop/>
<stop offset="1" stop-color="#6A9BFF"/>
</linearGradient>
<linearGradient id="paint33_linear_133_1329" x1="88.4357" y1="60.31" x2="43.7857" y2="60.31" gradientUnits="userSpaceOnUse">
<stop/>
<stop offset="1" stop-color="#6A9BFF"/>
</linearGradient>
<linearGradient id="paint34_linear_133_1329" x1="101.666" y1="61.3802" x2="101.666" y2="56.5602" gradientUnits="userSpaceOnUse">
<stop stop-color="#D4E2FF"/>
<stop offset="1"/>
</linearGradient>
<linearGradient id="paint35_linear_133_1329" x1="103.378" y1="51.8101" x2="101.821" y2="29.0934" gradientUnits="userSpaceOnUse">
<stop/>
<stop offset="1" stop-color="#00E3FF"/>
</linearGradient>
<linearGradient id="paint36_linear_133_1329" x1="29.8057" y1="15.5104" x2="20.9357" y2="15.5104" gradientUnits="userSpaceOnUse">
<stop/>
<stop offset="1" stop-color="#D4E2FF"/>
</linearGradient>
<linearGradient id="paint37_linear_133_1329" x1="114.836" y1="14.1398" x2="105.066" y2="14.1398" gradientUnits="userSpaceOnUse">
<stop stop-color="#D4E2FF"/>
<stop offset="1"/>
</linearGradient>
<linearGradient id="paint38_linear_133_1329" x1="122.995" y1="39.5434" x2="122.77" y2="28.2834" gradientUnits="userSpaceOnUse">
<stop stop-color="#CBC1F7"/>
<stop offset="1" stop-color="#E8DCF7"/>
</linearGradient>
<linearGradient id="paint39_linear_133_1329" x1="50.9455" y1="36.7246" x2="49.8629" y2="31.108" gradientUnits="userSpaceOnUse">
<stop stop-color="#45FFCD"/>
<stop offset="1" stop-color="#22E0FF"/>
</linearGradient>
<linearGradient id="paint40_linear_133_1329" x1="86.1791" y1="36.8729" x2="87.2659" y2="31.2673" gradientUnits="userSpaceOnUse">
<stop stop-color="#45FFCD"/>
<stop offset="1" stop-color="#22E0FF"/>
</linearGradient>
<linearGradient id="paint41_linear_133_1329" x1="65.5124" y1="74" x2="61.0998" y2="114.526" gradientUnits="userSpaceOnUse">
<stop stop-color="#34F0E6"/>
<stop offset="1" stop-color="#34F0E6" stop-opacity="0"/>
</linearGradient>
</defs>
</svg>
