<svg width="94" height="156" viewBox="0 0 134 196" fill="none" xmlns="http://www.w3.org/2000/svg">
<path d="M34 195.276L53.4909 150.276H77.8545L101 195.276H34Z" fill="url(#paint0_linear_123_2898)"/>
<path d="M2.11148 160.556C0.901482 158.466 0.59148 155.486 1.62148 152.206C0.69148 156.926 1.57148 159.506 2.11148 160.556Z" fill="url(#paint1_linear_123_2898)"/>
<path d="M2.26146 160.816C2.22146 160.746 2.17146 160.656 2.12146 160.556C2.16146 160.636 2.20146 160.726 2.26146 160.816Z" fill="url(#paint2_linear_123_2898)"/>
<path d="M50.9815 100.246C49.8215 106.156 47.3614 114.556 43.3514 120.966C36.7214 131.566 27.2814 144.696 26.9914 145.116L26.9815 145.126C22.4215 146.836 17.5715 145.766 14.5415 144.716C12.7115 144.076 11.5515 143.446 11.5515 143.446C11.5515 143.446 15.4414 130.596 25.4914 117.116C30.5414 110.346 36.4815 104.276 41.4314 99.926C41.4614 99.906 41.4814 99.886 41.5014 99.866C41.5514 99.806 41.6214 99.756 41.6814 99.696C41.7214 99.666 41.7514 99.636 41.7814 99.606C41.8214 99.576 41.8515 99.556 41.8715 99.526C41.9215 99.486 41.9614 99.446 42.0014 99.416C42.0114 99.406 42.0214 99.406 42.0214 99.396C42.0314 99.386 42.0415 99.386 42.0415 99.386C47.0615 95.036 50.9315 92.556 51.5515 93.066C51.9315 93.356 51.7615 96.226 50.9815 100.246Z" fill="url(#paint3_linear_123_2898)"/>
<path opacity="0.3" d="M50.9815 100.246C49.8215 106.156 47.3614 114.556 43.3514 120.966C36.7214 131.566 27.2814 144.696 26.9914 145.116L26.9815 145.126L14.5415 144.716C12.7115 144.076 11.5515 143.446 11.5515 143.446C11.5515 143.446 15.4414 130.596 25.4914 117.116C30.5414 110.346 36.4815 104.276 41.4314 99.9258C38.5814 102.496 26.5615 113.746 21.8715 124.366C16.5415 136.446 29.2314 133.826 35.5214 126.976C41.8114 120.126 50.8214 100.226 50.8214 100.226L50.9815 100.246Z" fill="url(#paint4_linear_123_2898)"/>
<path d="M37.9114 112.645C37.0214 112.105 40.1814 107.145 41.7314 107.335C43.2814 107.525 38.6714 113.105 37.9114 112.645Z" fill="white"/>
<path d="M33.2114 119.616C32.5314 119.076 31.4214 121.026 32.0514 121.466C32.6814 121.906 33.9714 120.236 33.2114 119.616Z" fill="white"/>
<path d="M13.6414 137.876C13.6414 137.876 16.8214 131.516 22.1914 134.046C27.5614 136.566 23.7014 145.316 23.7014 145.316C23.7014 145.316 16.5214 148.656 11.5414 143.456C11.5514 143.446 12.1914 141.156 13.6414 137.876Z" fill="url(#paint5_linear_123_2898)"/>
<path d="M23.6415 148.566C22.1115 152.206 11.6415 163.716 6.97146 163.526C5.08146 163.446 3.53146 162.566 2.49146 161.136C2.49146 161.136 2.49146 161.136 2.49146 161.126C2.45146 161.096 2.37146 160.996 2.26146 160.816C1.76146 159.976 0.601455 157.376 1.63146 152.206C1.63146 152.206 1.63145 152.196 1.64145 152.186C2.54145 147.716 7.77146 141.906 10.9715 138.696C10.9815 138.686 10.9815 138.686 10.9815 138.686C12.2915 137.366 13.2615 136.496 13.4415 136.336C13.4615 136.316 13.4715 136.306 13.4715 136.306C13.4715 136.306 20.3715 133.536 23.5815 136.756C26.1615 139.336 25.1715 144.926 23.6415 148.566Z" fill="url(#paint6_linear_123_2898)"/>
<path d="M13.4414 136.336C13.2614 136.496 12.2914 137.366 10.9814 138.686C11.8214 137.766 12.6514 136.956 13.4414 136.336Z" fill="url(#paint7_linear_123_2898)"/>
<path d="M83.51 100.246C84.67 106.156 87.13 114.556 91.14 120.966C97.77 131.566 107.21 144.696 107.5 145.116L107.51 145.126C112.07 146.836 116.92 145.766 119.95 144.716C121.78 144.076 122.94 143.446 122.94 143.446C122.94 143.446 119.05 130.596 109 117.116C103.95 110.346 98.01 104.276 93.06 99.926C93.03 99.906 93.01 99.886 92.99 99.866C92.94 99.806 92.87 99.756 92.81 99.696C92.77 99.666 92.74 99.636 92.71 99.606C92.67 99.576 92.64 99.556 92.62 99.526C92.57 99.486 92.53 99.446 92.49 99.416C92.48 99.406 92.47 99.406 92.47 99.396C92.46 99.386 92.45 99.386 92.45 99.386C87.43 95.036 83.56 92.556 82.94 93.066C82.56 93.356 82.73 96.226 83.51 100.246Z" fill="url(#paint8_linear_123_2898)"/>
<path opacity="0.3" d="M83.51 100.247C84.67 106.157 87.13 114.557 91.14 120.967C97.77 131.567 107.21 144.697 107.5 145.117L107.51 145.127L119.95 144.717C121.78 144.077 122.94 143.447 122.94 143.447C122.94 143.447 119.05 130.597 109 117.117C103.95 110.347 98.01 104.277 93.06 99.9268C95.91 102.497 107.93 113.747 112.62 124.367C117.95 136.447 105.26 133.827 98.97 126.977C92.68 120.127 83.67 100.227 83.67 100.227L83.51 100.247Z" fill="url(#paint9_linear_123_2898)"/>
<path d="M96.58 112.646C97.47 112.106 94.31 107.146 92.76 107.336C91.21 107.526 95.82 113.106 96.58 112.646Z" fill="white"/>
<path d="M120.85 137.866C120.85 137.866 117.67 131.506 112.3 134.036C106.93 136.556 110.79 145.306 110.79 145.306C110.79 145.306 117.97 148.646 122.95 143.446C122.94 143.436 122.3 141.156 120.85 137.866Z" fill="url(#paint10_linear_123_2898)"/>
<path d="M132.3 160.696C132.27 160.756 132.24 160.806 132.21 160.856C132.16 160.926 132.11 160.996 132.06 161.066C132.03 161.116 132.01 161.136 132.01 161.136C130.97 162.566 129.42 163.446 127.52 163.526C122.86 163.716 112.38 152.206 110.86 148.566C109.33 144.926 108.34 139.326 110.91 136.746C112.94 134.706 116.47 135.076 118.77 135.616C118.77 135.616 118.77 135.616 118.78 135.626C120.11 135.936 121.03 136.306 121.03 136.306C123.08 137.916 125.37 140.756 127.38 143.596C130.44 147.906 132.87 152.206 132.87 152.206C133.85 157.146 132.84 159.736 132.3 160.696Z" fill="url(#paint11_linear_123_2898)"/>
<path d="M132.3 160.696C132.84 159.736 133.85 157.146 132.87 152.206C133.92 155.556 133.6 158.606 132.3 160.696Z" fill="url(#paint12_linear_123_2898)"/>
<path d="M93.55 143.88C91.65 155.12 81.58 162.62 67.15 162.62C54.59 162.62 43.94 157.94 41.13 147.62C38.32 137.32 39.41 118.26 43.16 106.39C43.72 104.62 44.4 102.91 45.18 101.29L45.19 101.27C45.9 99.8002 46.69 98.4001 47.56 97.0901C47.57 97.0801 47.57 97.0702 47.57 97.0702C52.15 90.1702 58.86 85.6602 66.45 85.6602C74.35 85.6602 80.39 88.9102 84.5 93.7102C86.41 95.9402 87.91 98.5202 88.98 101.25C90.22 104.4 91.26 107.74 92.08 111.18C92.08 111.2 92.09 111.24 92.1 111.28C94.7 122.07 95.25 133.84 93.55 143.88Z" fill="url(#paint13_linear_123_2898)"/>
<path opacity="0.3" d="M93.55 143.88C91.65 155.12 81.58 162.62 67.15 162.62C54.59 162.62 43.94 157.94 41.13 147.62C38.32 137.32 39.41 118.26 43.16 106.39C43.72 104.62 44.4 102.91 45.18 101.29L45.19 101.27C45.19 101.27 37.59 126.47 43.66 142.52C49.74 158.57 78.04 158.23 87.62 147.57C96.74 137.42 92.52 113.58 92.1 111.3C94.7 122.07 95.25 133.84 93.55 143.88Z" fill="url(#paint14_linear_123_2898)"/>
<path d="M41.67 137.21C43.82 122.12 55.92 111.89 69.37 113.16C83.86 114.53 91.65 128.36 91.45 140.23C91.24 152.1 82.57 161.37 67.01 161.37C51.45 161.37 39.66 151.32 41.67 137.21Z" fill="url(#paint15_linear_123_2898)"/>
<path d="M41.81 138.46C43.96 123.37 56.06 113.14 69.51 114.41C84 115.78 91.79 129.61 91.59 141.48C91.38 153.35 82.71 162.62 67.15 162.62C51.59 162.62 39.8 152.57 41.81 138.46Z" fill="url(#paint16_radial_123_2898)"/>
<path opacity="0.5" d="M84.5 93.7202C81.43 98.5402 64.5 101.35 54.72 100.46C46.2 99.6802 47.5 97.3801 47.56 97.0901C47.57 97.0801 47.57 97.0702 47.57 97.0702C52.15 90.1702 58.86 85.6602 66.45 85.6602C74.34 85.6602 80.39 88.9102 84.5 93.7202Z" fill="url(#paint17_linear_123_2898)"/>
<path d="M78.48 102.08C77.69 102.34 77.66 108.68 78.48 109.71C79.3 110.73 80.63 110.42 81.07 108.92C81.51 107.42 79.67 101.68 78.48 102.08Z" fill="white"/>
<path opacity="0.6" d="M46.95 128.88C49.51 132.96 60.02 130.79 71.87 131.94C83.72 133.1 85.74 136.95 88.24 136.17C90.74 135.39 86.79 117.55 69.09 116.34C51.38 115.14 46.31 127.87 46.95 128.88Z" fill="url(#paint18_linear_123_2898)"/>
<path opacity="0.6" d="M50.6 154.31C50.6 154.31 54.07 160.36 67.01 160.41C79.95 160.46 85.21 152.76 85.21 152.76C85.21 152.76 79.24 156.65 70.71 154.31C62.18 151.97 53.73 150.66 50.6 154.31Z" fill="url(#paint19_linear_123_2898)"/>
<path d="M47 106L59.2182 68H74.4909L89 106H47Z" fill="url(#paint20_linear_123_2898)"/>
<path d="M94.22 11.0497C94.22 11.0497 100.47 5.64973 108.13 4.71973C108.13 4.71973 110.47 5.86973 113.18 14.2997C115.89 22.7297 110.89 39.3997 110.89 39.3997L94.22 11.0497Z" fill="url(#paint21_linear_123_2898)"/>
<path d="M108.13 4.71035C108.13 4.71035 101.94 11.3504 101.94 22.0504L104.34 23.5603L111.32 9.12035C111.31 9.12035 109 4.59035 108.13 4.71035Z" fill="url(#paint22_linear_123_2898)"/>
<path d="M104.11 22.8305C104.11 22.8305 102.46 13.6905 108.48 6.98047C108.48 6.98047 115.27 10.1805 118.09 22.0505C120.9 33.9205 113.58 41.0505 113.58 41.0505L104.11 22.8305Z" fill="url(#paint23_linear_123_2898)"/>
<path d="M100.61 7.36977C99.45 7.98977 99.55 9.23977 101.94 8.92977C104.33 8.61977 105.63 6.73976 105.37 6.37976C105.11 6.00976 101.91 6.66977 100.61 7.36977Z" fill="white"/>
<path d="M41.75 12.4003C41.75 12.4003 35.5 7.00031 27.84 6.07031C27.84 6.07031 25.5 7.22031 22.79 15.6503C20.08 24.0803 25.08 40.7503 25.08 40.7503L41.75 12.4003Z" fill="url(#paint24_linear_123_2898)"/>
<path d="M27.84 6.07013C27.84 6.07013 34.03 12.7101 34.03 23.4101L31.63 24.9201L24.65 10.4801C24.66 10.4701 26.98 5.94013 27.84 6.07013Z" fill="url(#paint25_linear_123_2898)"/>
<path d="M31.87 24.1801C31.87 24.1801 33.52 15.0401 27.5 8.33008C27.5 8.33008 20.71 11.5301 17.89 23.4001C15.08 35.2701 23.18 43.1701 23.18 43.1701L31.87 24.1801Z" fill="url(#paint26_linear_123_2898)"/>
<path d="M35.36 8.72044C36.52 9.34044 36.42 10.5904 34.03 10.2804C31.64 9.97043 30.34 8.09044 30.6 7.73044C30.86 7.37044 34.07 8.02044 35.36 8.72044Z" fill="white"/>
<path d="M24.18 70.19C33.76 92.29 105.47 85.4 114.04 67.24C123.41 47.38 101.86 -1.69004 67.5 0.599956C38.46 2.53996 11.86 41.78 24.18 70.19Z" fill="url(#paint27_linear_123_2898)"/>
<path d="M28.13 64.77C37.29 82.9 99.89 79.9 109.03 63.24C116.79 49.09 98.46 5.99996 67.01 7.52996C35.57 9.06996 19.34 47.38 28.13 64.77Z" fill="url(#paint28_linear_123_2898)"/>
<path d="M77.62 4.71003C76.97 5.49003 84.57 8.79003 85.59 8.33003C86.6 7.87003 79.81 2.10003 77.62 4.71003Z" fill="white"/>
<path opacity="0.1" d="M39.17 25.6904C38.45 30.0104 46.63 29.5204 59.72 29.0804C75.44 28.5604 91.24 42.1004 100.44 32.3804C101.96 30.7804 86.9 9.76042 68.73 10.2304C50.55 10.7104 39.8 21.9404 39.17 25.6904Z" fill="url(#paint29_linear_123_2898)"/>
<path opacity="0.1" d="M47.27 70.7501C46.44 73.8801 52.99 77.0101 69.08 76.2201C88.54 75.2701 92.67 71.1901 91.72 70.0601C91.15 69.3801 85.32 73.0501 69.33 69.5501C58.78 67.2301 48.15 67.4501 47.27 70.7501Z" fill="url(#paint30_linear_123_2898)"/>
<path opacity="0.1" d="M29.88 61.0203C29.88 61.0203 29.2 56.4803 30 50.3903C30.8 44.3003 32.43 40.3703 33.41 40.9203C34.38 41.4703 34.23 47.4403 34.81 53.3103C35.26 57.8803 36.14 62.1803 36.14 62.1803C36.14 62.1803 31.93 66.2103 29.88 61.0203Z" fill="url(#paint31_linear_123_2898)"/>
<path opacity="0.5" d="M31.22 77.6502C31.22 77.6502 32.19 76.6002 37.38 73.5502C40.86 71.5002 44.52 69.0802 45.04 68.1902C45.81 66.1002 30.13 67.3302 30.13 67.3302L24.17 70.1902C24.18 70.1902 26.55 74.8702 31.22 77.6502Z" fill="url(#paint32_linear_123_2898)"/>
<path d="M19.24 31.4199C19.24 31.4199 23.29 34.0199 20.63 40.0499C20.63 40.0499 1.73002 50.3399 2.83002 61.5599C3.74002 70.9199 29.85 66.3899 29.85 66.3899L30.79 69.5099C30.79 69.5099 8.61001 73.8499 0.960014 68.6299C0.960014 68.6299 -1.63998 62.4499 4.81002 51.3099C11.27 40.1699 19.24 31.4199 19.24 31.4199Z" fill="url(#paint33_linear_123_2898)"/>
<path d="M26.55 65.5199C24.17 68.2099 29.22 71.1599 33.37 71.6099C38.03 72.1199 46.3 70.2699 45.8 65.5799C45.3 60.8899 32.13 59.2099 26.55 65.5199Z" fill="url(#paint34_linear_123_2898)"/>
<path opacity="0.7" d="M26.86 66.0104C26.72 66.7804 43.35 66.9604 43.74 64.0204C44.13 61.0904 27.96 60.0804 26.86 66.0104Z" fill="url(#paint35_linear_123_2898)"/>
<path opacity="0.6" d="M113.99 12.3399C113.99 12.3399 111.79 9.60988 108.78 10.3399C105.78 11.0699 105.58 20.5299 107.37 20.7599C109.17 20.9899 109.93 15.5299 111.3 14.6699C112.68 13.8099 115.08 14.1399 115.08 14.1399L113.99 12.3399Z" fill="url(#paint36_linear_123_2898)"/>
<path opacity="0.72" d="M20.41 16.3697C20.41 16.3697 21.57 15.0597 24.17 15.4797C26.77 15.9097 28.27 21.2497 29.61 20.7097C30.94 20.1697 29.97 11.5197 26.44 8.96973C26.45 8.97973 21.91 12.8497 20.41 16.3697Z" fill="url(#paint37_linear_123_2898)"/>
<path d="M15.62 37.4902C15.62 37.4902 6.58 47.9802 7.16 48.7102C7.72 49.4402 16.18 38.5502 15.62 37.4902Z" fill="url(#paint38_linear_123_2898)"/>
<path d="M77.57 41.9102C77.21 42.4002 84.12 37.9502 95.11 42.2202C96.2 42.6402 84.63 32.2402 77.57 41.9102Z" fill="url(#paint39_linear_123_2898)"/>
<path d="M59.06 42.3399C59.42 42.8299 52.51 38.3799 41.52 42.6499C40.43 43.0699 52 32.6699 59.06 42.3399Z" fill="url(#paint40_linear_123_2898)"/>
<path d="M59.15 50.7805C59.15 50.7805 71.39 51.4105 78.37 49.7705C78.37 49.7705 76.55 61.2205 68.59 61.1005C60.63 60.9705 59.15 50.7805 59.15 50.7805Z" fill="#2F95CD"/>
<defs>
<linearGradient id="paint0_linear_123_2898" x1="67.5" y1="150.276" x2="67" y2="188.276" gradientUnits="userSpaceOnUse">
<stop stop-color="#34F0E6"/>
<stop offset="1" stop-color="#34F0E6" stop-opacity="0"/>
</linearGradient>
<linearGradient id="paint1_linear_123_2898" x1="1.24758" y1="160.444" x2="2.27238" y2="152.284" gradientUnits="userSpaceOnUse">
<stop stop-color="#CBC1F7"/>
<stop offset="1" stop-color="#E8DCF7"/>
</linearGradient>
<linearGradient id="paint2_linear_123_2898" x1="2.17206" y1="160.802" x2="2.20206" y2="160.563" gradientUnits="userSpaceOnUse">
<stop stop-color="#CBC1F7"/>
<stop offset="1" stop-color="#E8DCF7"/>
</linearGradient>
<linearGradient id="paint3_linear_123_2898" x1="23.2134" y1="147.532" x2="41.9202" y2="89.9008" gradientUnits="userSpaceOnUse">
<stop stop-color="#CBC1F7"/>
<stop offset="1" stop-color="#E8DCF7"/>
</linearGradient>
<linearGradient id="paint4_linear_123_2898" x1="26.4577" y1="146.991" x2="35.9448" y2="97.3731" gradientUnits="userSpaceOnUse">
<stop stop-color="#9D68C2"/>
<stop offset="1" stop-color="#CCEDFF"/>
</linearGradient>
<linearGradient id="paint5_linear_123_2898" x1="18.4909" y1="146.375" x2="18.0201" y2="133.508" gradientUnits="userSpaceOnUse">
<stop stop-color="#BE9DEA"/>
<stop offset="1" stop-color="#9E8CEF"/>
</linearGradient>
<linearGradient id="paint6_linear_123_2898" x1="13.192" y1="163.525" x2="13.192" y2="135.195" gradientUnits="userSpaceOnUse">
<stop stop-color="#CBC1F7"/>
<stop offset="1" stop-color="#E8DCF7"/>
</linearGradient>
<linearGradient id="paint7_linear_123_2898" x1="12.0438" y1="138.817" x2="12.3726" y2="136.199" gradientUnits="userSpaceOnUse">
<stop stop-color="#CBC1F7"/>
<stop offset="1" stop-color="#E8DCF7"/>
</linearGradient>
<linearGradient id="paint8_linear_123_2898" x1="111.278" y1="147.529" x2="92.571" y2="89.8974" gradientUnits="userSpaceOnUse">
<stop stop-color="#CBC1F7"/>
<stop offset="1" stop-color="#E8DCF7"/>
</linearGradient>
<linearGradient id="paint9_linear_123_2898" x1="108.033" y1="146.988" x2="98.5464" y2="97.3705" gradientUnits="userSpaceOnUse">
<stop stop-color="#9D68C2"/>
<stop offset="1" stop-color="#CCEDFF"/>
</linearGradient>
<linearGradient id="paint10_linear_123_2898" x1="116" y1="146.372" x2="116.471" y2="133.505" gradientUnits="userSpaceOnUse">
<stop stop-color="#BE9DEA"/>
<stop offset="1" stop-color="#9E8CEF"/>
</linearGradient>
<linearGradient id="paint11_linear_123_2898" x1="109.933" y1="137.768" x2="133.266" y2="159.879" gradientUnits="userSpaceOnUse">
<stop stop-color="#CBC1F7"/>
<stop offset="1" stop-color="#E8DCF7"/>
</linearGradient>
<linearGradient id="paint12_linear_123_2898" x1="132.399" y1="160.706" x2="133.458" y2="152.277" gradientUnits="userSpaceOnUse">
<stop stop-color="#CBC1F7"/>
<stop offset="1" stop-color="#E8DCF7"/>
</linearGradient>
<linearGradient id="paint13_linear_123_2898" x1="63.1427" y1="162.486" x2="72.7197" y2="86.233" gradientUnits="userSpaceOnUse">
<stop stop-color="#CBC1F7"/>
<stop offset="1" stop-color="#E8DCF7"/>
</linearGradient>
<linearGradient id="paint14_linear_123_2898" x1="67.0354" y1="162.616" x2="67.0354" y2="101.267" gradientUnits="userSpaceOnUse">
<stop stop-color="#9D68C2"/>
<stop offset="1" stop-color="#CCEDFF"/>
</linearGradient>
<linearGradient id="paint15_linear_123_2898" x1="66.4477" y1="161.369" x2="66.4477" y2="113.051" gradientUnits="userSpaceOnUse">
<stop stop-color="#BE9DEA"/>
<stop offset="1" stop-color="#9E8CEF"/>
</linearGradient>
<radialGradient id="paint16_radial_123_2898" cx="0" cy="0" r="1" gradientUnits="userSpaceOnUse" gradientTransform="translate(68.0991 156.649) scale(38.5875 38.5875)">
<stop stop-color="#CE40E0"/>
<stop offset="1" stop-color="#DD1A8F"/>
</radialGradient>
<linearGradient id="paint17_linear_123_2898" x1="65.9776" y1="85.6602" x2="68.5" y2="93" gradientUnits="userSpaceOnUse">
<stop stop-color="#97C8C5"/>
<stop offset="1" stop-color="#97C8C5" stop-opacity="0"/>
</linearGradient>
<linearGradient id="paint18_linear_123_2898" x1="71.5" y1="101.5" x2="65.5" y2="132.5" gradientUnits="userSpaceOnUse">
<stop stop-color="white"/>
<stop offset="1" stop-color="white" stop-opacity="0"/>
</linearGradient>
<linearGradient id="paint19_linear_123_2898" x1="68" y1="165" x2="68" y2="154" gradientUnits="userSpaceOnUse">
<stop stop-color="white"/>
<stop offset="1" stop-color="white" stop-opacity="0"/>
</linearGradient>
<linearGradient id="paint20_linear_123_2898" x1="68" y1="68" x2="68" y2="101.407" gradientUnits="userSpaceOnUse">
<stop stop-color="#34F0E6"/>
<stop offset="1" stop-color="#34F0E6" stop-opacity="0"/>
</linearGradient>
<linearGradient id="paint21_linear_123_2898" x1="104.107" y1="39.388" x2="104.107" y2="4.71273" gradientUnits="userSpaceOnUse">
<stop stop-color="#B9ACF4"/>
<stop offset="1" stop-color="#E1D1F5"/>
</linearGradient>
<linearGradient id="paint22_linear_123_2898" x1="106.625" y1="23.5608" x2="106.625" y2="4.71075" gradientUnits="userSpaceOnUse">
<stop stop-color="#BE9DEA"/>
<stop offset="1" stop-color="#9E8CEF"/>
</linearGradient>
<linearGradient id="paint23_linear_123_2898" x1="111.311" y1="41.0479" x2="111.311" y2="6.97827" gradientUnits="userSpaceOnUse">
<stop stop-color="#45FFCD"/>
<stop offset="1" stop-color="#22E0FF"/>
</linearGradient>
<linearGradient id="paint24_linear_123_2898" x1="31.8676" y1="40.7408" x2="31.8676" y2="6.06561" gradientUnits="userSpaceOnUse">
<stop stop-color="#B9ACF4"/>
<stop offset="1" stop-color="#E1D1F5"/>
</linearGradient>
<linearGradient id="paint25_linear_123_2898" x1="29.3493" y1="24.9129" x2="29.3493" y2="6.06283" gradientUnits="userSpaceOnUse">
<stop stop-color="#BE9DEA"/>
<stop offset="1" stop-color="#9E8CEF"/>
</linearGradient>
<linearGradient id="paint26_linear_123_2898" x1="24.6883" y1="43.1688" x2="24.6883" y2="8.33018" gradientUnits="userSpaceOnUse">
<stop stop-color="#45FFCD"/>
<stop offset="1" stop-color="#22E0FF"/>
</linearGradient>
<linearGradient id="paint27_linear_123_2898" x1="64.8807" y1="85.1767" x2="75.4573" y2="0.965155" gradientUnits="userSpaceOnUse">
<stop stop-color="#CBC1F7"/>
<stop offset="1" stop-color="#E8DCF7"/>
</linearGradient>
<linearGradient id="paint28_linear_123_2898" x1="68.2862" y1="77.1111" x2="68.2862" y2="7.49586" gradientUnits="userSpaceOnUse">
<stop stop-color="#0665BD"/>
<stop offset="1" stop-color="#1A1F77"/>
</linearGradient>
<linearGradient id="paint29_linear_123_2898" x1="39.1279" y1="23.0656" x2="100.538" y2="23.0656" gradientUnits="userSpaceOnUse">
<stop stop-color="white" stop-opacity="0.913043"/>
<stop offset="1" stop-color="white" stop-opacity="0"/>
</linearGradient>
<linearGradient id="paint30_linear_123_2898" x1="47.2035" y1="72.1759" x2="91.8529" y2="72.1759" gradientUnits="userSpaceOnUse">
<stop stop-color="white"/>
<stop offset="1" stop-color="#F0F0F0" stop-opacity="0"/>
</linearGradient>
<linearGradient id="paint31_linear_123_2898" x1="32.5204" y1="63.6503" x2="34.0783" y2="40.9273" gradientUnits="userSpaceOnUse">
<stop stop-color="white" stop-opacity="0"/>
<stop offset="1" stop-color="white"/>
</linearGradient>
<linearGradient id="paint32_linear_123_2898" x1="34.6248" y1="77.6471" x2="34.6248" y2="66.972" gradientUnits="userSpaceOnUse">
<stop stop-color="#8DA4E5"/>
<stop offset="1" stop-color="#755CBB"/>
</linearGradient>
<linearGradient id="paint33_linear_123_2898" x1="14.9852" y1="71.7499" x2="20.0381" y2="31.5185" gradientUnits="userSpaceOnUse">
<stop stop-color="#BE9DEA"/>
<stop offset="1" stop-color="#9E8CEF"/>
</linearGradient>
<linearGradient id="paint34_linear_123_2898" x1="34.6048" y1="71.9887" x2="37.2041" y2="60.9497" gradientUnits="userSpaceOnUse">
<stop stop-color="#DD1A8F"/>
<stop offset="1" stop-color="#FE117E"/>
</linearGradient>
<linearGradient id="paint35_linear_123_2898" x1="36" y1="66" x2="35.3053" y2="61.6823" gradientUnits="userSpaceOnUse">
<stop stop-color="white" stop-opacity="0"/>
<stop offset="1" stop-color="#FDFDFD"/>
</linearGradient>
<linearGradient id="paint36_linear_123_2898" x1="106.229" y1="15.4845" x2="115.094" y2="15.4845" gradientUnits="userSpaceOnUse">
<stop stop-color="white"/>
<stop offset="1" stop-color="white" stop-opacity="0"/>
</linearGradient>
<linearGradient id="paint37_linear_123_2898" x1="20.4149" y1="14.8666" x2="30.1841" y2="14.8666" gradientUnits="userSpaceOnUse">
<stop stop-color="white"/>
<stop offset="1" stop-color="white" stop-opacity="0"/>
</linearGradient>
<linearGradient id="paint38_linear_123_2898" x1="11.3841" y1="48.7468" x2="11.3841" y2="37.4883" gradientUnits="userSpaceOnUse">
<stop stop-color="#CBC1F7"/>
<stop offset="1" stop-color="#E8DCF7"/>
</linearGradient>
<linearGradient id="paint39_linear_123_2898" x1="86.0825" y1="43.5895" x2="87.1653" y2="37.9733" gradientUnits="userSpaceOnUse">
<stop stop-color="#45FFCD"/>
<stop offset="1" stop-color="#22E0FF"/>
</linearGradient>
<linearGradient id="paint40_linear_123_2898" x1="50.549" y1="44.019" x2="49.4663" y2="38.4029" gradientUnits="userSpaceOnUse">
<stop stop-color="#45FFCD"/>
<stop offset="1" stop-color="#22E0FF"/>
</linearGradient>
</defs>
</svg>
