<svg width="133" height="220" viewBox="0 0 133 220" fill="none" xmlns="http://www.w3.org/2000/svg">
<g filter="url(#filter0_f_137_8959)">
<path d="M94 204L85.0356 135H48.3461L42 204H94Z" fill="url(#paint0_linear_137_8959)"/>
</g>
<path d="M131.386 159.034C132.596 156.944 132.906 153.964 131.876 150.684C132.806 155.404 131.926 157.984 131.386 159.034Z" fill="url(#paint1_linear_137_8959)"/>
<path d="M131.236 159.293C131.276 159.223 131.326 159.133 131.376 159.033C131.336 159.113 131.296 159.203 131.236 159.293Z" fill="url(#paint2_linear_137_8959)"/>
<path d="M82.516 98.7235C83.676 104.634 86.136 113.034 90.146 119.444C96.7761 130.044 106.216 143.174 106.506 143.593L106.516 143.603C111.076 145.313 115.926 144.244 118.956 143.194C120.786 142.554 121.946 141.924 121.946 141.924C121.946 141.924 118.056 129.073 108.006 115.593C102.956 108.823 97.016 102.753 92.066 98.4035C92.036 98.3835 92.016 98.3635 91.996 98.3435C91.946 98.2835 91.876 98.2335 91.816 98.1735C91.776 98.1435 91.746 98.1135 91.716 98.0835C91.676 98.0535 91.646 98.0335 91.626 98.0035C91.576 97.9635 91.536 97.9235 91.496 97.8935C91.486 97.8835 91.4761 97.8835 91.4761 97.8735C91.4661 97.8635 91.456 97.8635 91.456 97.8635C86.436 93.5135 82.566 91.0335 81.946 91.5435C81.566 91.8335 81.736 94.7035 82.516 98.7235Z" fill="url(#paint3_linear_137_8959)"/>
<path opacity="0.3" d="M82.516 98.7233C83.676 104.633 86.136 113.033 90.146 119.443C96.7761 130.043 106.216 143.173 106.506 143.593L106.516 143.603L118.956 143.193C120.786 142.553 121.946 141.923 121.946 141.923C121.946 141.923 118.056 129.073 108.006 115.593C102.956 108.823 97.016 102.753 92.066 98.4033C94.916 100.973 106.936 112.223 111.626 122.843C116.956 134.923 104.266 132.303 97.9761 125.453C91.6861 118.603 82.676 98.7033 82.676 98.7033L82.516 98.7233Z" fill="url(#paint4_linear_137_8959)"/>
<path d="M95.5861 111.123C96.4761 110.583 93.3161 105.623 91.7661 105.813C90.2161 106.003 94.8261 111.583 95.5861 111.123Z" fill="white"/>
<path d="M100.286 118.094C100.966 117.554 102.076 119.504 101.446 119.944C100.816 120.384 99.5261 118.714 100.286 118.094Z" fill="white"/>
<path d="M119.856 136.353C119.856 136.353 116.676 129.993 111.306 132.523C105.936 135.043 109.796 143.793 109.796 143.793C109.796 143.793 116.976 147.133 121.956 141.933C121.946 141.923 121.306 139.633 119.856 136.353Z" fill="url(#paint5_linear_137_8959)"/>
<path d="M109.856 147.044C111.386 150.684 121.856 162.194 126.526 162.004C128.416 161.924 129.966 161.044 131.006 159.614C131.006 159.614 131.006 159.614 131.006 159.604C131.046 159.574 131.126 159.474 131.236 159.294C131.736 158.454 132.896 155.854 131.866 150.684C131.866 150.684 131.866 150.674 131.856 150.664C130.956 146.194 125.726 140.384 122.526 137.174C122.516 137.164 122.516 137.164 122.516 137.164C121.206 135.844 120.236 134.974 120.056 134.814C120.036 134.794 120.026 134.784 120.026 134.784C120.026 134.784 113.126 132.014 109.916 135.234C107.336 137.814 108.326 143.404 109.856 147.044Z" fill="url(#paint6_linear_137_8959)"/>
<path d="M120.056 134.813C120.236 134.973 121.206 135.843 122.516 137.163C121.676 136.243 120.846 135.433 120.056 134.813Z" fill="url(#paint7_linear_137_8959)"/>
<path d="M49.9875 98.7235C48.8275 104.634 46.3675 113.034 42.3575 119.444C35.7275 130.044 26.2875 143.174 25.9975 143.593L25.9875 143.604C21.4275 145.314 16.5775 144.244 13.5475 143.194C11.7175 142.554 10.5575 141.924 10.5575 141.924C10.5575 141.924 14.4475 129.073 24.4975 115.593C29.5475 108.823 35.4875 102.753 40.4375 98.4035C40.4675 98.3835 40.4875 98.3635 40.5075 98.3435C40.5575 98.2835 40.6275 98.2335 40.6875 98.1735C40.7275 98.1435 40.7575 98.1135 40.7875 98.0835C40.8275 98.0535 40.8575 98.0335 40.8775 98.0035C40.9275 97.9635 40.9675 97.9235 41.0075 97.8935C41.0175 97.8835 41.0275 97.8835 41.0275 97.8735C41.0375 97.8635 41.0475 97.8635 41.0475 97.8635C46.0675 93.5135 49.9375 91.0335 50.5575 91.5435C50.9375 91.8335 50.7675 94.7035 49.9875 98.7235Z" fill="url(#paint8_linear_137_8959)"/>
<path opacity="0.3" d="M49.9875 98.7243C48.8275 104.634 46.3675 113.034 42.3575 119.444C35.7275 130.044 26.2875 143.174 25.9975 143.594L25.9875 143.604L13.5475 143.194C11.7175 142.554 10.5575 141.924 10.5575 141.924C10.5575 141.924 14.4475 129.074 24.4975 115.594C29.5475 108.824 35.4875 102.754 40.4375 98.4043C37.5875 100.974 25.5675 112.224 20.8775 122.844C15.5475 134.924 28.2375 132.304 34.5275 125.454C40.8175 118.604 49.8275 98.7043 49.8275 98.7043L49.9875 98.7243Z" fill="url(#paint9_linear_137_8959)"/>
<path d="M36.9175 111.124C36.0275 110.584 39.1875 105.624 40.7375 105.814C42.2875 106.004 37.6775 111.584 36.9175 111.124Z" fill="white"/>
<path d="M12.6475 136.344C12.6475 136.344 15.8275 129.984 21.1975 132.514C26.5675 135.034 22.7075 143.784 22.7075 143.784C22.7075 143.784 15.5275 147.124 10.5475 141.924C10.5575 141.914 11.1975 139.634 12.6475 136.344Z" fill="url(#paint10_linear_137_8959)"/>
<path d="M1.19751 159.173C1.22751 159.233 1.2575 159.283 1.2875 159.333C1.3375 159.403 1.38751 159.473 1.43751 159.543C1.46751 159.593 1.48752 159.613 1.48752 159.613C2.52752 161.043 4.07751 161.923 5.97751 162.003C10.6375 162.193 21.1175 150.683 22.6375 147.043C24.1675 143.403 25.1575 137.803 22.5875 135.223C20.5575 133.183 17.0275 133.553 14.7275 134.093C14.7275 134.093 14.7275 134.093 14.7175 134.103C13.3875 134.413 12.4675 134.783 12.4675 134.783C10.4175 136.393 8.12751 139.233 6.11751 142.073C3.05751 146.383 0.627516 150.683 0.627516 150.683C-0.352484 155.623 0.657507 158.213 1.19751 159.173Z" fill="url(#paint11_linear_137_8959)"/>
<path d="M1.19751 159.174C0.65751 158.214 -0.352482 155.624 0.627518 150.684C-0.422482 154.034 -0.10249 157.084 1.19751 159.174Z" fill="url(#paint12_linear_137_8959)"/>
<path d="M39.9475 142.358C41.8475 153.598 51.9175 161.098 66.3475 161.098C78.9075 161.098 89.5575 156.418 92.3675 146.098C95.1775 135.798 94.0875 116.738 90.3375 104.868C89.7775 103.098 89.0975 101.388 88.3175 99.7677L88.3075 99.7477C87.5975 98.2777 86.8075 96.8777 85.9375 95.5677C85.9275 95.5577 85.9275 95.5477 85.9275 95.5477C81.3475 88.6477 74.6375 84.1377 67.0475 84.1377C59.1475 84.1377 53.1075 87.3877 48.9975 92.1877C47.0875 94.4177 45.5875 96.9977 44.5175 99.7277C43.2775 102.878 42.2375 106.218 41.4175 109.658C41.4175 109.678 41.4075 109.718 41.3975 109.758C38.7975 120.548 38.2475 132.318 39.9475 142.358Z" fill="url(#paint13_linear_137_8959)"/>
<path opacity="0.3" d="M39.9475 142.357C41.8475 153.597 51.9175 161.097 66.3475 161.097C78.9075 161.097 89.5575 156.417 92.3675 146.097C95.1775 135.797 94.0875 116.737 90.3375 104.867C89.7775 103.097 89.0975 101.387 88.3175 99.7671L88.3075 99.7471C88.3075 99.7471 95.9075 124.947 89.8375 140.997C83.7575 157.047 55.4575 156.707 45.8775 146.047C36.7575 135.897 40.9775 112.057 41.3975 109.777C38.7975 120.547 38.2475 132.317 39.9475 142.357Z" fill="url(#paint14_linear_137_8959)"/>
<path d="M91.8275 135.688C89.6775 120.598 77.5775 110.368 64.1275 111.638C49.6375 113.008 41.8475 126.838 42.0475 138.708C42.2575 150.578 50.9275 159.848 66.4875 159.848C82.0475 159.848 93.8375 149.798 91.8275 135.688Z" fill="url(#paint15_linear_137_8959)"/>
<path d="M91.6875 136.938C89.5375 121.848 77.4375 111.618 63.9875 112.888C49.4975 114.258 41.7075 128.088 41.9075 139.958C42.1175 151.828 50.7875 161.098 66.3475 161.098C81.9075 161.098 93.6975 151.048 91.6875 136.938Z" fill="#33EFE7"/>
<path opacity="0.5" d="M48.9975 92.1977C52.0675 97.0177 68.9975 99.8277 78.7775 98.9377C87.2975 98.1577 85.9975 95.8577 85.9375 95.5677C85.9275 95.5577 85.9275 95.5477 85.9275 95.5477C81.3475 88.6477 74.6375 84.1377 67.0475 84.1377C59.1575 84.1377 53.1075 87.3877 48.9975 92.1977Z" fill="url(#paint16_linear_137_8959)"/>
<path d="M55.0175 100.558C55.8075 100.818 55.8375 107.158 55.0175 108.188C54.1975 109.208 52.8675 108.898 52.4275 107.398C51.9875 105.898 53.8275 100.158 55.0175 100.558Z" fill="white"/>
<path opacity="0.6" d="M86.5475 127.358C83.9875 131.438 73.4775 129.268 61.6275 130.418C49.7775 131.578 47.7575 135.428 45.2575 134.648C42.7575 133.868 46.7075 116.028 64.4075 114.818C82.1175 113.618 87.1875 126.348 86.5475 127.358Z" fill="url(#paint17_linear_137_8959)"/>
<path opacity="0.6" d="M82.8975 152.787C82.8975 152.787 79.4275 158.837 66.4875 158.887C53.5475 158.937 48.2875 151.237 48.2875 151.237C48.2875 151.237 54.2575 155.127 62.7875 152.787C71.3175 150.447 79.7675 149.137 82.8975 152.787Z" fill="url(#paint18_linear_137_8959)"/>
<g filter="url(#filter1_f_137_8959)">
<path d="M100 106L88.0637 68H50.2782L36 106H100Z" fill="url(#paint19_linear_137_8959)"/>
</g>
<path d="M94.7781 10.5175C94.7781 10.5175 101.028 5.1175 108.688 4.1875C108.688 4.1875 111.028 5.3375 113.738 13.7675C116.448 22.1975 111.448 38.8675 111.448 38.8675L94.7781 10.5175Z" fill="url(#paint20_linear_137_8959)"/>
<path d="M108.688 4.18731C108.688 4.18731 102.498 10.8273 102.498 21.5273L104.898 23.0373L111.878 8.59731C111.868 8.59731 109.548 4.05731 108.688 4.18731Z" fill="url(#paint21_linear_137_8959)"/>
<path d="M104.658 22.307C104.658 22.307 103.008 13.167 109.028 6.45703C109.028 6.45703 115.818 9.65703 118.638 21.527C121.448 33.397 114.128 40.527 114.128 40.527L104.658 22.307Z" fill="url(#paint22_linear_137_8959)"/>
<path d="M101.168 6.8473C100.008 7.4673 100.108 8.7173 102.498 8.4073C104.888 8.0973 106.188 6.2173 105.928 5.8573C105.668 5.4873 102.458 6.1473 101.168 6.8473Z" fill="white"/>
<path d="M42.3081 11.8779C42.3081 11.8779 36.0581 6.47785 28.3981 5.54785C28.3981 5.54785 26.0581 6.69785 23.3481 15.1279C20.6381 23.5579 25.6381 40.2279 25.6381 40.2279L42.3081 11.8779Z" fill="url(#paint23_linear_137_8959)"/>
<path d="M28.398 5.5375C28.398 5.5375 34.588 12.1775 34.588 22.8775L32.198 24.3875L25.218 9.9475C25.218 9.9475 27.528 5.4175 28.398 5.5375Z" fill="url(#paint24_linear_137_8959)"/>
<path d="M32.4181 23.6576C32.4181 23.6576 34.0681 14.5176 28.0481 7.80762C28.0481 7.80762 21.258 11.0076 18.4381 22.8776C15.6281 34.7476 23.7281 42.6476 23.7281 42.6476L32.4181 23.6576Z" fill="url(#paint25_linear_137_8959)"/>
<path d="M35.918 8.19789C37.078 8.81789 36.978 10.0679 34.588 9.75789C32.198 9.44789 30.898 7.56789 31.158 7.20789C31.418 6.83789 34.618 7.49789 35.918 8.19789Z" fill="white"/>
<path d="M24.728 69.6675C34.308 91.7675 106.018 84.8775 114.588 66.7175C123.958 46.8575 102.408 -2.2125 68.0481 0.0774956C39.0181 2.0175 12.418 41.2575 24.728 69.6675Z" fill="url(#paint26_linear_137_8959)"/>
<path d="M28.688 66.5473C37.8479 84.6773 100.448 81.6773 109.588 65.0173C117.348 50.8673 99.018 7.7773 67.568 9.3073C36.118 10.8473 19.898 49.1473 28.688 66.5473Z" fill="url(#paint27_linear_137_8959)"/>
<path d="M96.648 45.1878C95.418 48.4878 78.908 48.1079 78.928 46.9179C79.028 40.3279 82.558 31.6678 89.148 31.7278C95.948 31.7878 98.948 39.0378 96.648 45.1878Z" fill="url(#paint28_linear_137_8959)"/>
<path d="M41.018 45.6277C42.438 48.8577 58.8981 47.5477 58.8081 46.3577C58.3381 39.7777 54.338 31.3377 47.758 31.7677C40.968 32.2077 38.378 39.6177 41.018 45.6277Z" fill="url(#paint29_linear_137_8959)"/>
<path d="M59.098 57.8276C56.618 58.4276 61.808 66.7176 70.138 66.7176C77.528 66.7176 81.698 58.1976 80.758 57.8276C79.818 57.4576 75.388 59.7476 69.218 59.7476C63.048 59.7476 60.138 57.5776 59.098 57.8276Z" fill="#2F95CD"/>
<path d="M78.178 4.18742C77.528 4.96742 85.128 8.26742 86.148 7.80742C87.158 7.33742 80.358 1.57742 78.178 4.18742Z" fill="white"/>
<path opacity="0.5" d="M39.728 27.4678C39.008 31.7878 47.188 31.2978 60.278 30.8578C75.998 30.3378 91.7981 43.8778 100.998 34.1578C102.518 32.5578 87.458 11.5378 69.288 12.0078C51.108 12.4778 40.348 23.7178 39.728 27.4678Z" fill="url(#paint30_linear_137_8959)" fill-opacity="0.5"/>
<path opacity="0.5" d="M47.8279 72.5171C46.9979 75.6471 53.5479 78.7771 69.6379 77.9871C89.0979 77.0371 93.2279 72.9571 92.2779 71.8271C91.7079 71.1471 85.8779 74.8171 69.8879 71.3171C59.3379 69.0071 48.6979 69.2271 47.8279 72.5171Z" fill="url(#paint31_linear_137_8959)" fill-opacity="0.5"/>
<path opacity="0.2" d="M30.438 62.7977C30.438 62.7977 29.758 58.2577 30.558 52.1677C31.358 46.0777 32.988 42.1477 33.968 42.6977C34.938 43.2477 34.788 49.2177 35.368 55.0877C35.818 59.6577 36.698 63.9577 36.698 63.9577C36.698 63.9577 32.478 67.9777 30.438 62.7977Z" fill="url(#paint32_linear_137_8959)" fill-opacity="0.59"/>
<path opacity="0.5" d="M31.778 77.117C31.778 77.117 32.748 76.067 37.938 73.017C41.418 70.967 45.078 68.547 45.598 67.657C46.368 65.567 30.688 66.797 30.688 66.797L24.728 69.657C24.728 69.667 27.098 74.347 31.778 77.117Z" fill="url(#paint33_linear_137_8959)"/>
<path d="M19.798 30.8975C19.798 30.8975 23.848 33.4975 21.188 39.5275C21.188 39.5275 2.28798 49.8175 3.38798 61.0375C4.29798 70.3975 30.408 65.8675 30.408 65.8675L31.348 68.9875C31.348 68.9875 9.16798 73.3275 1.51798 68.1075C1.51798 68.1075 -1.08198 61.9275 5.36802 50.7875C11.818 39.6475 19.798 30.8975 19.798 30.8975Z" fill="url(#paint34_linear_137_8959)"/>
<path d="M27.108 64.9975C24.728 67.6875 29.778 70.6375 33.928 71.0875C38.588 71.5975 46.858 69.7475 46.358 65.0575C45.858 60.3675 32.678 58.6875 27.108 64.9975Z" fill="url(#paint35_linear_137_8959)"/>
<path d="M27.4181 65.488C27.2781 66.258 43.9081 66.438 44.2981 63.498C44.6881 60.558 28.5081 59.558 27.4181 65.488Z" fill="url(#paint36_linear_137_8959)"/>
<path opacity="0.72" d="M114.538 11.8077C114.538 11.8077 112.338 9.07765 109.328 9.80765C106.328 10.5377 106.128 19.9977 107.918 20.2277C109.718 20.4577 110.478 14.9977 111.848 14.1377C113.228 13.2777 115.628 13.6076 115.628 13.6076L114.538 11.8077Z" fill="url(#paint37_linear_137_8959)" fill-opacity="0.5"/>
<path opacity="0.72" d="M20.968 15.8473C20.968 15.8473 22.128 14.5373 24.728 14.9573C27.328 15.3873 28.828 20.7273 30.168 20.1873C31.498 19.6473 30.528 10.9973 26.998 8.44727C26.998 8.45727 22.468 12.3273 20.968 15.8473Z" fill="url(#paint38_linear_137_8959)" fill-opacity="0.5"/>
<path d="M16.1681 36.9678C16.1681 36.9678 7.12804 47.4578 7.70804 48.1878C8.27804 48.9178 16.7381 38.0278 16.1681 36.9678Z" fill="url(#paint39_linear_137_8959)"/>
<defs>
<filter id="filter0_f_137_8959" x="26" y="119" width="84" height="101" filterUnits="userSpaceOnUse" color-interpolation-filters="sRGB">
<feFlood flood-opacity="0" result="BackgroundImageFix"/>
<feBlend mode="normal" in="SourceGraphic" in2="BackgroundImageFix" result="shape"/>
<feGaussianBlur stdDeviation="8" result="effect1_foregroundBlur_137_8959"/>
</filter>
<filter id="filter1_f_137_8959" x="26" y="58" width="84" height="58" filterUnits="userSpaceOnUse" color-interpolation-filters="sRGB">
<feFlood flood-opacity="0" result="BackgroundImageFix"/>
<feBlend mode="normal" in="SourceGraphic" in2="BackgroundImageFix" result="shape"/>
<feGaussianBlur stdDeviation="5" result="effect1_foregroundBlur_137_8959"/>
</filter>
<linearGradient id="paint0_linear_137_8959" x1="63.9392" y1="135" x2="64.7198" y2="193.266" gradientUnits="userSpaceOnUse">
<stop stop-color="#34F0E6"/>
<stop offset="1" stop-color="#34F0E6" stop-opacity="0"/>
</linearGradient>
<linearGradient id="paint1_linear_137_8959" x1="132.25" y1="158.921" x2="131.225" y2="150.761" gradientUnits="userSpaceOnUse">
<stop stop-color="#CBC1F7"/>
<stop offset="1" stop-color="#E8DCF7"/>
</linearGradient>
<linearGradient id="paint2_linear_137_8959" x1="131.325" y1="159.279" x2="131.295" y2="159.041" gradientUnits="userSpaceOnUse">
<stop stop-color="#CBC1F7"/>
<stop offset="1" stop-color="#E8DCF7"/>
</linearGradient>
<linearGradient id="paint3_linear_137_8959" x1="110.284" y1="146.01" x2="91.5773" y2="88.3784" gradientUnits="userSpaceOnUse">
<stop stop-color="#CBC1F7"/>
<stop offset="1" stop-color="#E8DCF7"/>
</linearGradient>
<linearGradient id="paint4_linear_137_8959" x1="107.04" y1="145.468" x2="97.5527" y2="95.8506" gradientUnits="userSpaceOnUse">
<stop stop-color="#9D68C2"/>
<stop offset="1" stop-color="#CCEDFF"/>
</linearGradient>
<linearGradient id="paint5_linear_137_8959" x1="115.007" y1="144.853" x2="115.477" y2="131.985" gradientUnits="userSpaceOnUse">
<stop stop-color="#BE9DEA"/>
<stop offset="1" stop-color="#9E8CEF"/>
</linearGradient>
<linearGradient id="paint6_linear_137_8959" x1="120.306" y1="162.003" x2="120.306" y2="133.673" gradientUnits="userSpaceOnUse">
<stop stop-color="#CBC1F7"/>
<stop offset="1" stop-color="#E8DCF7"/>
</linearGradient>
<linearGradient id="paint7_linear_137_8959" x1="121.454" y1="137.294" x2="121.125" y2="134.676" gradientUnits="userSpaceOnUse">
<stop stop-color="#CBC1F7"/>
<stop offset="1" stop-color="#E8DCF7"/>
</linearGradient>
<linearGradient id="paint8_linear_137_8959" x1="22.2196" y1="146.006" x2="40.9265" y2="88.3749" gradientUnits="userSpaceOnUse">
<stop stop-color="#CBC1F7"/>
<stop offset="1" stop-color="#E8DCF7"/>
</linearGradient>
<linearGradient id="paint9_linear_137_8959" x1="25.464" y1="145.466" x2="34.9511" y2="95.848" gradientUnits="userSpaceOnUse">
<stop stop-color="#9D68C2"/>
<stop offset="1" stop-color="#CCEDFF"/>
</linearGradient>
<linearGradient id="paint10_linear_137_8959" x1="17.4972" y1="144.849" x2="17.0265" y2="131.982" gradientUnits="userSpaceOnUse">
<stop stop-color="#BE9DEA"/>
<stop offset="1" stop-color="#9E8CEF"/>
</linearGradient>
<linearGradient id="paint11_linear_137_8959" x1="23.5646" y1="136.246" x2="0.231206" y2="158.357" gradientUnits="userSpaceOnUse">
<stop stop-color="#CBC1F7"/>
<stop offset="1" stop-color="#E8DCF7"/>
</linearGradient>
<linearGradient id="paint12_linear_137_8959" x1="1.09841" y1="159.183" x2="0.0398009" y2="150.755" gradientUnits="userSpaceOnUse">
<stop stop-color="#CBC1F7"/>
<stop offset="1" stop-color="#E8DCF7"/>
</linearGradient>
<linearGradient id="paint13_linear_137_8959" x1="70.3548" y1="160.963" x2="60.7778" y2="84.7105" gradientUnits="userSpaceOnUse">
<stop stop-color="#CBC1F7"/>
<stop offset="1" stop-color="#E8DCF7"/>
</linearGradient>
<linearGradient id="paint14_linear_137_8959" x1="66.4621" y1="161.093" x2="66.4621" y2="99.7443" gradientUnits="userSpaceOnUse">
<stop stop-color="#9D68C2"/>
<stop offset="1" stop-color="#CCEDFF"/>
</linearGradient>
<linearGradient id="paint15_linear_137_8959" x1="67.0498" y1="159.846" x2="67.0498" y2="111.528" gradientUnits="userSpaceOnUse">
<stop stop-color="#BE9DEA"/>
<stop offset="1" stop-color="#9E8CEF"/>
</linearGradient>
<linearGradient id="paint16_linear_137_8959" x1="67.5199" y1="84.1377" x2="64.9975" y2="91.4775" gradientUnits="userSpaceOnUse">
<stop stop-color="#97C8C5"/>
<stop offset="1" stop-color="#97C8C5" stop-opacity="0"/>
</linearGradient>
<linearGradient id="paint17_linear_137_8959" x1="61.9975" y1="99.9775" x2="67.9975" y2="130.978" gradientUnits="userSpaceOnUse">
<stop stop-color="white"/>
<stop offset="1" stop-color="white" stop-opacity="0"/>
</linearGradient>
<linearGradient id="paint18_linear_137_8959" x1="65.4975" y1="163.478" x2="65.4975" y2="152.478" gradientUnits="userSpaceOnUse">
<stop stop-color="white"/>
<stop offset="1" stop-color="white" stop-opacity="0"/>
</linearGradient>
<linearGradient id="paint19_linear_137_8959" x1="65.5124" y1="68" x2="61.0998" y2="108.526" gradientUnits="userSpaceOnUse">
<stop stop-color="#34F0E6"/>
<stop offset="1" stop-color="#34F0E6" stop-opacity="0"/>
</linearGradient>
<linearGradient id="paint20_linear_137_8959" x1="104.661" y1="38.8633" x2="104.661" y2="4.188" gradientUnits="userSpaceOnUse">
<stop stop-color="#B9ACF4"/>
<stop offset="1" stop-color="#E1D1F5"/>
</linearGradient>
<linearGradient id="paint21_linear_137_8959" x1="107.179" y1="23.0354" x2="107.179" y2="4.18521" gradientUnits="userSpaceOnUse">
<stop stop-color="#BE9DEA"/>
<stop offset="1" stop-color="#9E8CEF"/>
</linearGradient>
<linearGradient id="paint22_linear_137_8959" x1="111.865" y1="40.5219" x2="111.865" y2="6.45243" gradientUnits="userSpaceOnUse">
<stop stop-color="#45FFCD"/>
<stop offset="1" stop-color="#22E0FF"/>
</linearGradient>
<linearGradient id="paint23_linear_137_8959" x1="32.4215" y1="40.216" x2="32.4215" y2="5.54065" gradientUnits="userSpaceOnUse">
<stop stop-color="#B9ACF4"/>
<stop offset="1" stop-color="#E1D1F5"/>
</linearGradient>
<linearGradient id="paint24_linear_137_8959" x1="29.9033" y1="24.3878" x2="29.9033" y2="5.5377" gradientUnits="userSpaceOnUse">
<stop stop-color="#BE9DEA"/>
<stop offset="1" stop-color="#9E8CEF"/>
</linearGradient>
<linearGradient id="paint25_linear_137_8959" x1="25.2423" y1="42.6438" x2="25.2423" y2="7.80522" gradientUnits="userSpaceOnUse">
<stop stop-color="#45FFCD"/>
<stop offset="1" stop-color="#22E0FF"/>
</linearGradient>
<linearGradient id="paint26_linear_137_8959" x1="65.4346" y1="84.6517" x2="76.0112" y2="0.440196" gradientUnits="userSpaceOnUse">
<stop stop-color="#CBC1F7"/>
<stop offset="1" stop-color="#E8DCF7"/>
</linearGradient>
<linearGradient id="paint27_linear_137_8959" x1="68.8401" y1="78.8856" x2="68.8401" y2="9.27051" gradientUnits="userSpaceOnUse">
<stop stop-color="#0665BD"/>
<stop offset="1" stop-color="#1A1F77"/>
</linearGradient>
<linearGradient id="paint28_linear_137_8959" x1="87.548" y1="48.4328" x2="89.7862" y2="31.7412" gradientUnits="userSpaceOnUse">
<stop stop-color="#45FFCD"/>
<stop offset="1" stop-color="#22E0FF"/>
</linearGradient>
<linearGradient id="paint29_linear_137_8959" x1="50.2859" y1="48.3573" x2="47.1162" y2="31.8168" gradientUnits="userSpaceOnUse">
<stop stop-color="#45FFCD"/>
<stop offset="1" stop-color="#22E0FF"/>
</linearGradient>
<linearGradient id="paint30_linear_137_8959" x1="39.6817" y1="24.8402" x2="101.092" y2="24.8402" gradientUnits="userSpaceOnUse">
<stop stop-color="white"/>
<stop offset="1" stop-color="#6A9BFF" stop-opacity="0"/>
</linearGradient>
<linearGradient id="paint31_linear_137_8959" x1="47.7573" y1="73.9501" x2="92.4066" y2="73.9501" gradientUnits="userSpaceOnUse">
<stop stop-color="white"/>
<stop offset="1" stop-color="#6A9BFF" stop-opacity="0"/>
</linearGradient>
<linearGradient id="paint32_linear_137_8959" x1="33.0744" y1="65.4249" x2="34.6322" y2="42.7018" gradientUnits="userSpaceOnUse">
<stop stop-color="white"/>
<stop offset="1" stop-color="#00E3FF" stop-opacity="0"/>
</linearGradient>
<linearGradient id="paint33_linear_137_8959" x1="35.1788" y1="77.1214" x2="35.1788" y2="66.4463" gradientUnits="userSpaceOnUse">
<stop stop-color="#8DA4E5"/>
<stop offset="1" stop-color="#755CBB"/>
</linearGradient>
<linearGradient id="paint34_linear_137_8959" x1="15.539" y1="71.2251" x2="20.592" y2="30.9936" gradientUnits="userSpaceOnUse">
<stop stop-color="#BE9DEA"/>
<stop offset="1" stop-color="#9E8CEF"/>
</linearGradient>
<linearGradient id="paint35_linear_137_8959" x1="35.1588" y1="71.4638" x2="37.7581" y2="60.4248" gradientUnits="userSpaceOnUse">
<stop stop-color="#DD1A8F"/>
<stop offset="1" stop-color="#FE117E"/>
</linearGradient>
<linearGradient id="paint36_linear_137_8959" x1="35.8592" y1="65.9723" x2="35.8592" y2="61.1575" gradientUnits="userSpaceOnUse">
<stop stop-color="#D93DE3"/>
<stop offset="1" stop-color="#FF6DBA"/>
</linearGradient>
<linearGradient id="paint37_linear_137_8959" x1="106.783" y1="14.9598" x2="115.648" y2="14.9598" gradientUnits="userSpaceOnUse">
<stop stop-color="white"/>
<stop offset="1" stop-color="#D4E2FF"/>
</linearGradient>
<linearGradient id="paint38_linear_137_8959" x1="20.9689" y1="14.3417" x2="30.738" y2="14.3417" gradientUnits="userSpaceOnUse">
<stop stop-color="#D4E2FF"/>
<stop offset="1" stop-color="white"/>
</linearGradient>
<linearGradient id="paint39_linear_137_8959" x1="11.938" y1="48.2219" x2="11.938" y2="36.9634" gradientUnits="userSpaceOnUse">
<stop stop-color="#CBC1F7"/>
<stop offset="1" stop-color="#E8DCF7"/>
</linearGradient>
</defs>
</svg>
