<svg width="128" height="128" viewBox="0 0 128 128" fill="none" xmlns="http://www.w3.org/2000/svg">
<g clip-path="url(#clip0_201_125)">
<g filter="url(#filter0_d_201_125)">
<path fill-rule="evenodd" clip-rule="evenodd" d="M27.6576 15C20.609 15 15.395 21.1716 15.6277 27.8646C15.8507 34.2935 15.5609 42.6218 13.4641 49.4121C11.3624 56.224 7.8072 60.5295 2 61.0825V67.3552C7.8072 67.9091 11.3624 72.2147 13.4641 79.0256C15.5609 85.8159 15.8517 94.1441 15.6277 100.573C15.395 107.265 20.609 113.437 27.6576 113.437H99.8818C106.93 113.437 112.144 107.266 111.912 100.573C111.688 94.1441 111.978 85.8159 114.074 79.0256C116.177 72.2137 119.722 67.9091 125.53 67.3552V61.0825C119.722 60.5286 116.177 56.224 114.074 49.4121C111.978 42.6218 111.688 34.2935 111.912 27.8646C112.144 21.1716 106.93 15 99.8818 15H27.6576ZM85.1073 75.9406C85.1073 85.1561 78.231 90.7433 66.8199 90.7433H45.2986V38.3889H66.7084C76.2239 38.3889 82.4683 43.5411 82.4683 51.4505C82.4683 57.0015 78.2681 61.9721 72.9157 62.8428V63.133C80.2009 63.9314 85.1073 68.9745 85.1073 75.9406ZM64.7014 45.0285H53.6247V60.6659H62.9544C70.1653 60.6659 74.1423 57.7634 74.1423 52.575C74.1423 47.7133 70.7228 45.0285 64.7014 45.0285ZM53.6247 66.87V84.1037H65.1101C72.6185 84.1037 76.5955 81.0923 76.5955 75.4325C76.5955 69.7724 72.5068 66.87 64.6268 66.87H53.6247Z" fill="url(#paint0_linear_201_125)"/>
<path d="M15.6277 27.8646L15.7505 27.8604L15.7505 27.8604L15.6277 27.8646ZM13.4641 49.4121L13.3468 49.3758L13.3468 49.3759L13.4641 49.4121ZM2 61.0825L1.98836 60.9602L1.87717 60.9708V61.0825H2ZM2 67.3552H1.87717V67.4669L1.98834 67.4775L2 67.3552ZM13.4641 79.0256L13.3468 79.0618L13.3468 79.0618L13.4641 79.0256ZM15.6277 100.573L15.505 100.569L15.505 100.569L15.6277 100.573ZM111.912 100.573L112.034 100.569L112.034 100.569L111.912 100.573ZM114.074 79.0256L113.957 78.9894L113.957 78.9894L114.074 79.0256ZM125.53 67.3552L125.541 67.4775L125.652 67.4669V67.3552H125.53ZM125.53 61.0825H125.652V60.9708L125.541 60.9602L125.53 61.0825ZM114.074 49.4121L113.957 49.4483L113.957 49.4483L114.074 49.4121ZM111.912 27.8646L112.034 27.8689L112.034 27.8689L111.912 27.8646ZM45.2986 90.7433H45.1758V90.8662H45.2986V90.7433ZM45.2986 38.3889V38.2661H45.1758V38.3889H45.2986ZM72.9157 62.8428L72.896 62.7215L72.7929 62.7383V62.8428H72.9157ZM72.9157 63.133H72.7929V63.2431L72.9023 63.2551L72.9157 63.133ZM53.6247 45.0285V44.9057H53.5018V45.0285H53.6247ZM53.6247 60.6659H53.5018V60.7887H53.6247V60.6659ZM53.6247 84.1037H53.5018V84.2266H53.6247V84.1037ZM53.6247 66.87V66.7471H53.5018V66.87H53.6247ZM15.7505 27.8604C15.5199 21.2291 20.6859 15.1228 27.6576 15.1228V14.8772C20.532 14.8772 15.2701 21.114 15.505 27.8689L15.7505 27.8604ZM13.5815 49.4483C15.6845 42.6381 15.9736 34.2933 15.7505 27.8604L15.505 27.8689C15.7278 34.2937 15.4374 42.6055 13.3468 49.3758L13.5815 49.4483ZM2.01164 61.2047C7.89164 60.6449 11.4736 56.2802 13.5815 49.4483L13.3468 49.3759C11.2512 56.1678 7.72277 60.4142 1.98836 60.9602L2.01164 61.2047ZM2.12283 67.3552V61.0825H1.87717V67.3552H2.12283ZM13.5815 78.9894C11.4736 72.1585 7.89163 67.7938 2.01166 67.2329L1.98834 67.4775C7.72278 68.0244 11.2512 72.2708 13.3468 79.0618L13.5815 78.9894ZM15.7505 100.577C15.9745 94.1443 15.6845 85.7995 13.5815 78.9893L13.3468 79.0618C15.4374 85.8322 15.7288 94.144 15.505 100.569L15.7505 100.577ZM27.6576 113.314C20.6859 113.314 15.5199 107.208 15.7505 100.577L15.505 100.569C15.2701 107.323 20.5321 113.56 27.6576 113.56V113.314ZM99.8818 113.314H27.6576V113.56H99.8818V113.314ZM111.789 100.577C112.019 107.209 106.853 113.314 99.8818 113.314V113.56C107.007 113.56 112.269 107.324 112.034 100.569L111.789 100.577ZM113.957 78.9894C111.855 85.7995 111.565 94.1443 111.789 100.577L112.034 100.569C111.811 94.144 112.102 85.8322 114.192 79.0618L113.957 78.9894ZM125.518 67.2329C119.638 67.7938 116.066 72.1576 113.957 78.9894L114.192 79.0618C116.288 72.2697 119.807 68.0244 125.541 67.4775L125.518 67.2329ZM125.407 61.0825V67.3552H125.652V61.0825H125.407ZM113.957 49.4483C116.066 56.28 119.638 60.6439 125.518 61.2047L125.541 60.9602C119.807 60.4132 116.288 56.1679 114.192 49.3759L113.957 49.4483ZM111.789 27.8604C111.565 34.2933 111.855 42.6381 113.957 49.4483L114.192 49.3759C112.102 42.6055 111.811 34.2937 112.034 27.8689L111.789 27.8604ZM99.8818 15.1228C106.853 15.1228 112.019 21.2291 111.789 27.8604L112.034 27.8689C112.269 21.114 107.007 14.8772 99.8818 14.8772V15.1228ZM27.6576 15.1228H99.8818V14.8772H27.6576V15.1228ZM66.8199 90.8662C72.5439 90.8662 77.1463 89.465 80.3201 86.8932C83.4971 84.3189 85.2301 80.5817 85.2301 75.9406H84.9844C84.9844 80.515 83.2793 84.1792 80.1654 86.7024C77.0483 89.2281 72.507 90.6205 66.8199 90.6205V90.8662ZM45.2986 90.8662H66.8199V90.6205H45.2986V90.8662ZM45.1758 38.3889V90.7433H45.4214V38.3889H45.1758ZM66.7084 38.2661H45.2986V38.5118H66.7084V38.2661ZM82.5912 51.4505C82.5912 47.4608 81.0149 44.1601 78.235 41.8591C75.4573 39.5599 71.4874 38.2661 66.7084 38.2661V38.5118C71.445 38.5118 75.3549 39.794 78.0784 42.0483C80.7995 44.3007 82.3455 47.5309 82.3455 51.4505H82.5912ZM72.9354 62.964C78.3485 62.0834 82.5912 57.0605 82.5912 51.4505H82.3455C82.3455 56.9426 78.1877 61.8607 72.896 62.7215L72.9354 62.964ZM73.0385 63.133V62.8428H72.7929V63.133H73.0385ZM85.2301 75.9406C85.2301 68.9047 80.2692 63.8153 72.9291 63.0109L72.9023 63.2551C80.1326 64.0474 84.9844 69.0443 84.9844 75.9406H85.2301ZM53.6247 45.1514H64.7014V44.9057H53.6247V45.1514ZM53.7475 60.6659V45.0285H53.5018V60.6659H53.7475ZM62.9544 60.543H53.6247V60.7887H62.9544V60.543ZM74.0195 52.575C74.0195 55.1337 73.0411 57.1178 71.1803 58.4666C69.3137 59.8198 66.5461 60.543 62.9544 60.543V60.7887C66.5736 60.7887 69.3999 60.0607 71.3245 58.6655C73.255 57.2661 74.2651 55.2048 74.2651 52.575H74.0195ZM64.7014 45.1514C67.6961 45.1514 70.0253 45.8193 71.6034 47.0748C73.1772 48.3269 74.0195 50.1756 74.0195 52.575H74.2651C74.2651 50.1128 73.3976 48.1882 71.7563 46.8825C70.1194 45.5802 67.7281 44.9057 64.7014 44.9057V45.1514ZM53.7475 84.1037V66.87H53.5018V84.1037H53.7475ZM65.1101 83.9809H53.6247V84.2266H65.1101V83.9809ZM76.4726 75.4325C76.4726 78.2305 75.4915 80.3591 73.5944 81.7925C71.6915 83.2303 68.8508 83.9809 65.1101 83.9809V84.2266C68.8777 84.2266 71.7797 83.4715 73.7425 81.9885C75.7109 80.5012 76.7183 78.2942 76.7183 75.4325H76.4726ZM64.6268 66.9928C68.5551 66.9928 71.5174 67.7169 73.4947 69.1286C75.4649 70.5353 76.4726 72.6359 76.4726 75.4325H76.7183C76.7183 72.5689 75.6817 70.3883 73.6375 68.9287C71.6005 67.4743 68.5784 66.7471 64.6268 66.7471V66.9928ZM53.6247 66.9928H64.6268V66.7471H53.6247V66.9928Z" fill="white"/>
</g>
</g>
<defs>
<filter id="filter0_d_201_125" x="-2.05336" y="11.9293" width="131.636" height="106.543" filterUnits="userSpaceOnUse" color-interpolation-filters="sRGB">
<feFlood flood-opacity="0" result="BackgroundImageFix"/>
<feColorMatrix in="SourceAlpha" type="matrix" values="0 0 0 0 0 0 0 0 0 0 0 0 0 0 0 0 0 0 127 0" result="hardAlpha"/>
<feOffset dy="0.98264"/>
<feGaussianBlur stdDeviation="1.96528"/>
<feColorMatrix type="matrix" values="0 0 0 0 0 0 0 0 0 0 0 0 0 0 0 0 0 0 0.15 0"/>
<feBlend mode="normal" in2="BackgroundImageFix" result="effect1_dropShadow_201_125"/>
<feBlend mode="normal" in="SourceGraphic" in2="effect1_dropShadow_201_125" result="shape"/>
</filter>
<linearGradient id="paint0_linear_201_125" x1="49.0652" y1="41.8341" x2="73.1916" y2="82.6392" gradientUnits="userSpaceOnUse">
<stop stop-color="white"/>
<stop offset="1" stop-color="#F1E5FC"/>
</linearGradient>
<clipPath id="clip0_201_125">
<rect width="128" height="128" fill="white"/>
</clipPath>
</defs>
</svg>
