<svg width="128" height="128" viewBox="0 0 128 128" fill="none" xmlns="http://www.w3.org/2000/svg">
<path fill-rule="evenodd" clip-rule="evenodd" d="M10 2L19.8731 112.734L64.1749 125.033L108.601 112.715L118.483 2H10ZM64.2415 37.2662H31.4843L31.2111 34.2141L30.5929 27.3296L30.2674 23.6862H64.2415H64.2887H98.2969L97.9714 27.3296L94.6852 64.1798H94.6856L92.3225 90.5753L92.1176 92.8701L64.3239 100.573V100.574L64.2605 100.592L36.4421 92.8701L34.5387 71.546H48.1699L49.1381 82.3775L64.263 86.4624L64.276 86.4587V86.4563L79.4229 82.3678L81.0076 64.7542H64.2415V51.1742H82.2124L83.4549 37.2674H64.2415V37.2662ZM64.2411 51.1754V64.7566H49.3076L49.0357 61.7046L48.4163 54.8188L48.0907 51.1754H64.2411Z" fill="#1572B6"/>
</svg>
