<svg width="128" height="128" viewBox="0 0 128 128" fill="none" xmlns="http://www.w3.org/2000/svg">
<path fill-rule="evenodd" clip-rule="evenodd" d="M10 3L19.8459 113.432L64.0282 125.697L108.333 113.415L118.189 3H10ZM64.0482 52.9893H46.1718L44.9354 39.1183H64.0482H64.0947H96.7638L97.0344 36.0739L97.6526 29.2088L97.977 25.5743H64.0947H64.0482H30.1329L30.456 29.2088L33.7858 66.5321H64.0482H64.0947H80.7261L79.1543 84.0975L64.0482 88.1752L64.0347 88.1789L48.9518 84.1049L47.9872 73.3041H34.3905L36.2879 94.5702L64.0322 102.273L64.0947 102.254V102.252L91.8146 94.5702L92.0178 92.281L95.2006 56.625L95.5311 52.9893H91.8807H64.0947H64.0482Z" fill="white"/>
</svg>
