<svg width="128" height="128" viewBox="0 0 128 128" fill="none" xmlns="http://www.w3.org/2000/svg">
<path fill-rule="evenodd" clip-rule="evenodd" d="M126.592 1.4082H1.4082V126.593H126.592V1.4082ZM100.675 81.7549C111.706 86.2279 115.43 91.0249 116.347 96.7359C117.228 101.651 116.132 104.839 115.967 105.317C111.897 119.239 89.2051 119.691 80.1371 110.493C79.8633 110.184 79.6041 109.895 79.3576 109.621C77.879 107.977 76.8567 106.84 75.8771 104.698C78.3186 103.294 79.5234 102.601 80.7273 101.906C81.9 101.23 83.0718 100.552 85.3851 99.2129C87.9321 103.128 90.2881 105.281 94.5241 106.162C100.272 106.864 106.055 104.888 104.758 98.7839C103.985 95.8934 100.153 94.271 95.6848 92.379C92.4451 91.0072 88.8708 89.4939 85.8851 87.2529C78.6741 82.4099 76.9841 70.6419 82.9101 63.9179C84.8851 61.4309 88.2531 59.5759 91.7871 58.6829L95.4751 58.2059C102.555 58.0629 106.982 59.9319 110.231 63.5609C111.135 64.4769 111.872 65.4649 113.253 67.6059C112.471 68.1044 111.851 68.4985 111.313 68.8413C109.253 70.1517 108.372 70.7122 104.09 73.4849C102.935 70.9979 101.02 69.4389 98.9971 68.7609C95.8561 67.8089 91.8931 68.8439 91.0721 72.1639C90.7861 73.1869 90.8461 74.1389 91.298 75.8289C92.3285 78.1795 95.3238 79.4536 98.4601 80.7877C99.1986 81.1018 99.9448 81.4193 100.675 81.7549ZM57.7531 58.9429H69.4621C69.4621 62.5151 69.4685 66.0834 69.475 69.6491C69.4881 76.8327 69.5012 84.0058 69.4611 91.1799C69.4646 92.1517 69.4801 93.1098 69.4954 94.0528C69.5834 99.4946 69.6633 104.435 67.3911 108.624C65.5471 112.373 62.0251 114.836 57.9431 116.025C51.6711 117.465 45.6741 116.644 41.2121 113.966C38.2251 112.134 35.8931 109.314 34.3101 106.065L43.8301 100.235C43.9057 100.266 44.1157 100.636 44.3998 101.135C44.4313 101.19 44.4638 101.248 44.4971 101.306C45.7101 103.34 46.7571 104.779 48.8161 105.791C50.8391 106.481 55.2781 106.922 56.9911 103.364C57.8264 101.921 57.7833 97.8722 57.7317 93.0248C57.7187 91.7964 57.7051 90.5166 57.7051 89.2149L57.7531 58.9429Z" fill="white"/>
</svg>
